<?xml version="1.0" encoding="UTF-8" standalone="no"?>
<!-- Created with Inkscape (http://www.inkscape.org/) -->

<svg
   width="130mm"
   height="130mm"
   viewBox="0 0 130 130"
   version="1.1"
   id="svg1"
   inkscape:version="1.4.3 (0d15f75042, 2025-12-25)"
   sodipodi:docname="Link-Moderation-Bot.svg"
   inkscape:export-filename="Link-Moderation-Bot.png"
   inkscape:export-xdpi="300"
   inkscape:export-ydpi="300"
   xmlns:inkscape="http://www.inkscape.org/namespaces/inkscape"
   xmlns:sodipodi="http://sodipodi.sourceforge.net/DTD/sodipodi-0.dtd"
   xmlns="http://www.w3.org/2000/svg"
   xmlns:svg="http://www.w3.org/2000/svg">
  <sodipodi:namedview
     id="namedview1"
     pagecolor="#cbcbcb"
     bordercolor="#000000"
     borderopacity="0.25"
     inkscape:showpageshadow="2"
     inkscape:pageopacity="0.0"
     inkscape:pagecheckerboard="0"
     inkscape:deskcolor="#d1d1d1"
     inkscape:document-units="mm"
     inkscape:zoom="1.278761"
     inkscape:cx="159.13842"
     inkscape:cy="275.65745"
     inkscape:window-width="1920"
     inkscape:window-height="1008"
     inkscape:window-x="0"
     inkscape:window-y="0"
     inkscape:window-maximized="1"
     inkscape:current-layer="layer1"
     inkscape:export-bgcolor="#ffffff00" />
  <defs
     id="defs1">
    <inkscape:path-effect
       effect="powermask"
       id="path-effect31"
       is_visible="true"
       lpeversion="1"
       uri="#mask-powermask-path-effect31"
       invert="false"
       hide_mask="false"
       background="true"
       background_color="#ffffffff" />
    <inkscape:path-effect
       effect="powermask"
       id="path-effect24"
       is_visible="true"
       lpeversion="1"
       uri="#mask-powermask-path-effect24"
       invert="false"
       hide_mask="false"
       background="false"
       background_color="#ffffffff" />
    <inkscape:path-effect
       effect="powermask"
       id="path-effect22"
       is_visible="true"
       lpeversion="1"
       uri="#mask-powermask-path-effect22"
       invert="false"
       hide_mask="false"
       background="false"
       background_color="#ffffffff" />
    <inkscape:path-effect
       effect="powermask"
       id="path-effect20"
       is_visible="true"
       lpeversion="1"
       uri="#mask-powermask-path-effect20"
       invert="false"
       hide_mask="false"
       background="false"
       background_color="#ffffffff" />
    <inkscape:path-effect
       effect="powermask"
       id="path-effect15"
       is_visible="true"
       lpeversion="1"
       uri="#mask-powermask-path-effect15"
       invert="false"
       hide_mask="false"
       background="true"
       background_color="#ffffffff" />
    <inkscape:path-effect
       effect="powermask"
       id="path-effect14"
       is_visible="true"
       lpeversion="1"
       uri="#mask-powermask-path-effect14"
       invert="false"
       hide_mask="false"
       background="true"
       background_color="#ffffffff" />
    <inkscape:path-effect
       effect="powermask"
       id="path-effect12"
       is_visible="true"
       lpeversion="1"
       uri="#mask-powermask-path-effect12"
       invert="false"
       hide_mask="false"
       background="true"
       background_color="#ffffffff" />
    <inkscape:path-effect
       effect="powermask"
       id="path-effect10"
       is_visible="true"
       lpeversion="1"
       uri="#mask-powermask-path-effect10"
       invert="false"
       hide_mask="false"
       background="true"
       background_color="#ffffffff" />
    <inkscape:path-effect
       effect="powermask"
       id="path-effect3"
       is_visible="true"
       lpeversion="1"
       uri="#mask-powermask-path-effect3"
       invert="false"
       hide_mask="false"
       background="false"
       background_color="#ffffffff" />
    <inkscape:path-effect
       effect="powermask"
       id="path-effect6"
       is_visible="true"
       lpeversion="1"
       uri="#mask-powermask-path-effect6"
       invert="false"
       hide_mask="false"
       background="true"
       background_color="#ffffffff" />
    <inkscape:path-effect
       effect="powermask"
       id="path-effect11"
       is_visible="true"
       lpeversion="1"
       uri="#mask-powermask-path-effect11"
       invert="false"
       hide_mask="false"
       background="true"
       background_color="#ffffffff" />
    <inkscape:path-effect
       effect="powermask"
       id="path-effect9"
       is_visible="true"
       lpeversion="1"
       uri="#mask-powermask-path-effect9"
       invert="false"
       hide_mask="false"
       background="false"
       background_color="#ffffffff" />
    <inkscape:path-effect
       effect="powermask"
       id="path-effect8"
       is_visible="true"
       lpeversion="1"
       uri="#mask-powermask-path-effect8"
       invert="false"
       hide_mask="false"
       background="true"
       background_color="#ffffffff" />
    <filter
       id="mask-powermask-path-effect5_inverse"
       inkscape:label="filtermask-powermask-path-effect5"
       style="color-interpolation-filters:sRGB"
       height="100"
       width="100"
       x="-50"
       y="-50">
      <feColorMatrix
         id="mask-powermask-path-effect5_primitive1"
         values="1"
         type="saturate"
         result="fbSourceGraphic" />
      <feColorMatrix
         id="mask-powermask-path-effect5_primitive2"
         values="-1 0 0 0 1 0 -1 0 0 1 0 0 -1 0 1 0 0 0 1 0 "
         in="fbSourceGraphic" />
    </filter>
    <mask
       maskUnits="userSpaceOnUse"
       id="mask10">
      <path
         d="M 27.380004,57.068458 C 38.343848,68.04778 55.773145,69.129415 68.010357,59.589913 L 88.35807,79.937629 c 3.606284,3.482583 8.89282,-1.803959 5.410229,-5.410238 L 73.4206,54.179687 C 83.41406,41.3546 81.70178,22.967425 69.512077,12.208105 57.322371,1.4487879 38.864884,2.0329944 27.380004,13.541667 c -12.02392,12.017797 -12.02392,31.50899 0,43.526791 z m 5.41024,-38.108899 c 6.840495,-7.919484 20.023143,-9.0035022 29.193305,-2.876011 9.170042,6.127411 12.73216,17.879107 8.511844,28.069843 C 66.275077,54.344128 55.44738,60.136535 44.630147,57.986565 33.812776,55.836569 26.019524,46.343102 26.017873,35.31271 c -0.0212,-6.139805 2.417914,-12.032253 6.772371,-16.360802 z"
         id="path10"
         style="display:inline;fill:#ffffff;fill-opacity:1;stroke:#000000;stroke-width:2.12079;stroke-dasharray:none;stroke-opacity:1"
         sodipodi:nodetypes="cccccscccsssccc" />
    </mask>
    <mask
       maskUnits="userSpaceOnUse"
       id="mask-powermask-path-effect3-7">
      <path
         id="mask-powermask-path-effect3_box-5"
         style="fill:#ffffff;fill-opacity:1"
         d="M 18.077019,4.2157059 H 80.123825 V 66.262512 H 18.077019 Z" />
      <path
         style="display:inline;fill:#000000;fill-opacity:1;stroke:none;stroke-width:4;stroke-dasharray:none;stroke-opacity:1"
         d="M 37.054799,10.506354 C 33.765899,10.282651 30.805169,8.4377567 29.190089,5.6057202 28.656384,4.6698546 28.247212,3.5618034 28.079574,2.598355 28.025094,2.2853264 27.974627,2.0062413 27.96742,1.9781584 27.959324,1.946546 27.74426,1.9173571 27.402101,1.9016568 26.950444,1.8809134 26.769863,1.849518 26.410368,1.7293284 24.997541,1.2568751 24.03192,0.15069719 23.811922,-1.2473347 c -0.03985,-0.252894 -0.05073,-1.4111552 -0.04007,-4.2288381 l 0.0141,-3.8805405 0.153403,-0.4414891 c 0.265782,-0.7648866 0.662397,-1.3411786 1.246219,-1.8108536 0.642607,-0.516923 1.458727,-0.826489 2.318253,-0.879295 l 0.464743,-0.02859 0.0302,-0.44149 c 0.164315,-2.408847 1.473685,-4.922178 3.455398,-6.632673 1.154485,-0.996483 2.566538,-1.749049 3.94363,-2.101757 1.236438,-0.316714 0.890635,-0.299239 6.466449,-0.326436 l 5.065614,-0.02477 v -1.765979 -1.765998 l -0.407678,-0.215953 c -0.979884,-0.519037 -1.651897,-1.232305 -2.146961,-2.278755 -0.354203,-0.748701 -0.420116,-1.056052 -0.416801,-1.943521 0.0027,-0.695954 0.0145,-0.805451 0.129164,-1.185077 0.435214,-1.441353 1.376225,-2.55615 2.685704,-3.181685 0.713229,-0.34069 1.161468,-0.438328 2.015522,-0.438952 0.61595,-5.24e-4 0.750503,0.0141 1.155816,0.125817 0.86174,0.237272 1.530593,0.615266 2.170531,1.226669 1.29881,1.240862 1.83475,3.191065 1.316352,4.789971 -0.424794,1.310176 -1.217078,2.246444 -2.481673,2.932615 l -0.327676,0.177762 -0.0037,1.157396 c -0.0021,0.636546 -0.0013,1.43447 0.0011,1.773146 l 0.0048,0.615791 h 4.837287 c 5.305536,0 5.473747,0.008 6.518243,0.277456 0.806709,0.208766 1.297149,0.393333 2.052087,0.772254 2.527983,1.268885 4.411358,3.541742 5.207863,6.284877 0.124936,0.430276 0.275711,1.28491 0.322106,1.825811 l 0.03033,0.353674 0.472999,0.02677 c 1.482275,0.08375 2.813378,0.989819 3.377993,2.29945 0.33137,0.7686305 0.324953,0.6703881 0.324588,4.969608 -5.29e-4,4.37584054 0.0113,4.22517621 -0.394557,5.06187337 C 72.783505,1.066555 71.380383,1.9131185 69.95534,1.9131185 h -0.365591 l -0.02283,0.1509871 c -0.01249,0.08314 -0.03351,0.2242477 -0.04656,0.3136927 -0.05258,0.360299 -0.262183,1.1663336 -0.422963,1.6265869 -0.891122,2.5509564 -2.914454,4.7029211 -5.401783,5.7452048 -1.099662,0.460793 -2.158463,0.692552 -3.47448,0.760537 -0.96865,0.04992 -22.427517,0.0465 -23.167067,-0.0041 z"
         id="path3-3"
         sodipodi:nodetypes="cccccccccsccccscccccssccccccscccccsccssccsccsccsssccc" />
    </mask>
    <inkscape:path-effect
       effect="powermask"
       id="path-effect3-5"
       is_visible="true"
       lpeversion="1"
       uri="#mask-powermask-path-effect3-5"
       invert="false"
       hide_mask="false"
       background="true"
       background_color="#ffffffff" />
    <filter
       id="mask-powermask-path-effect3_inverse-6"
       inkscape:label="filtermask-powermask-path-effect3"
       style="color-interpolation-filters:sRGB"
       height="100"
       width="100"
       x="-50"
       y="-50">
      <feColorMatrix
         id="mask-powermask-path-effect3_primitive1-2"
         values="1"
         type="saturate"
         result="fbSourceGraphic" />
      <feColorMatrix
         id="mask-powermask-path-effect3_primitive2-9"
         values="-1 0 0 0 1 0 -1 0 0 1 0 0 -1 0 1 0 0 0 1 0 "
         in="fbSourceGraphic" />
    </filter>
    <mask
       maskUnits="userSpaceOnUse"
       id="mask-powermask-path-effect3-5">
      <path
         id="mask-powermask-path-effect3-5_box"
         style="fill:#ffffff;fill-opacity:1"
         d="M 16.077019,2.2157059 H 82.123825 V 68.262512 H 16.077019 Z" />
      <path
         id="path4"
         style="fill:#ffffff;fill-opacity:1"
         d="M 18.077019,4.2157059 H 80.123825 V 66.262512 H 18.077019 Z" />
      <path
         style="display:inline;fill:#000000;fill-opacity:1;stroke:none;stroke-width:4;stroke-dasharray:none;stroke-opacity:1"
         d="M 37.054799,10.506354 C 33.765899,10.282651 30.805169,8.4377567 29.190089,5.6057202 28.656384,4.6698546 28.247212,3.5618034 28.079574,2.598355 28.025094,2.2853264 27.974627,2.0062413 27.96742,1.9781584 27.959324,1.946546 27.74426,1.9173571 27.402101,1.9016568 26.950444,1.8809134 26.769863,1.849518 26.410368,1.7293284 24.997541,1.2568751 24.03192,0.15069719 23.811922,-1.2473347 c -0.03985,-0.252894 -0.05073,-1.4111552 -0.04007,-4.2288381 l 0.0141,-3.8805405 0.153403,-0.4414891 c 0.265782,-0.7648866 0.662397,-1.3411786 1.246219,-1.8108536 0.642607,-0.516923 1.458727,-0.826489 2.318253,-0.879295 l 0.464743,-0.02859 0.0302,-0.44149 c 0.164315,-2.408847 1.473685,-4.922178 3.455398,-6.632673 1.154485,-0.996483 2.566538,-1.749049 3.94363,-2.101757 1.236438,-0.316714 0.890635,-0.299239 6.466449,-0.326436 l 5.065614,-0.02477 v -1.765979 -1.765998 l -0.407678,-0.215953 c -0.979884,-0.519037 -1.651897,-1.232305 -2.146961,-2.278755 -0.354203,-0.748701 -0.420116,-1.056052 -0.416801,-1.943521 0.0027,-0.695954 0.0145,-0.805451 0.129164,-1.185077 0.435214,-1.441353 1.376225,-2.55615 2.685704,-3.181685 0.713229,-0.34069 1.161468,-0.438328 2.015522,-0.438952 0.61595,-5.24e-4 0.750503,0.0141 1.155816,0.125817 0.86174,0.237272 1.530593,0.615266 2.170531,1.226669 1.29881,1.240862 1.83475,3.191065 1.316352,4.789971 -0.424794,1.310176 -1.217078,2.246444 -2.481673,2.932615 l -0.327676,0.177762 -0.0037,1.157396 c -0.0021,0.636546 -0.0013,1.43447 0.0011,1.773146 l 0.0048,0.615791 h 4.837287 c 5.305536,0 5.473747,0.008 6.518243,0.277456 0.806709,0.208766 1.297149,0.393333 2.052087,0.772254 2.527983,1.268885 4.411358,3.541742 5.207863,6.284877 0.124936,0.430276 0.275711,1.28491 0.322106,1.825811 l 0.03033,0.353674 0.472999,0.02677 c 1.482275,0.08375 2.813378,0.989819 3.377993,2.29945 0.33137,0.7686305 0.324953,0.6703881 0.324588,4.969608 -5.29e-4,4.37584054 0.0113,4.22517621 -0.394557,5.06187337 C 72.783505,1.066555 71.380383,1.9131185 69.95534,1.9131185 h -0.365591 l -0.02283,0.1509871 c -0.01249,0.08314 -0.03351,0.2242477 -0.04656,0.3136927 -0.05258,0.360299 -0.262183,1.1663336 -0.422963,1.6265869 -0.891122,2.5509564 -2.914454,4.7029211 -5.401783,5.7452048 -1.099662,0.460793 -2.158463,0.692552 -3.47448,0.760537 -0.96865,0.04992 -22.427517,0.0465 -23.167067,-0.0041 z"
         id="path6"
         sodipodi:nodetypes="cccccccccsccccscccccssccccccscccccsccssccsccsccsssccc" />
    </mask>
    <filter
       id="mask-powermask-path-effect3-5_inverse"
       inkscape:label="filtermask-powermask-path-effect3-5"
       style="color-interpolation-filters:sRGB"
       height="100"
       width="100"
       x="-50"
       y="-50">
      <feColorMatrix
         id="mask-powermask-path-effect3-5_primitive1"
         values="1"
         type="saturate"
         result="fbSourceGraphic" />
      <feColorMatrix
         id="mask-powermask-path-effect3-5_primitive2"
         values="-1 0 0 0 1 0 -1 0 0 1 0 0 -1 0 1 0 0 0 1 0 "
         in="fbSourceGraphic" />
    </filter>
    <mask
       maskUnits="userSpaceOnUse"
       id="mask-powermask-path-effect3-5-6">
      <path
         id="mask-powermask-path-effect3-5-6_box"
         style="fill:#ffffff;fill-opacity:1"
         d="M 16.077019,2.2157059 H 82.123825 V 68.262512 H 16.077019 Z" />
      <path
         id="mask-powermask-path-effect3-5_box-0"
         style="fill:#ffffff;fill-opacity:1"
         d="M 16.077019,2.2157059 H 82.123825 V 68.262512 H 16.077019 Z" />
      <path
         id="path4-6"
         style="fill:#ffffff;fill-opacity:1"
         d="M 18.077019,4.2157059 H 80.123825 V 66.262512 H 18.077019 Z" />
      <path
         style="display:inline;fill:#000000;fill-opacity:1;stroke:none;stroke-width:4;stroke-dasharray:none;stroke-opacity:1"
         d="M 37.054799,10.506354 C 33.765899,10.282651 30.805169,8.4377567 29.190089,5.6057202 28.656384,4.6698546 28.247212,3.5618034 28.079574,2.598355 28.025094,2.2853264 27.974627,2.0062413 27.96742,1.9781584 27.959324,1.946546 27.74426,1.9173571 27.402101,1.9016568 26.950444,1.8809134 26.769863,1.849518 26.410368,1.7293284 24.997541,1.2568751 24.03192,0.15069719 23.811922,-1.2473347 c -0.03985,-0.252894 -0.05073,-1.4111552 -0.04007,-4.2288381 l 0.0141,-3.8805405 0.153403,-0.4414891 c 0.265782,-0.7648866 0.662397,-1.3411786 1.246219,-1.8108536 0.642607,-0.516923 1.458727,-0.826489 2.318253,-0.879295 l 0.464743,-0.02859 0.0302,-0.44149 c 0.164315,-2.408847 1.473685,-4.922178 3.455398,-6.632673 1.154485,-0.996483 2.566538,-1.749049 3.94363,-2.101757 1.236438,-0.316714 0.890635,-0.299239 6.466449,-0.326436 l 5.065614,-0.02477 v -1.765979 -1.765998 l -0.407678,-0.215953 c -0.979884,-0.519037 -1.651897,-1.232305 -2.146961,-2.278755 -0.354203,-0.748701 -0.420116,-1.056052 -0.416801,-1.943521 0.0027,-0.695954 0.0145,-0.805451 0.129164,-1.185077 0.435214,-1.441353 1.376225,-2.55615 2.685704,-3.181685 0.713229,-0.34069 1.161468,-0.438328 2.015522,-0.438952 0.61595,-5.24e-4 0.750503,0.0141 1.155816,0.125817 0.86174,0.237272 1.530593,0.615266 2.170531,1.226669 1.29881,1.240862 1.83475,3.191065 1.316352,4.789971 -0.424794,1.310176 -1.217078,2.246444 -2.481673,2.932615 l -0.327676,0.177762 -0.0037,1.157396 c -0.0021,0.636546 -0.0013,1.43447 0.0011,1.773146 l 0.0048,0.615791 h 4.837287 c 5.305536,0 5.473747,0.008 6.518243,0.277456 0.806709,0.208766 1.297149,0.393333 2.052087,0.772254 2.527983,1.268885 4.411358,3.541742 5.207863,6.284877 0.124936,0.430276 0.275711,1.28491 0.322106,1.825811 l 0.03033,0.353674 0.472999,0.02677 c 1.482275,0.08375 2.813378,0.989819 3.377993,2.29945 0.33137,0.7686305 0.324953,0.6703881 0.324588,4.969608 -5.29e-4,4.37584054 0.0113,4.22517621 -0.394557,5.06187337 C 72.783505,1.066555 71.380383,1.9131185 69.95534,1.9131185 h -0.365591 l -0.02283,0.1509871 c -0.01249,0.08314 -0.03351,0.2242477 -0.04656,0.3136927 -0.05258,0.360299 -0.262183,1.1663336 -0.422963,1.6265869 -0.891122,2.5509564 -2.914454,4.7029211 -5.401783,5.7452048 -1.099662,0.460793 -2.158463,0.692552 -3.47448,0.760537 -0.96865,0.04992 -22.427517,0.0465 -23.167067,-0.0041 z"
         id="path6-2"
         sodipodi:nodetypes="cccccccccsccccscccccssccccccscccccsccssccsccsccsssccc" />
    </mask>
    <inkscape:path-effect
       effect="powermask"
       id="path-effect3-5-6"
       is_visible="true"
       lpeversion="1"
       uri="#mask-powermask-path-effect3-5-6"
       invert="false"
       hide_mask="false"
       background="true"
       background_color="#ffffffff" />
    <filter
       id="mask-powermask-path-effect3-5_inverse-1"
       inkscape:label="filtermask-powermask-path-effect3-5"
       style="color-interpolation-filters:sRGB"
       height="100"
       width="100"
       x="-50"
       y="-50">
      <feColorMatrix
         id="mask-powermask-path-effect3-5_primitive1-8"
         values="1"
         type="saturate"
         result="fbSourceGraphic" />
      <feColorMatrix
         id="mask-powermask-path-effect3-5_primitive2-7"
         values="-1 0 0 0 1 0 -1 0 0 1 0 0 -1 0 1 0 0 0 1 0 "
         in="fbSourceGraphic" />
    </filter>
    <filter
       id="mask-powermask-path-effect3-5-6_inverse"
       inkscape:label="filtermask-powermask-path-effect3-5-6"
       style="color-interpolation-filters:sRGB"
       height="100"
       width="100"
       x="-50"
       y="-50">
      <feColorMatrix
         id="mask-powermask-path-effect3-5-6_primitive1"
         values="1"
         type="saturate"
         result="fbSourceGraphic" />
      <feColorMatrix
         id="mask-powermask-path-effect3-5-6_primitive2"
         values="-1 0 0 0 1 0 -1 0 0 1 0 0 -1 0 1 0 0 0 1 0 "
         in="fbSourceGraphic" />
    </filter>
    <mask
       maskUnits="userSpaceOnUse"
       id="mask-powermask-path-effect14">
      <path
         id="mask-powermask-path-effect14_box"
         style="fill:#ffffff;fill-opacity:1"
         d="M -1,-1 H 101 V 82.346303 H -1 Z" />
      <g
         id="g14"
         inkscape:label="Mask Bubble"
         style="">
        <path
           style="display:inline;fill:#000000;fill-opacity:1;stroke:#000000;stroke-width:4;stroke-dasharray:none;stroke-opacity:1"
           d="m 37.054799,10.506355 c -3.2889,-0.223703 -6.249631,-2.0685988 -7.86471,-4.9006348 -0.533705,-0.935866 -0.942877,-2.043918 -1.110514,-3.007364 -0.05448,-0.313029 -0.104947,-0.592116 -0.112155,-0.620199 -0.0081,-0.03161 -0.22316,-0.0608 -0.56532,-0.0765 -0.451656,-0.02074 -0.632238,-0.05214 -0.991731,-0.172328 -1.412827,-0.472453 -2.378448,-1.57863295 -2.598448,-2.976664 -0.03985,-0.252895 -0.05073,-1.411156 -0.04007,-4.228839 l 0.0141,-3.880539 0.153403,-0.44149 c 0.265781,-0.7648862 0.662397,-1.3411782 1.246219,-1.8108532 0.642605,-0.516923 1.458727,-0.826489 2.318253,-0.879295 l 0.464742,-0.02859 0.0302,-0.44149 c 0.164315,-2.408847 1.473683,-4.922178 3.455398,-6.632673 1.154485,-0.996483 2.566537,-1.749049 3.943629,-2.101757 1.236438,-0.316714 0.890637,-0.299239 6.466448,-0.326436 l 5.065616,-0.02477 v -1.765979 -1.765998 l -0.407678,-0.215953 c -0.979884,-0.519037 -1.651897,-1.232305 -2.146961,-2.278755 -0.354204,-0.748701 -0.420116,-1.056052 -0.416802,-1.943521 0.0027,-0.695954 0.01449,-0.805451 0.129166,-1.185077 0.435211,-1.441353 1.376224,-2.55615 2.685702,-3.181685 0.713229,-0.34069 1.161468,-0.438328 2.015523,-0.438952 0.615949,-5.25e-4 0.750502,0.0141 1.155815,0.125817 0.861739,0.237272 1.530593,0.615266 2.170532,1.226669 1.29881,1.240862 1.83475,3.191065 1.31635,4.789971 -0.424793,1.310176 -1.217077,2.246444 -2.481672,2.932615 l -0.327675,0.177762 -0.0037,1.157396 c -0.002,0.636546 -0.0014,1.43447 0.0011,1.773146 l 0.0048,0.615791 h 4.837287 c 5.305537,0 5.47375,0.008 6.518245,0.277456 0.806708,0.208766 1.297149,0.393333 2.052087,0.772254 2.527981,1.268885 4.411358,3.541742 5.207862,6.284877 0.124937,0.430276 0.275712,1.28491 0.322106,1.825811 l 0.03033,0.353674 0.472997,0.02677 c 1.482277,0.08375 2.813378,0.989819 3.377995,2.29945 0.33137,0.7686312 0.324952,0.6703882 0.324589,4.9696082 -5.25e-4,4.37584105 0.0113,4.22517505 -0.394559,5.06187205 -0.589736,1.21560395 -1.99286,2.06216495 -3.417902,2.06216495 h -0.365591 l -0.02283,0.150988 c -0.01248,0.08314 -0.03351,0.224248 -0.04656,0.313694 -0.05258,0.360298 -0.262184,1.166334 -0.422963,1.626586 -0.891123,2.550957 -2.914455,4.702922 -5.401783,5.745204 -1.099662,0.4607948 -2.158464,0.6925528 -3.474481,0.7605368 -0.96865,0.04992 -22.427516,0.0465 -23.167066,-0.0041 z"
           id="path13"
           sodipodi:nodetypes="cccccccccsccccscccccssccccccscccccsccssccsccsccsssccc" />
        <path
           style="fill:none;fill-opacity:0;stroke:#000000;stroke-width:10;stroke-linejoin:round;stroke-dasharray:none;stroke-opacity:1"
           id="path14"
           mask="url(#mask-powermask-path-effect3-5)"
           inkscape:path-effect="#path-effect3-5"
           sodipodi:type="arc"
           sodipodi:cx="49.100422"
           sodipodi:cy="35.239109"
           sodipodi:rx="27.023403"
           sodipodi:ry="27.023403"
           d="M 76.123825,35.239109 A 27.023403,27.023403 0 0 1 49.100422,62.262512 27.023403,27.023403 0 0 1 22.077019,35.239109 27.023403,27.023403 0 0 1 49.100422,8.2157059 27.023403,27.023403 0 0 1 76.123825,35.239109 Z"
           transform="translate(-1.8737793e-5,-3.8887158e-4)" />
        <rect
           style="fill:#000000;fill-opacity:1;stroke:#000000;stroke-width:4;stroke-linejoin:round;stroke-dasharray:none;stroke-opacity:1"
           id="rect14"
           width="35"
           height="6"
           x="86.701859"
           y="-13.49745"
           transform="rotate(45.333188)"
           ry="3"
           d="m 89.701859,-13.49745 h 29.000001 c 1.662,0 3,1.338 3,3 0,1.6620001 -1.338,3.0000001 -3,3.0000001 H 89.701859 c -1.662,0 -3,-1.338 -3,-3.0000001 0,-1.662 1.338,-3 3,-3 z" />
      </g>
    </mask>
    <filter
       id="mask-powermask-path-effect14_inverse"
       inkscape:label="filtermask-powermask-path-effect14"
       style="color-interpolation-filters:sRGB"
       height="100"
       width="100"
       x="-50"
       y="-50">
      <feColorMatrix
         id="mask-powermask-path-effect14_primitive1"
         values="1"
         type="saturate"
         result="fbSourceGraphic" />
      <feColorMatrix
         id="mask-powermask-path-effect14_primitive2"
         values="-1 0 0 0 1 0 -1 0 0 1 0 0 -1 0 1 0 0 0 1 0 "
         in="fbSourceGraphic" />
    </filter>
    <mask
       maskUnits="userSpaceOnUse"
       id="mask-powermask-path-effect15">
      <path
         id="mask-powermask-path-effect15_box"
         style="fill:#ffffff;fill-opacity:1"
         d="M 7.2498079,12.882177 H 92.750192 V 56.751894 H 7.2498079 Z" />
      <g
         id="g15"
         inkscape:label="Mask Lines"
         style="">
        <path
           style="fill:#000000;fill-opacity:1;stroke:#000000;stroke-width:10;stroke-linejoin:round;stroke-dasharray:none;stroke-opacity:1"
           id="path15"
           mask="url(#mask-powermask-path-effect3-5-6)"
           inkscape:path-effect="#path-effect3-5-6"
           sodipodi:type="arc"
           sodipodi:cx="49.100422"
           sodipodi:cy="35.239109"
           sodipodi:rx="27.023403"
           sodipodi:ry="27.023403"
           d="M 76.123825,35.239109 A 27.023403,27.023403 0 0 1 49.100422,62.262512 27.023403,27.023403 0 0 1 22.077019,35.239109 27.023403,27.023403 0 0 1 49.100422,8.2157059 27.023403,27.023403 0 0 1 76.123825,35.239109 Z"
           transform="translate(-1.8677083e-5,-3.8783333e-4)"
           inkscape:label="Ring" />
        <rect
           style="fill:#000000;fill-opacity:1;stroke:#000000;stroke-width:4;stroke-linejoin:round;stroke-dasharray:none;stroke-opacity:1"
           id="rect15"
           width="35"
           height="6"
           x="86.70253"
           y="-13.497453"
           transform="rotate(45.333188)"
           ry="3" />
      </g>
    </mask>
    <filter
       id="mask-powermask-path-effect15_inverse"
       inkscape:label="filtermask-powermask-path-effect15"
       style="color-interpolation-filters:sRGB"
       height="100"
       width="100"
       x="-50"
       y="-50">
      <feColorMatrix
         id="mask-powermask-path-effect15_primitive1"
         values="1"
         type="saturate"
         result="fbSourceGraphic" />
      <feColorMatrix
         id="mask-powermask-path-effect15_primitive2"
         values="-1 0 0 0 1 0 -1 0 0 1 0 0 -1 0 1 0 0 0 1 0 "
         in="fbSourceGraphic" />
    </filter>
    <mask
       maskUnits="userSpaceOnUse"
       id="mask-powermask-path-effect20">
      <path
         id="path24"
         style="fill:#ffffff;fill-opacity:1"
         d="M -1,-1 H 101 V 82.346303 H -1 Z" />
      <g
         id="g26"
         inkscape:label="Mask Bubble">
        <path
           style="display:inline;fill:#000000;fill-opacity:1;stroke:#000000;stroke-width:4;stroke-dasharray:none;stroke-opacity:1"
           d="m 37.054799,10.506355 c -3.2889,-0.223703 -6.249631,-2.0685988 -7.86471,-4.9006348 -0.533705,-0.935866 -0.942877,-2.043918 -1.110514,-3.007364 -0.05448,-0.313029 -0.104947,-0.592116 -0.112155,-0.620199 -0.0081,-0.03161 -0.22316,-0.0608 -0.56532,-0.0765 -0.451656,-0.02074 -0.632238,-0.05214 -0.991731,-0.172328 -1.412827,-0.472453 -2.378448,-1.57863295 -2.598448,-2.976664 -0.03985,-0.252895 -0.05073,-1.411156 -0.04007,-4.228839 l 0.0141,-3.880539 0.153403,-0.44149 c 0.265781,-0.7648862 0.662397,-1.3411782 1.246219,-1.8108532 0.642605,-0.516923 1.458727,-0.826489 2.318253,-0.879295 l 0.464742,-0.02859 0.0302,-0.44149 c 0.164315,-2.408847 1.473683,-4.922178 3.455398,-6.632673 1.154485,-0.996483 2.566537,-1.749049 3.943629,-2.101757 1.236438,-0.316714 0.890637,-0.299239 6.466448,-0.326436 l 5.065616,-0.02477 v -1.765979 -1.765998 l -0.407678,-0.215953 c -0.979884,-0.519037 -1.651897,-1.232305 -2.146961,-2.278755 -0.354204,-0.748701 -0.420116,-1.056052 -0.416802,-1.943521 0.0027,-0.695954 0.01449,-0.805451 0.129166,-1.185077 0.435211,-1.441353 1.376224,-2.55615 2.685702,-3.181685 0.713229,-0.34069 1.161468,-0.438328 2.015523,-0.438952 0.615949,-5.25e-4 0.750502,0.0141 1.155815,0.125817 0.861739,0.237272 1.530593,0.615266 2.170532,1.226669 1.29881,1.240862 1.83475,3.191065 1.31635,4.789971 -0.424793,1.310176 -1.217077,2.246444 -2.481672,2.932615 l -0.327675,0.177762 -0.0037,1.157396 c -0.002,0.636546 -0.0014,1.43447 0.0011,1.773146 l 0.0048,0.615791 h 4.837287 c 5.305537,0 5.47375,0.008 6.518245,0.277456 0.806708,0.208766 1.297149,0.393333 2.052087,0.772254 2.527981,1.268885 4.411358,3.541742 5.207862,6.284877 0.124937,0.430276 0.275712,1.28491 0.322106,1.825811 l 0.03033,0.353674 0.472997,0.02677 c 1.482277,0.08375 2.813378,0.989819 3.377995,2.29945 0.33137,0.7686312 0.324952,0.6703882 0.324589,4.9696082 -5.25e-4,4.37584105 0.0113,4.22517505 -0.394559,5.06187205 -0.589736,1.21560395 -1.99286,2.06216495 -3.417902,2.06216495 h -0.365591 l -0.02283,0.150988 c -0.01248,0.08314 -0.03351,0.224248 -0.04656,0.313694 -0.05258,0.360298 -0.262184,1.166334 -0.422963,1.626586 -0.891123,2.550957 -2.914455,4.702922 -5.401783,5.745204 -1.099662,0.4607948 -2.158464,0.6925528 -3.474481,0.7605368 -0.96865,0.04992 -22.427516,0.0465 -23.167066,-0.0041 z"
           id="path25"
           sodipodi:nodetypes="cccccccccsccccscccccssccccccscccccsccssccsccsccsssccc" />
        <path
           style="fill:none;fill-opacity:0;stroke:#000000;stroke-width:10;stroke-linejoin:round;stroke-dasharray:none;stroke-opacity:1"
           id="path26"
           mask="url(#mask-powermask-path-effect3-5)"
           inkscape:path-effect="#path-effect3-5"
           sodipodi:type="arc"
           sodipodi:cx="49.100422"
           sodipodi:cy="35.239109"
           sodipodi:rx="27.023403"
           sodipodi:ry="27.023403"
           d="M 76.123825,35.239109 A 27.023403,27.023403 0 0 1 49.100422,62.262512 27.023403,27.023403 0 0 1 22.077019,35.239109 27.023403,27.023403 0 0 1 49.100422,8.2157059 27.023403,27.023403 0 0 1 76.123825,35.239109 Z"
           transform="translate(-1.8737793e-5,-3.8887158e-4)" />
        <rect
           style="fill:#000000;fill-opacity:1;stroke:#000000;stroke-width:4;stroke-linejoin:round;stroke-dasharray:none;stroke-opacity:1"
           id="rect26"
           width="35"
           height="6"
           x="86.701859"
           y="-13.49745"
           transform="rotate(45.333188)"
           ry="3" />
      </g>
    </mask>
    <mask
       maskUnits="userSpaceOnUse"
       id="mask-powermask-path-effect22">
      <path
         id="path27"
         style="fill:#ffffff;fill-opacity:1"
         d="M 7.2498079,12.882177 H 92.750192 V 56.751894 H 7.2498079 Z" />
      <g
         id="g28"
         inkscape:label="Mask Lines">
        <path
           style="fill:#000000;fill-opacity:1;stroke:#000000;stroke-width:10;stroke-linejoin:round;stroke-dasharray:none;stroke-opacity:1"
           id="path28"
           mask="url(#mask-powermask-path-effect3-5-6)"
           inkscape:path-effect="#path-effect3-5-6"
           sodipodi:type="arc"
           sodipodi:cx="49.100422"
           sodipodi:cy="35.239109"
           sodipodi:rx="27.023403"
           sodipodi:ry="27.023403"
           d="M 76.123825,35.239109 A 27.023403,27.023403 0 0 1 49.100422,62.262512 27.023403,27.023403 0 0 1 22.077019,35.239109 27.023403,27.023403 0 0 1 49.100422,8.2157059 27.023403,27.023403 0 0 1 76.123825,35.239109 Z"
           transform="translate(-1.8677083e-5,-3.8783333e-4)"
           inkscape:label="Ring" />
        <rect
           style="fill:#000000;fill-opacity:1;stroke:#000000;stroke-width:4;stroke-linejoin:round;stroke-dasharray:none;stroke-opacity:1"
           id="rect28"
           width="35"
           height="6"
           x="86.70253"
           y="-13.497453"
           transform="rotate(45.333188)"
           ry="3" />
      </g>
    </mask>
    <mask
       maskUnits="userSpaceOnUse"
       id="mask-powermask-path-effect24">
      <path
         id="path29"
         style="fill:#ffffff;fill-opacity:1"
         d="M 18.077019,4.2157059 H 80.123825 V 66.262512 H 18.077019 Z" />
      <path
         style="display:inline;fill:#000000;fill-opacity:1;stroke:none;stroke-width:4;stroke-dasharray:none;stroke-opacity:1"
         d="M 37.054799,10.506354 C 33.765899,10.282651 30.805169,8.4377567 29.190089,5.6057202 28.656384,4.6698546 28.247212,3.5618034 28.079574,2.598355 28.025094,2.2853264 27.974627,2.0062413 27.96742,1.9781584 27.959324,1.946546 27.74426,1.9173571 27.402101,1.9016568 26.950444,1.8809134 26.769863,1.849518 26.410368,1.7293284 24.997541,1.2568751 24.03192,0.15069719 23.811922,-1.2473347 c -0.03985,-0.252894 -0.05073,-1.4111552 -0.04007,-4.2288381 l 0.0141,-3.8805405 0.153403,-0.4414891 c 0.265782,-0.7648866 0.662397,-1.3411786 1.246219,-1.8108536 0.642607,-0.516923 1.458727,-0.826489 2.318253,-0.879295 l 0.464743,-0.02859 0.0302,-0.44149 c 0.164315,-2.408847 1.473685,-4.922178 3.455398,-6.632673 1.154485,-0.996483 2.566538,-1.749049 3.94363,-2.101757 1.236438,-0.316714 0.890635,-0.299239 6.466449,-0.326436 l 5.065614,-0.02477 v -1.765979 -1.765998 l -0.407678,-0.215953 c -0.979884,-0.519037 -1.651897,-1.232305 -2.146961,-2.278755 -0.354203,-0.748701 -0.420116,-1.056052 -0.416801,-1.943521 0.0027,-0.695954 0.0145,-0.805451 0.129164,-1.185077 0.435214,-1.441353 1.376225,-2.55615 2.685704,-3.181685 0.713229,-0.34069 1.161468,-0.438328 2.015522,-0.438952 0.61595,-5.24e-4 0.750503,0.0141 1.155816,0.125817 0.86174,0.237272 1.530593,0.615266 2.170531,1.226669 1.29881,1.240862 1.83475,3.191065 1.316352,4.789971 -0.424794,1.310176 -1.217078,2.246444 -2.481673,2.932615 l -0.327676,0.177762 -0.0037,1.157396 c -0.0021,0.636546 -0.0013,1.43447 0.0011,1.773146 l 0.0048,0.615791 h 4.837287 c 5.305536,0 5.473747,0.008 6.518243,0.277456 0.806709,0.208766 1.297149,0.393333 2.052087,0.772254 2.527983,1.268885 4.411358,3.541742 5.207863,6.284877 0.124936,0.430276 0.275711,1.28491 0.322106,1.825811 l 0.03033,0.353674 0.472999,0.02677 c 1.482275,0.08375 2.813378,0.989819 3.377993,2.29945 0.33137,0.7686305 0.324953,0.6703881 0.324588,4.969608 -5.29e-4,4.37584054 0.0113,4.22517621 -0.394557,5.06187337 C 72.783505,1.066555 71.380383,1.9131185 69.95534,1.9131185 h -0.365591 l -0.02283,0.1509871 c -0.01249,0.08314 -0.03351,0.2242477 -0.04656,0.3136927 -0.05258,0.360299 -0.262183,1.1663336 -0.422963,1.6265869 -0.891122,2.5509564 -2.914454,4.7029211 -5.401783,5.7452048 -1.099662,0.460793 -2.158463,0.692552 -3.47448,0.760537 -0.96865,0.04992 -22.427517,0.0465 -23.167067,-0.0041 z"
         id="path30"
         sodipodi:nodetypes="cccccccccsccccscccccssccccccscccccsccssccsccsccsssccc" />
    </mask>
    <mask
       maskUnits="userSpaceOnUse"
       id="mask-powermask-path-effect31">
      <path
         id="mask-powermask-path-effect31_box"
         style="fill:#ffffff;fill-opacity:1"
         d="M 18.077019,4.2157059 H 80.123825 V 66.262512 H 18.077019 Z" />
      <path
         style="display:inline;fill:#000000;fill-opacity:1;stroke:none;stroke-width:4;stroke-dasharray:none;stroke-opacity:1"
         d="M 37.054799,9.4480206 C 33.765899,9.224318 30.805169,8.4377567 29.190089,5.6057202 28.656384,4.6698546 28.247212,3.5618034 28.079574,2.598355 28.025094,2.2853264 27.974627,2.0062413 27.96742,1.9781584 27.959324,1.946546 27.74426,1.9173571 27.402101,1.9016568 26.950444,1.8809134 26.769863,1.849518 26.410368,1.7293284 24.997541,1.2568751 24.03192,0.15069719 23.811922,-1.2473347 c -0.03985,-0.252894 -0.05073,-1.4111552 -0.04007,-4.2288381 l 0.0141,-3.8805405 0.153402,-0.4414891 c 0.265782,-0.7648866 0.662398,-1.3411786 1.24622,-1.8108536 0.642606,-0.516923 1.458727,-0.826489 2.318252,-0.879295 l 0.464744,-0.02859 0.0302,-0.44149 c 0.164314,-2.408847 1.473684,-4.922178 3.455398,-6.632673 1.154485,-0.996483 2.566537,-1.749049 3.94363,-2.101757 1.236438,-0.316714 0.890635,-0.299239 6.466448,-0.326436 l 5.065615,-0.02477 v -1.765979 -1.765998 l -0.407678,-0.215953 c -0.979884,-0.519037 -1.651897,-1.232305 -2.146961,-2.278755 -0.354203,-0.748701 -0.420116,-1.056052 -0.416801,-1.943521 0.0027,-0.695954 0.0145,-0.805451 0.129164,-1.185077 0.435213,-1.441353 1.376225,-2.55615 2.685704,-3.181685 0.713229,-0.34069 1.161467,-0.438328 2.015521,-0.438952 0.61595,-5.24e-4 0.750504,0.0141 1.155817,0.125817 0.86174,0.237272 1.530593,0.615266 2.17053,1.226669 1.298811,1.240862 1.834751,3.191065 1.316353,4.789971 -0.424794,1.310176 -1.217078,2.246444 -2.481673,2.932615 l -0.327676,0.177762 -0.0037,1.157396 c -0.0021,0.636546 -0.0013,1.43447 0.0011,1.773146 l 0.0048,0.615791 h 4.837287 c 5.305536,0 5.473748,0.008 6.518244,0.277456 0.806709,0.208766 1.297149,0.393333 2.052087,0.772254 2.527982,1.268885 4.411358,3.541742 5.207862,6.284877 0.124937,0.430276 0.275712,1.28491 0.322107,1.825811 l 0.03033,0.353674 0.473001,0.02677 c 1.482275,0.08375 2.813378,0.989819 3.377991,2.29945 0.331372,0.7686305 0.324953,0.6703881 0.324588,4.969608 -5.29e-4,4.37584054 0.0113,4.22517621 -0.394555,5.06187337 C 72.783452,1.066555 71.38033,1.9131185 69.955287,1.9131185 h -0.365591 l -0.02283,0.1509871 c -0.01249,0.08314 -0.03351,0.2242477 -0.04656,0.3136927 -0.05258,0.360299 -0.262184,1.1663336 -0.422963,1.6265869 -0.891122,2.5509564 -2.914454,3.6445878 -5.401784,4.6868715 -1.099661,0.460793 -2.158463,0.6925522 -3.474479,0.7605368 -0.96865,0.049919 -22.427517,0.046501 -23.167067,-0.0041 z"
         id="path31"
         sodipodi:nodetypes="cccccccccsccccscccccssccccccscccccsccssccsccsccsssccc" />
    </mask>
    <filter
       id="mask-powermask-path-effect31_inverse"
       inkscape:label="filtermask-powermask-path-effect31"
       style="color-interpolation-filters:sRGB"
       height="100"
       width="100"
       x="-50"
       y="-50">
      <feColorMatrix
         id="mask-powermask-path-effect31_primitive1"
         values="1"
         type="saturate"
         result="fbSourceGraphic" />
      <feColorMatrix
         id="mask-powermask-path-effect31_primitive2"
         values="-1 0 0 0 1 0 -1 0 0 1 0 0 -1 0 1 0 0 0 1 0 "
         in="fbSourceGraphic" />
    </filter>
  </defs>
  <path
     style="display:inline;fill:#ffffff;fill-opacity:1;stroke:#ffffff;stroke-width:10;stroke-dasharray:none;stroke-opacity:1"
     d="m 88.651096,106.43519 3.950525,4.01725 -25.475546,0.0423 -25.475546,0.0423 -6.443242,5.16866 c -4.608367,3.69675 -6.540042,5.19766 -6.783157,5.2705 -0.558075,0.1672 -1.125503,0.12702 -1.609086,-0.11396 h 1e-6 c -0.432627,-0.21559 -0.776058,-0.57709 -0.975912,-1.02725 -0.07882,-0.17754 -0.116773,-1.42721 -0.148271,-4.88209 l -0.04233,-4.64349 -0.931333,-0.23667 c -1.159317,-0.29461 -1.911046,-0.57798 -2.82975,-1.0667 -3.56306,-1.89545 -5.913531,-5.1116 -6.677611,-9.13699 -0.134276,-0.7074 -0.144639,-2.481835 -0.144639,-24.765003 0,-26.96238 -0.05819,-24.51737 0.63296,-26.594839 0.658793,-1.980205 1.559448,-3.424002 3.086217,-4.947375 1.842588,-1.838486 3.814271,-2.92155 6.424371,-3.528965 0.745789,-0.173556 1.011138,-0.182343 6.324118,-0.20941 l 5.545667,-0.02825 c 0,0 1.011661,3.100025 4.269568,3.690073 0.172752,0.03129 2.0295,0.06833 2.010325,0.0026 -0.16066,-0.550632 -0.26021,-1.731232 -0.334912,-1.737484 -2.343698,-0.196157 -3.45522,-1.161291 -3.96743,-2.431261 l -0.199552,-0.494798 v -4.322342 -4.322341 l 0.322704,-0.652997 c 0.609165,-1.232652 1.681467,-1.992937 3.086889,-2.188671 0.785853,-0.109446 0.73183,-0.0446 0.82394,-0.989077 0.132397,-1.357565 0.945028,-3.27875 1.947873,-4.605071 1.583563,-2.094359 4.128476,-3.589203 6.603261,-3.87866 0.372534,-0.04357 2.839509,-0.07951 5.482167,-0.07987 l 4.804833,-6.35e-4 -0.0011,-1.799166 -0.0011,-1.799167 -0.528164,-0.288775 C 60.300855,13.297788 59.271383,11.888672 59.048813,10.682285 58.756022,9.0952878 59.244784,7.5950077 60.445014,6.3965697 61.435084,5.4080787 62.412693,5 63.790781,5 c 1.407742,0 2.380514,0.4102457 3.390059,1.4296847 0.972521,0.982051 1.435941,2.0824761 1.435941,3.4097331 0,1.6445792 -1.035217,3.3397132 -2.510203,4.1103722 l -0.452728,0.236544 -2.01e-4,1.799166 -2.01e-4,1.799167 4.8895,0.0026 c 2.689224,0.0014 5.172752,0.03937 5.518948,0.08431 1.979954,0.256964 4.019684,1.295715 5.556909,2.829904 1.589037,1.585901 2.540513,3.456748 2.864566,5.63248 0.07137,0.479203 0.140563,0.88017 0.153756,0.891039 0.0132,0.01087 0.328787,0.0631 0.701319,0.116066 1.372377,0.195127 2.53084,1.040442 3.114458,2.272575 l 0.27221,0.574677 v 4.360334 4.360333 l -0.271661,0.573519 c -0.577361,1.218885 -1.847226,2.084853 -3.169507,2.161399 -0.596016,0.0345 -0.671484,0.05785 -0.7053,0.218192 -0.02082,0.09875 -0.09911,1.043455 -0.410041,1.658117 -0.03782,0.07477 2.145708,0.02567 2.145708,0.02567 1.059489,-0.461407 2.042345,-0.875425 2.80171,-1.627926 0.595225,-0.589846 0.790109,-0.851175 1.058333,-1.419177 l 0.328763,-0.696204 6.381471,-0.0024 c 7.01725,-0.0026 7.31077,0.01423 9.00806,0.514382 1.10105,0.324448 2.54623,1.014682 3.5529,1.696897 0.46673,0.316301 1.19897,0.945033 1.80636,1.551008 1.52802,1.524448 2.42844,2.967324 3.08692,4.946574 0.69115,2.077468 0.63296,-0.367541 0.63296,26.594839 0,26.462895 0.0403,24.373515 -0.507,26.288995 -0.28465,0.99626 -1.15792,2.76838 -1.83392,3.72157 -0.57633,0.81264 -1.77823,2.06758 -2.53106,2.64275 -0.77694,0.59358 -2.26995,1.50871 -3.86657,2.10747 -0.0644,0.0241 0.10394,0.21759 -1.87867,-1.771 l -1.68969,-1.7038 -2.83624,-0.008 c 0,0 4.26359,4.31092 5.24195,5.29805 3.83762,3.87207 3.79749,3.81802 3.80235,5.12234 0.002,0.66768 -0.0267,0.82215 -0.23578,1.24794 -0.68235,1.38956 -2.26479,2.07508 -3.65605,1.58382 -0.2794,-0.0987 -0.6289,-0.27105 -0.77667,-0.38309 -3.81379,-3.66765 -12.708385,-12.79213 -12.708385,-12.79213"
     id="path1-5"
     sodipodi:nodetypes="ccccsssssscsssssssscsssscccsssssscccsscssssccccsssssscccsssscssccssssssssscccscsssc" />
  <g
     inkscape:label="Ebene 1"
     inkscape:groupmode="layer"
     id="layer1"
     transform="translate(15,39.772669)">
    <path
       d="M 26.738177,70.701793 13.998251,80.898955 c -0.884891,0.704205 -2.177727,0.562326 -2.886464,-0.322133 -0.300782,-0.378193 -0.44676,-0.833362 -0.44676,-1.284426 h -0.01296 V 70.529941 C 7.9803657,70.087067 5.5792581,68.802642 3.7409082,66.968602 l -0.00407,-0.0085 -0.00407,0.0049 C 1.4347155,64.666835 0,61.483909 0,57.983372 V 12.71427 C 0,9.2135161 1.4347155,6.0307996 3.7327589,3.7327564 L 3.8787291,3.599505 C 6.1724614,1.3788684 9.2950177,0 12.718584,0 h 74.567364 c 3.500324,0 6.68347,1.4347132 8.981303,3.7327564 C 98.565293,6.0351099 100,9.2135161 100,12.71427 v 45.268727 c 0,3.500749 -1.434494,6.683683 -3.732749,8.981726 l -0.146191,0.133038 c -2.293732,2.220633 -5.412197,3.604032 -8.835545,3.604032 z m -11.95832,4.308017 9.801937,-7.84349 c 0.373661,-0.369349 0.889201,-0.59251 1.451747,-0.59251 h 61.251746 c 2.310977,0 4.419924,-0.928017 5.970213,-2.42267 l 0.09011,-0.103071 c 1.555031,-1.554811 2.525734,-3.706883 2.525734,-6.060767 V 12.714268 c 0,-2.3582 -0.970703,-4.5100541 -2.525734,-6.0607703 -1.554801,-1.5548099 -3.706433,-2.525516 -6.065067,-2.525516 h -74.56241 c -2.310983,0 -4.4242416,0.9277985 -5.9704314,2.4224535 L 6.6532702,6.6534956 C 5.0984583,8.2085222 4.1277473,10.360377 4.1277473,12.714266 v 45.268727 c 0,2.358194 0.970711,4.505736 2.5255227,6.060768 l -0.00407,0.0041 c 1.5464016,1.542091 3.676904,2.504391 6.01786,2.521635 h 0.0515 c 1.138244,0 2.06173,0.923054 2.06173,2.066042 z M 3.8782809,3.6038175 c 0,0 0.8117998,-0.6744493 0,0 z M 96.120824,67.097761 c 0,0 -0.807481,0.669919 0,0 z"
       id="path1"
       style="display:inline;fill:#000000;fill-opacity:1;stroke:none;stroke-width:2;stroke-dasharray:none;stroke-opacity:1"
       sodipodi:nodetypes="cccccccccssccsscssccscccssccsscssccsscccscccccc"
       inkscape:label="Bubble"
       mask="url(#mask-powermask-path-effect14)"
       inkscape:path-effect="#path-effect14"
       inkscape:original-d="M 26.738177,70.701793 13.998251,80.898955 c -0.884891,0.704205 -2.177727,0.562326 -2.886464,-0.322133 -0.300782,-0.378193 -0.44676,-0.833362 -0.44676,-1.284426 h -0.01296 V 70.529941 C 7.9803657,70.087067 5.5792581,68.802642 3.7409082,66.968602 l -0.00407,-0.0085 -0.00407,0.0049 C 1.4347155,64.666835 0,61.483909 0,57.983372 V 12.71427 C 0,9.2135161 1.4347155,6.0307996 3.7327589,3.7327564 L 3.8787291,3.599505 C 6.1724614,1.3788684 9.2950177,0 12.718584,0 h 74.567364 c 3.500324,0 6.68347,1.4347132 8.981303,3.7327564 C 98.565293,6.0351099 100,9.2135161 100,12.71427 v 45.268727 c 0,3.500749 -1.434494,6.683683 -3.732749,8.981726 l -0.146191,0.133038 c -2.293732,2.220633 -5.412197,3.604032 -8.835545,3.604032 z m -11.95832,4.308017 9.801937,-7.84349 c 0.373661,-0.369349 0.889201,-0.59251 1.451747,-0.59251 h 61.251746 c 2.310977,0 4.419924,-0.928017 5.970213,-2.42267 l 0.09011,-0.103071 c 1.555031,-1.554811 2.525734,-3.706883 2.525734,-6.060767 V 12.714268 c 0,-2.3582 -0.970703,-4.5100541 -2.525734,-6.0607703 -1.554801,-1.5548099 -3.706433,-2.525516 -6.065067,-2.525516 h -74.56241 c -2.310983,0 -4.4242416,0.9277985 -5.9704314,2.4224535 L 6.6532702,6.6534956 C 5.0984583,8.2085222 4.1277473,10.360377 4.1277473,12.714266 v 45.268727 c 0,2.358194 0.970711,4.505736 2.5255227,6.060768 l -0.00407,0.0041 c 1.5464016,1.542091 3.676904,2.504391 6.01786,2.521635 h 0.0515 c 1.138244,0 2.06173,0.923054 2.06173,2.066042 z M 3.8782809,3.6038175 c 0,0 0.8117998,-0.6744493 0,0 z M 96.120824,67.097761 c 0,0 -0.807481,0.669919 0,0 z" />
    <g
       id="g3"
       inkscape:label="Lines"
       mask="url(#mask-powermask-path-effect15)"
       inkscape:path-effect="#path-effect15">
      <path
         d="m 10.785045,31.215715 c -1.3967351,0 -2.5352371,-1.138502 -2.5352371,-2.535237 0,-1.396736 1.138502,-2.530211 2.5352371,-2.530211 h 78.429907 c 1.39674,0 2.53524,1.133211 2.53524,2.530211 0,1.396735 -1.1385,2.535237 -2.53524,2.535237 z"
         id="path2-2"
         style="display:inline;stroke-width:0.264583"
         inkscape:original-d="m 10.785045,31.215715 c -1.3967351,0 -2.5352371,-1.138502 -2.5352371,-2.535237 0,-1.396736 1.138502,-2.530211 2.5352371,-2.530211 h 78.429907 c 1.39674,0 2.53524,1.133211 2.53524,2.530211 0,1.396735 -1.1385,2.535237 -2.53524,2.535237 z" />
      <path
         d="m 10.785046,18.947625 c -1.3967349,0 -2.5352369,-1.138502 -2.5352369,-2.535237 0,-1.396736 1.138502,-2.530211 2.5352369,-2.530211 h 78.429908 c 1.396735,0 2.535237,1.133211 2.535237,2.530211 0,1.396735 -1.138502,2.535237 -2.535237,2.535237 z"
         id="path2"
         style="display:inline;stroke-width:0.264583"
         inkscape:original-d="m 10.785046,18.947625 c -1.3967349,0 -2.5352369,-1.138502 -2.5352369,-2.535237 0,-1.396736 1.138502,-2.530211 2.5352369,-2.530211 h 78.429908 c 1.396735,0 2.535237,1.133211 2.535237,2.530211 0,1.396735 -1.138502,2.535237 -2.535237,2.535237 z" />
      <path
         d="m 10.565099,55.751894 c -1.2755598,0 -2.31529,-1.138502 -2.31529,-2.535237 0,-1.396736 1.0397302,-2.530211 2.31529,-2.530211 h 71.625647 c 1.27556,0 2.31529,1.133211 2.31529,2.530211 0,1.396735 -1.03973,2.535237 -2.31529,2.535237 z"
         id="path2-9"
         style="display:inline;stroke-width:0.252846"
         inkscape:original-d="m 10.565099,55.751894 c -1.2755598,0 -2.31529,-1.138502 -2.31529,-2.535237 0,-1.396736 1.0397302,-2.530211 2.31529,-2.530211 h 71.625647 c 1.27556,0 2.31529,1.133211 2.31529,2.530211 0,1.396735 -1.03973,2.535237 -2.31529,2.535237 z" />
      <path
         d="m 10.785047,43.483804 c -1.396735,0 -2.535237,-1.138502 -2.535237,-2.535237 0,-1.396736 1.138502,-2.530211 2.535237,-2.530211 H 89.21496 c 1.39673,0 2.53523,1.133211 2.53523,2.530211 0,1.396735 -1.1385,2.535237 -2.53523,2.535237 z"
         id="path2-7"
         style="display:inline;stroke-width:0.264583"
         inkscape:original-d="m 10.785047,43.483804 c -1.396735,0 -2.535237,-1.138502 -2.535237,-2.535237 0,-1.396736 1.138502,-2.530211 2.535237,-2.530211 H 89.21496 c 1.39673,0 2.53523,1.133211 2.53523,2.530211 0,1.396735 -1.1385,2.535237 -2.53523,2.535237 z" />
    </g>
    <g
       id="g8"
       inkscape:label="Bot">
      <path
         style="fill:none;fill-opacity:0;stroke:#000000;stroke-width:6;stroke-linejoin:round;stroke-dasharray:none;stroke-opacity:1"
         id="path7"
         mask="url(#mask-powermask-path-effect31)"
         inkscape:path-effect="#path-effect31"
         sodipodi:type="arc"
         sodipodi:cx="49.100422"
         sodipodi:cy="35.239109"
         sodipodi:rx="27.023403"
         sodipodi:ry="27.023403"
         d="M 76.123825,35.239109 A 27.023403,27.023403 0 0 1 49.100422,62.262512 27.023403,27.023403 0 0 1 22.077019,35.239109 27.023403,27.023403 0 0 1 49.100422,8.2157059 27.023403,27.023403 0 0 1 76.123825,35.239109 Z" />
      <rect
         style="fill:#000000;fill-opacity:1;stroke:none;stroke-width:6.4809;stroke-linejoin:round;stroke-dasharray:none;stroke-opacity:1"
         id="rect7"
         width="35"
         height="6"
         x="86.702049"
         y="-13.497233"
         transform="rotate(45.333188)"
         ry="3" />
      <path
         style="display:inline;fill:#000000;stroke-width:0.0464735"
         d="M 37.055219,10.506686 C 33.766319,10.282983 30.805588,8.4380875 29.190509,5.6060509 28.656804,4.6701854 28.247632,3.5621329 28.079995,2.5986868 28.025515,2.2856579 27.975048,2.0065712 27.96784,1.9784875 27.95974,1.9468805 27.74468,1.9176895 27.40252,1.9019865 26.950864,1.8812505 26.770282,1.8498455 26.410789,1.7296586 24.997962,1.2572062 24.032341,0.151026 23.812341,-1.2470046 c -0.03985,-0.2528953 -0.05073,-1.4111565 -0.04007,-4.228839 l 0.0141,-3.8805395 0.153403,-0.44149 c 0.265781,-0.7648859 0.662397,-1.3411779 1.246219,-1.8108529 0.642605,-0.516923 1.458727,-0.826489 2.318253,-0.879295 l 0.464742,-0.02859 0.0302,-0.44149 c 0.164315,-2.408846 1.473683,-4.922177 3.455398,-6.632672 1.154485,-0.996483 2.566537,-1.749049 3.943629,-2.101757 1.236438,-0.316714 0.890637,-0.299239 6.466448,-0.326436 l 5.065616,-0.02477 v -1.765979 -1.765998 l -0.407678,-0.215953 c -0.979884,-0.519037 -1.651897,-1.232305 -2.146961,-2.278755 -0.354204,-0.748701 -0.420116,-1.056052 -0.416802,-1.943521 0.0027,-0.695954 0.01449,-0.805451 0.129166,-1.185077 0.435211,-1.441353 1.376224,-2.55615 2.685702,-3.181685 0.713229,-0.34069 1.161468,-0.438328 2.015523,-0.438952 0.615949,-5.25e-4 0.750502,0.0141 1.155815,0.125817 0.861739,0.237272 1.530593,0.615266 2.170532,1.226669 1.29881,1.240862 1.83475,3.191065 1.31635,4.789971 -0.424793,1.310176 -1.217077,2.246444 -2.481672,2.932615 l -0.327675,0.177762 -0.0037,1.157396 c -0.002,0.636546 -0.0014,1.43447 0.0011,1.773146 l 0.0048,0.615791 h 4.837287 c 5.305537,0 5.47375,0.008 6.518245,0.277456 0.806708,0.208766 1.297149,0.393333 2.052087,0.772254 2.527981,1.268885 4.411358,3.541742 5.207862,6.284877 0.124937,0.430276 0.275712,1.28491 0.322106,1.825811 l 0.03033,0.353674 0.472997,0.02677 c 1.482277,0.08375 2.813378,0.989819 3.377995,2.29945 0.33137,0.7686309 0.324952,0.6703879 0.324589,4.9696082 -5.25e-4,4.3758411 0.0113,4.2251751 -0.394559,5.0618715 -0.589736,1.2156042 -1.99286,2.0621653 -3.417902,2.0621653 h -0.365591 l -0.02283,0.1509882 c -0.01248,0.083144 -0.03351,0.2242478 -0.04656,0.3136933 -0.05258,0.3602986 -0.262184,1.1663344 -0.422963,1.6265869 -0.891123,2.5509568 -2.914455,4.7029221 -5.401783,5.7452041 -1.099662,0.4607945 -2.158464,0.6925525 -3.474481,0.7605365 -0.96865,0.04992 -22.427516,0.0465 -23.167066,-0.0041 z M 60.687018,6.4569202 C 61.424695,6.2841896 62.224979,5.9448486 62.807109,5.5578353 63.233505,5.27438 63.84994,4.6868947 64.1771,4.2522097 c 0.53174,-0.7065245 0.933119,-1.6640115 1.040293,-2.481603 0.03611,-0.2755033 0.04719,-2.5284696 0.03728,-7.5950921 l -0.0141,-7.2034086 -0.132911,-0.487974 c -0.326273,-1.197821 -0.941545,-2.200261 -1.830582,-2.982461 -0.733409,-0.645283 -1.731869,-1.131526 -2.749215,-1.338844 -0.453379,-0.09241 -0.613587,-0.09362 -11.728679,-0.09362 -9.934171,0 -11.313541,0.008 -11.644876,0.07127 -1.11584,0.211685 -2.222718,0.779946 -3.068338,1.57529 -0.596944,0.561455 -1.181339,1.465694 -1.470963,2.276018 -0.316183,0.884651 -0.300148,0.433457 -0.300148,8.4464648 0,6.4409179 0.0083,7.2865327 0.07385,7.6048965 0.348366,1.6896996 1.419462,3.072893 2.993401,3.8656216 0.531288,0.2675915 1.228743,0.4973554 1.765994,0.5817477 0.322846,0.050732 2.479751,0.060194 11.804284,0.052344 10.386011,-0.00806 11.438432,-0.016105 11.73457,-0.085963 z M 40.285129,-1.9250022 c -0.680121,-0.097035 -1.506417,-0.4485761 -2.009588,-0.8551572 -0.612736,-0.4951006 -1.153956,-1.3208052 -1.336358,-2.0387845 -0.308322,-1.2136235 0.07103,-2.5820202 0.979246,-3.5323204 1.041977,-1.090256 2.470726,-1.497683 3.850217,-1.097906 1.524129,0.441671 2.621953,1.73868 2.813909,3.32448 0.07485,0.6182869 -0.01349,1.1826607 -0.284582,1.8199117 -0.198621,0.4667752 -0.456732,0.8319051 -0.896778,1.2687041 -0.696934,0.6917679 -1.543137,1.0723791 -2.46823,1.1101663 -0.279627,0.012073 -0.571154,0.012073 -0.647836,9.06e-4 z m 15.971283,-0.02134 c -2.085361,-0.3735852 -3.570756,-2.342452 -3.258891,-4.3196132 0.129588,-0.8214968 0.49761,-1.5321479 1.108764,-2.1409929 0.67938,-0.67679 1.440108,-1.058952 2.332044,-1.171549 1.569634,-0.198096 3.190154,0.720033 3.90306,2.2114148 0.266249,0.5569857 0.368865,1.0120039 0.368865,1.6355854 0,1.0745331 -0.379604,1.9421921 -1.191511,2.7234659 -0.508451,0.4892624 -1.095754,0.8163834 -1.787499,0.9956368 -0.33765,0.087574 -1.151657,0.1240114 -1.474832,0.066033 z"
         id="path1-3" />
      <path
         fill-rule="evenodd"
         clip-rule="evenodd"
         d="m 43.509062,23.559732 c -1.699196,-1.699311 -4.454253,-1.699311 -6.153671,0 -1.699204,1.699286 -1.699204,4.454413 0,6.153716 l 6.527019,6.527 c 1.699419,1.699414 4.454475,1.699414 6.153737,0 0.849668,-0.8496 2.227213,-0.8496 3.076855,0 0.849668,0.849598 0.849668,2.227241 0,3.076831 -3.398597,3.398622 -8.908817,3.398622 -12.307431,0 l -6.527018,-6.526956 c -3.398624,-3.398613 -3.398624,-8.908851 0,-12.30747 3.39862,-3.398597 8.908725,-3.398597 12.307347,0 l 3.263592,3.263509 c 0.849669,0.849659 0.849669,2.227215 0,3.076884 -0.849684,0.849642 -2.227106,0.849642 -3.07692,0 z m 10.878385,10.878364 c -1.699287,-1.699311 -4.454409,-1.699311 -6.153696,0 -0.8496,0.849643 -2.227237,0.849643 -3.07683,0 -0.849824,-0.849659 -0.849824,-2.227215 0,-3.076883 3.398613,-3.398595 8.908793,-3.398595 12.307407,0 l 6.527018,6.527085 c 3.398598,3.398622 3.398598,8.908723 0,12.307371 -3.398615,3.398578 -8.908856,3.398578 -12.30747,0 l -3.263445,-3.263546 c -0.849825,-0.849601 -0.849825,-2.227209 0,-3.076824 0.849593,-0.84959 2.227147,-0.84959 3.076814,0 l 3.26351,3.263486 c 1.699303,1.699451 4.454409,1.699451 6.153711,0 1.699311,-1.699206 1.699311,-4.454448 0,-6.153646 z"
         fill="#4a5568"
         id="path1-2"
         style="display:inline;fill:#000000;fill-opacity:1;stroke-width:2.17567" />
    </g>
  </g>
</svg>
