<?xml version="1.0" encoding="UTF-8" standalone="no"?>
<!-- Created with Inkscape (http://www.inkscape.org/) -->

<svg
   width="130mm"
   height="130mm"
   viewBox="0 0 130 130"
   version="1.1"
   id="svg1"
   inkscape:version="1.4.4 (dcaf3e7d9e, 2026-05-05)"
   sodipodi:docname="Bot.svg"
   inkscape:export-filename="Bot.png"
   inkscape:export-xdpi="300"
   inkscape:export-ydpi="300"
   xml:space="preserve"
   xmlns:inkscape="http://www.inkscape.org/namespaces/inkscape"
   xmlns:sodipodi="http://sodipodi.sourceforge.net/DTD/sodipodi-0.dtd"
   xmlns="http://www.w3.org/2000/svg"
   xmlns:svg="http://www.w3.org/2000/svg"><sodipodi:namedview
     id="namedview1"
     pagecolor="#cbcbcb"
     bordercolor="#000000"
     borderopacity="0.25"
     inkscape:showpageshadow="2"
     inkscape:pageopacity="0.0"
     inkscape:pagecheckerboard="0"
     inkscape:deskcolor="#d1d1d1"
     inkscape:document-units="mm"
     inkscape:zoom="1.278761"
     inkscape:cx="247.5052"
     inkscape:cy="259.23531"
     inkscape:window-width="1920"
     inkscape:window-height="1008"
     inkscape:window-x="0"
     inkscape:window-y="0"
     inkscape:window-maximized="1"
     inkscape:current-layer="svg1"
     inkscape:export-bgcolor="#ffffff00" /><defs
     id="defs1"><inkscape:path-effect
       effect="powermask"
       id="path-effect31"
       is_visible="true"
       lpeversion="1"
       uri="#mask-powermask-path-effect31"
       invert="false"
       hide_mask="false"
       background="true"
       background_color="#ffffffff" /><inkscape:path-effect
       effect="powermask"
       id="path-effect24"
       is_visible="true"
       lpeversion="1"
       uri="#mask-powermask-path-effect24"
       invert="false"
       hide_mask="false"
       background="false"
       background_color="#ffffffff" /><inkscape:path-effect
       effect="powermask"
       id="path-effect22"
       is_visible="true"
       lpeversion="1"
       uri="#mask-powermask-path-effect22"
       invert="false"
       hide_mask="false"
       background="false"
       background_color="#ffffffff" /><inkscape:path-effect
       effect="powermask"
       id="path-effect20"
       is_visible="true"
       lpeversion="1"
       uri="#mask-powermask-path-effect20"
       invert="false"
       hide_mask="false"
       background="false"
       background_color="#ffffffff" /><inkscape:path-effect
       effect="powermask"
       id="path-effect15"
       is_visible="true"
       lpeversion="1"
       uri="#mask-powermask-path-effect15"
       invert="false"
       hide_mask="false"
       background="true"
       background_color="#ffffffff" /><inkscape:path-effect
       effect="powermask"
       id="path-effect14"
       is_visible="true"
       lpeversion="1"
       uri="#mask-powermask-path-effect14"
       invert="false"
       hide_mask="false"
       background="true"
       background_color="#ffffffff" /><inkscape:path-effect
       effect="powermask"
       id="path-effect12"
       is_visible="true"
       lpeversion="1"
       uri="#mask-powermask-path-effect12"
       invert="false"
       hide_mask="false"
       background="true"
       background_color="#ffffffff" /><inkscape:path-effect
       effect="powermask"
       id="path-effect10"
       is_visible="true"
       lpeversion="1"
       uri="#mask-powermask-path-effect10"
       invert="false"
       hide_mask="false"
       background="true"
       background_color="#ffffffff" /><inkscape:path-effect
       effect="powermask"
       id="path-effect3"
       is_visible="true"
       lpeversion="1"
       uri="#mask-powermask-path-effect3"
       invert="false"
       hide_mask="false"
       background="false"
       background_color="#ffffffff" /><inkscape:path-effect
       effect="powermask"
       id="path-effect6"
       is_visible="true"
       lpeversion="1"
       uri="#mask-powermask-path-effect6"
       invert="false"
       hide_mask="false"
       background="true"
       background_color="#ffffffff" /><inkscape:path-effect
       effect="powermask"
       id="path-effect11"
       is_visible="true"
       lpeversion="1"
       uri="#mask-powermask-path-effect11"
       invert="false"
       hide_mask="false"
       background="true"
       background_color="#ffffffff" /><inkscape:path-effect
       effect="powermask"
       id="path-effect9"
       is_visible="true"
       lpeversion="1"
       uri="#mask-powermask-path-effect9"
       invert="false"
       hide_mask="false"
       background="false"
       background_color="#ffffffff" /><inkscape:path-effect
       effect="powermask"
       id="path-effect8"
       is_visible="true"
       lpeversion="1"
       uri="#mask-powermask-path-effect8"
       invert="false"
       hide_mask="false"
       background="true"
       background_color="#ffffffff" /><filter
       id="mask-powermask-path-effect5_inverse"
       inkscape:label="filtermask-powermask-path-effect5"
       style="color-interpolation-filters:sRGB"
       height="100"
       width="100"
       x="-50"
       y="-50"><feColorMatrix
         id="mask-powermask-path-effect5_primitive1"
         values="1"
         type="saturate"
         result="fbSourceGraphic" /><feColorMatrix
         id="mask-powermask-path-effect5_primitive2"
         values="-1 0 0 0 1 0 -1 0 0 1 0 0 -1 0 1 0 0 0 1 0 "
         in="fbSourceGraphic" /></filter><mask
       maskUnits="userSpaceOnUse"
       id="mask10"><path
         d="M 27.380004,57.068458 C 38.343848,68.04778 55.773145,69.129415 68.010357,59.589913 L 88.35807,79.937629 c 3.606284,3.482583 8.89282,-1.803959 5.410229,-5.410238 L 73.4206,54.179687 C 83.41406,41.3546 81.70178,22.967425 69.512077,12.208105 57.322371,1.4487879 38.864884,2.0329944 27.380004,13.541667 c -12.02392,12.017797 -12.02392,31.50899 0,43.526791 z m 5.41024,-38.108899 c 6.840495,-7.919484 20.023143,-9.0035022 29.193305,-2.876011 9.170042,6.127411 12.73216,17.879107 8.511844,28.069843 C 66.275077,54.344128 55.44738,60.136535 44.630147,57.986565 33.812776,55.836569 26.019524,46.343102 26.017873,35.31271 c -0.0212,-6.139805 2.417914,-12.032253 6.772371,-16.360802 z"
         id="path10"
         style="display:inline;fill:#ffffff;fill-opacity:1;stroke:#000000;stroke-width:2.12079;stroke-dasharray:none;stroke-opacity:1"
         sodipodi:nodetypes="cccccscccsssccc" /></mask><mask
       maskUnits="userSpaceOnUse"
       id="mask-powermask-path-effect3-7"><path
         id="mask-powermask-path-effect3_box-5"
         style="fill:#ffffff;fill-opacity:1"
         d="M 18.077019,4.2157059 H 80.123825 V 66.262512 H 18.077019 Z" /><path
         style="display:inline;fill:#000000;fill-opacity:1;stroke:none;stroke-width:4;stroke-dasharray:none;stroke-opacity:1"
         d="M 37.054799,10.506354 C 33.765899,10.282651 30.805169,8.4377567 29.190089,5.6057202 28.656384,4.6698546 28.247212,3.5618034 28.079574,2.598355 28.025094,2.2853264 27.974627,2.0062413 27.96742,1.9781584 27.959324,1.946546 27.74426,1.9173571 27.402101,1.9016568 26.950444,1.8809134 26.769863,1.849518 26.410368,1.7293284 24.997541,1.2568751 24.03192,0.15069719 23.811922,-1.2473347 c -0.03985,-0.252894 -0.05073,-1.4111552 -0.04007,-4.2288381 l 0.0141,-3.8805405 0.153403,-0.4414891 c 0.265782,-0.7648866 0.662397,-1.3411786 1.246219,-1.8108536 0.642607,-0.516923 1.458727,-0.826489 2.318253,-0.879295 l 0.464743,-0.02859 0.0302,-0.44149 c 0.164315,-2.408847 1.473685,-4.922178 3.455398,-6.632673 1.154485,-0.996483 2.566538,-1.749049 3.94363,-2.101757 1.236438,-0.316714 0.890635,-0.299239 6.466449,-0.326436 l 5.065614,-0.02477 v -1.765979 -1.765998 l -0.407678,-0.215953 c -0.979884,-0.519037 -1.651897,-1.232305 -2.146961,-2.278755 -0.354203,-0.748701 -0.420116,-1.056052 -0.416801,-1.943521 0.0027,-0.695954 0.0145,-0.805451 0.129164,-1.185077 0.435214,-1.441353 1.376225,-2.55615 2.685704,-3.181685 0.713229,-0.34069 1.161468,-0.438328 2.015522,-0.438952 0.61595,-5.24e-4 0.750503,0.0141 1.155816,0.125817 0.86174,0.237272 1.530593,0.615266 2.170531,1.226669 1.29881,1.240862 1.83475,3.191065 1.316352,4.789971 -0.424794,1.310176 -1.217078,2.246444 -2.481673,2.932615 l -0.327676,0.177762 -0.0037,1.157396 c -0.0021,0.636546 -0.0013,1.43447 0.0011,1.773146 l 0.0048,0.615791 h 4.837287 c 5.305536,0 5.473747,0.008 6.518243,0.277456 0.806709,0.208766 1.297149,0.393333 2.052087,0.772254 2.527983,1.268885 4.411358,3.541742 5.207863,6.284877 0.124936,0.430276 0.275711,1.28491 0.322106,1.825811 l 0.03033,0.353674 0.472999,0.02677 c 1.482275,0.08375 2.813378,0.989819 3.377993,2.29945 0.33137,0.7686305 0.324953,0.6703881 0.324588,4.969608 -5.29e-4,4.37584054 0.0113,4.22517621 -0.394557,5.06187337 C 72.783505,1.066555 71.380383,1.9131185 69.95534,1.9131185 h -0.365591 l -0.02283,0.1509871 c -0.01249,0.08314 -0.03351,0.2242477 -0.04656,0.3136927 -0.05258,0.360299 -0.262183,1.1663336 -0.422963,1.6265869 -0.891122,2.5509564 -2.914454,4.7029211 -5.401783,5.7452048 -1.099662,0.460793 -2.158463,0.692552 -3.47448,0.760537 -0.96865,0.04992 -22.427517,0.0465 -23.167067,-0.0041 z"
         id="path3-3"
         sodipodi:nodetypes="cccccccccsccccscccccssccccccscccccsccssccsccsccsssccc" /></mask><inkscape:path-effect
       effect="powermask"
       id="path-effect3-5"
       is_visible="true"
       lpeversion="1"
       uri="#mask-powermask-path-effect3-5"
       invert="false"
       hide_mask="false"
       background="true"
       background_color="#ffffffff" /><filter
       id="mask-powermask-path-effect3_inverse-6"
       inkscape:label="filtermask-powermask-path-effect3"
       style="color-interpolation-filters:sRGB"
       height="100"
       width="100"
       x="-50"
       y="-50"><feColorMatrix
         id="mask-powermask-path-effect3_primitive1-2"
         values="1"
         type="saturate"
         result="fbSourceGraphic" /><feColorMatrix
         id="mask-powermask-path-effect3_primitive2-9"
         values="-1 0 0 0 1 0 -1 0 0 1 0 0 -1 0 1 0 0 0 1 0 "
         in="fbSourceGraphic" /></filter><mask
       maskUnits="userSpaceOnUse"
       id="mask-powermask-path-effect3-5"><path
         id="mask-powermask-path-effect3-5_box"
         style="fill:#ffffff;fill-opacity:1"
         d="M 16.077019,2.2157059 H 82.123825 V 68.262512 H 16.077019 Z" /><path
         id="path4"
         style="fill:#ffffff;fill-opacity:1"
         d="M 18.077019,4.2157059 H 80.123825 V 66.262512 H 18.077019 Z" /><path
         style="display:inline;fill:#000000;fill-opacity:1;stroke:none;stroke-width:4;stroke-dasharray:none;stroke-opacity:1"
         d="M 37.054799,10.506354 C 33.765899,10.282651 30.805169,8.4377567 29.190089,5.6057202 28.656384,4.6698546 28.247212,3.5618034 28.079574,2.598355 28.025094,2.2853264 27.974627,2.0062413 27.96742,1.9781584 27.959324,1.946546 27.74426,1.9173571 27.402101,1.9016568 26.950444,1.8809134 26.769863,1.849518 26.410368,1.7293284 24.997541,1.2568751 24.03192,0.15069719 23.811922,-1.2473347 c -0.03985,-0.252894 -0.05073,-1.4111552 -0.04007,-4.2288381 l 0.0141,-3.8805405 0.153403,-0.4414891 c 0.265782,-0.7648866 0.662397,-1.3411786 1.246219,-1.8108536 0.642607,-0.516923 1.458727,-0.826489 2.318253,-0.879295 l 0.464743,-0.02859 0.0302,-0.44149 c 0.164315,-2.408847 1.473685,-4.922178 3.455398,-6.632673 1.154485,-0.996483 2.566538,-1.749049 3.94363,-2.101757 1.236438,-0.316714 0.890635,-0.299239 6.466449,-0.326436 l 5.065614,-0.02477 v -1.765979 -1.765998 l -0.407678,-0.215953 c -0.979884,-0.519037 -1.651897,-1.232305 -2.146961,-2.278755 -0.354203,-0.748701 -0.420116,-1.056052 -0.416801,-1.943521 0.0027,-0.695954 0.0145,-0.805451 0.129164,-1.185077 0.435214,-1.441353 1.376225,-2.55615 2.685704,-3.181685 0.713229,-0.34069 1.161468,-0.438328 2.015522,-0.438952 0.61595,-5.24e-4 0.750503,0.0141 1.155816,0.125817 0.86174,0.237272 1.530593,0.615266 2.170531,1.226669 1.29881,1.240862 1.83475,3.191065 1.316352,4.789971 -0.424794,1.310176 -1.217078,2.246444 -2.481673,2.932615 l -0.327676,0.177762 -0.0037,1.157396 c -0.0021,0.636546 -0.0013,1.43447 0.0011,1.773146 l 0.0048,0.615791 h 4.837287 c 5.305536,0 5.473747,0.008 6.518243,0.277456 0.806709,0.208766 1.297149,0.393333 2.052087,0.772254 2.527983,1.268885 4.411358,3.541742 5.207863,6.284877 0.124936,0.430276 0.275711,1.28491 0.322106,1.825811 l 0.03033,0.353674 0.472999,0.02677 c 1.482275,0.08375 2.813378,0.989819 3.377993,2.29945 0.33137,0.7686305 0.324953,0.6703881 0.324588,4.969608 -5.29e-4,4.37584054 0.0113,4.22517621 -0.394557,5.06187337 C 72.783505,1.066555 71.380383,1.9131185 69.95534,1.9131185 h -0.365591 l -0.02283,0.1509871 c -0.01249,0.08314 -0.03351,0.2242477 -0.04656,0.3136927 -0.05258,0.360299 -0.262183,1.1663336 -0.422963,1.6265869 -0.891122,2.5509564 -2.914454,4.7029211 -5.401783,5.7452048 -1.099662,0.460793 -2.158463,0.692552 -3.47448,0.760537 -0.96865,0.04992 -22.427517,0.0465 -23.167067,-0.0041 z"
         id="path6"
         sodipodi:nodetypes="cccccccccsccccscccccssccccccscccccsccssccsccsccsssccc" /></mask><filter
       id="mask-powermask-path-effect3-5_inverse"
       inkscape:label="filtermask-powermask-path-effect3-5"
       style="color-interpolation-filters:sRGB"
       height="100"
       width="100"
       x="-50"
       y="-50"><feColorMatrix
         id="mask-powermask-path-effect3-5_primitive1"
         values="1"
         type="saturate"
         result="fbSourceGraphic" /><feColorMatrix
         id="mask-powermask-path-effect3-5_primitive2"
         values="-1 0 0 0 1 0 -1 0 0 1 0 0 -1 0 1 0 0 0 1 0 "
         in="fbSourceGraphic" /></filter><mask
       maskUnits="userSpaceOnUse"
       id="mask-powermask-path-effect3-5-6"><path
         id="mask-powermask-path-effect3-5-6_box"
         style="fill:#ffffff;fill-opacity:1"
         d="M 16.077019,2.2157059 H 82.123825 V 68.262512 H 16.077019 Z" /><path
         id="mask-powermask-path-effect3-5_box-0"
         style="fill:#ffffff;fill-opacity:1"
         d="M 16.077019,2.2157059 H 82.123825 V 68.262512 H 16.077019 Z" /><path
         id="path4-6"
         style="fill:#ffffff;fill-opacity:1"
         d="M 18.077019,4.2157059 H 80.123825 V 66.262512 H 18.077019 Z" /><path
         style="display:inline;fill:#000000;fill-opacity:1;stroke:none;stroke-width:4;stroke-dasharray:none;stroke-opacity:1"
         d="M 37.054799,10.506354 C 33.765899,10.282651 30.805169,8.4377567 29.190089,5.6057202 28.656384,4.6698546 28.247212,3.5618034 28.079574,2.598355 28.025094,2.2853264 27.974627,2.0062413 27.96742,1.9781584 27.959324,1.946546 27.74426,1.9173571 27.402101,1.9016568 26.950444,1.8809134 26.769863,1.849518 26.410368,1.7293284 24.997541,1.2568751 24.03192,0.15069719 23.811922,-1.2473347 c -0.03985,-0.252894 -0.05073,-1.4111552 -0.04007,-4.2288381 l 0.0141,-3.8805405 0.153403,-0.4414891 c 0.265782,-0.7648866 0.662397,-1.3411786 1.246219,-1.8108536 0.642607,-0.516923 1.458727,-0.826489 2.318253,-0.879295 l 0.464743,-0.02859 0.0302,-0.44149 c 0.164315,-2.408847 1.473685,-4.922178 3.455398,-6.632673 1.154485,-0.996483 2.566538,-1.749049 3.94363,-2.101757 1.236438,-0.316714 0.890635,-0.299239 6.466449,-0.326436 l 5.065614,-0.02477 v -1.765979 -1.765998 l -0.407678,-0.215953 c -0.979884,-0.519037 -1.651897,-1.232305 -2.146961,-2.278755 -0.354203,-0.748701 -0.420116,-1.056052 -0.416801,-1.943521 0.0027,-0.695954 0.0145,-0.805451 0.129164,-1.185077 0.435214,-1.441353 1.376225,-2.55615 2.685704,-3.181685 0.713229,-0.34069 1.161468,-0.438328 2.015522,-0.438952 0.61595,-5.24e-4 0.750503,0.0141 1.155816,0.125817 0.86174,0.237272 1.530593,0.615266 2.170531,1.226669 1.29881,1.240862 1.83475,3.191065 1.316352,4.789971 -0.424794,1.310176 -1.217078,2.246444 -2.481673,2.932615 l -0.327676,0.177762 -0.0037,1.157396 c -0.0021,0.636546 -0.0013,1.43447 0.0011,1.773146 l 0.0048,0.615791 h 4.837287 c 5.305536,0 5.473747,0.008 6.518243,0.277456 0.806709,0.208766 1.297149,0.393333 2.052087,0.772254 2.527983,1.268885 4.411358,3.541742 5.207863,6.284877 0.124936,0.430276 0.275711,1.28491 0.322106,1.825811 l 0.03033,0.353674 0.472999,0.02677 c 1.482275,0.08375 2.813378,0.989819 3.377993,2.29945 0.33137,0.7686305 0.324953,0.6703881 0.324588,4.969608 -5.29e-4,4.37584054 0.0113,4.22517621 -0.394557,5.06187337 C 72.783505,1.066555 71.380383,1.9131185 69.95534,1.9131185 h -0.365591 l -0.02283,0.1509871 c -0.01249,0.08314 -0.03351,0.2242477 -0.04656,0.3136927 -0.05258,0.360299 -0.262183,1.1663336 -0.422963,1.6265869 -0.891122,2.5509564 -2.914454,4.7029211 -5.401783,5.7452048 -1.099662,0.460793 -2.158463,0.692552 -3.47448,0.760537 -0.96865,0.04992 -22.427517,0.0465 -23.167067,-0.0041 z"
         id="path6-2"
         sodipodi:nodetypes="cccccccccsccccscccccssccccccscccccsccssccsccsccsssccc" /></mask><inkscape:path-effect
       effect="powermask"
       id="path-effect3-5-6"
       is_visible="true"
       lpeversion="1"
       uri="#mask-powermask-path-effect3-5-6"
       invert="false"
       hide_mask="false"
       background="true"
       background_color="#ffffffff" /><filter
       id="mask-powermask-path-effect3-5_inverse-1"
       inkscape:label="filtermask-powermask-path-effect3-5"
       style="color-interpolation-filters:sRGB"
       height="100"
       width="100"
       x="-50"
       y="-50"><feColorMatrix
         id="mask-powermask-path-effect3-5_primitive1-8"
         values="1"
         type="saturate"
         result="fbSourceGraphic" /><feColorMatrix
         id="mask-powermask-path-effect3-5_primitive2-7"
         values="-1 0 0 0 1 0 -1 0 0 1 0 0 -1 0 1 0 0 0 1 0 "
         in="fbSourceGraphic" /></filter><filter
       id="mask-powermask-path-effect3-5-6_inverse"
       inkscape:label="filtermask-powermask-path-effect3-5-6"
       style="color-interpolation-filters:sRGB"
       height="100"
       width="100"
       x="-50"
       y="-50"><feColorMatrix
         id="mask-powermask-path-effect3-5-6_primitive1"
         values="1"
         type="saturate"
         result="fbSourceGraphic" /><feColorMatrix
         id="mask-powermask-path-effect3-5-6_primitive2"
         values="-1 0 0 0 1 0 -1 0 0 1 0 0 -1 0 1 0 0 0 1 0 "
         in="fbSourceGraphic" /></filter><mask
       maskUnits="userSpaceOnUse"
       id="mask-powermask-path-effect14"><g
         id="g14"
         inkscape:label="Mask Bubble"
         style=""><path
           style="display:inline;fill:#000000;fill-opacity:1;stroke:#000000;stroke-width:4;stroke-dasharray:none;stroke-opacity:1"
           d="m 37.054799,10.506355 c -3.2889,-0.223703 -6.249631,-2.0685988 -7.86471,-4.9006348 -0.533705,-0.935866 -0.942877,-2.043918 -1.110514,-3.007364 -0.05448,-0.313029 -0.104947,-0.592116 -0.112155,-0.620199 -0.0081,-0.03161 -0.22316,-0.0608 -0.56532,-0.0765 -0.451656,-0.02074 -0.632238,-0.05214 -0.991731,-0.172328 -1.412827,-0.472453 -2.378448,-1.57863295 -2.598448,-2.976664 -0.03985,-0.252895 -0.05073,-1.411156 -0.04007,-4.228839 l 0.0141,-3.880539 0.153403,-0.44149 c 0.265781,-0.7648862 0.662397,-1.3411782 1.246219,-1.8108532 0.642605,-0.516923 1.458727,-0.826489 2.318253,-0.879295 l 0.464742,-0.02859 0.0302,-0.44149 c 0.164315,-2.408847 1.473683,-4.922178 3.455398,-6.632673 1.154485,-0.996483 2.566537,-1.749049 3.943629,-2.101757 1.236438,-0.316714 0.890637,-0.299239 6.466448,-0.326436 l 5.065616,-0.02477 v -1.765979 -1.765998 l -0.407678,-0.215953 c -0.979884,-0.519037 -1.651897,-1.232305 -2.146961,-2.278755 -0.354204,-0.748701 -0.420116,-1.056052 -0.416802,-1.943521 0.0027,-0.695954 0.01449,-0.805451 0.129166,-1.185077 0.435211,-1.441353 1.376224,-2.55615 2.685702,-3.181685 0.713229,-0.34069 1.161468,-0.438328 2.015523,-0.438952 0.615949,-5.25e-4 0.750502,0.0141 1.155815,0.125817 0.861739,0.237272 1.530593,0.615266 2.170532,1.226669 1.29881,1.240862 1.83475,3.191065 1.31635,4.789971 -0.424793,1.310176 -1.217077,2.246444 -2.481672,2.932615 l -0.327675,0.177762 -0.0037,1.157396 c -0.002,0.636546 -0.0014,1.43447 0.0011,1.773146 l 0.0048,0.615791 h 4.837287 c 5.305537,0 5.47375,0.008 6.518245,0.277456 0.806708,0.208766 1.297149,0.393333 2.052087,0.772254 2.527981,1.268885 4.411358,3.541742 5.207862,6.284877 0.124937,0.430276 0.275712,1.28491 0.322106,1.825811 l 0.03033,0.353674 0.472997,0.02677 c 1.482277,0.08375 2.813378,0.989819 3.377995,2.29945 0.33137,0.7686312 0.324952,0.6703882 0.324589,4.9696082 -5.25e-4,4.37584105 0.0113,4.22517505 -0.394559,5.06187205 -0.589736,1.21560395 -1.99286,2.06216495 -3.417902,2.06216495 h -0.365591 l -0.02283,0.150988 c -0.01248,0.08314 -0.03351,0.224248 -0.04656,0.313694 -0.05258,0.360298 -0.262184,1.166334 -0.422963,1.626586 -0.891123,2.550957 -2.914455,4.702922 -5.401783,5.745204 -1.099662,0.4607948 -2.158464,0.6925528 -3.474481,0.7605368 -0.96865,0.04992 -22.427516,0.0465 -23.167066,-0.0041 z"
           id="path13"
           sodipodi:nodetypes="cccccccccsccccscccccssccccccscccccsccssccsccsccsssccc" /><path
           style="fill:none;fill-opacity:0;stroke:#000000;stroke-width:10;stroke-linejoin:round;stroke-dasharray:none;stroke-opacity:1"
           id="path14"
           mask="url(#mask-powermask-path-effect3-5)"
           inkscape:path-effect="#path-effect3-5"
           sodipodi:type="arc"
           sodipodi:cx="49.100422"
           sodipodi:cy="35.239109"
           sodipodi:rx="27.023403"
           sodipodi:ry="27.023403"
           d="M 76.123825,35.239109 A 27.023403,27.023403 0 0 1 49.100422,62.262512 27.023403,27.023403 0 0 1 22.077019,35.239109 27.023403,27.023403 0 0 1 49.100422,8.2157059 27.023403,27.023403 0 0 1 76.123825,35.239109 Z"
           transform="translate(-1.8737793e-5,-3.8887158e-4)" /><rect
           style="fill:#000000;fill-opacity:1;stroke:#000000;stroke-width:4;stroke-linejoin:round;stroke-dasharray:none;stroke-opacity:1"
           id="rect14"
           width="35"
           height="6"
           x="86.701859"
           y="-13.49745"
           transform="rotate(45.333188)"
           ry="3" /></g></mask><mask
       maskUnits="userSpaceOnUse"
       id="mask-powermask-path-effect15"><g
         id="g15"
         inkscape:label="Mask Lines"
         style=""><path
           style="fill:#000000;fill-opacity:1;stroke:#000000;stroke-width:10;stroke-linejoin:round;stroke-dasharray:none;stroke-opacity:1"
           id="path15"
           mask="url(#mask-powermask-path-effect3-5-6)"
           inkscape:path-effect="#path-effect3-5-6"
           sodipodi:type="arc"
           sodipodi:cx="49.100422"
           sodipodi:cy="35.239109"
           sodipodi:rx="27.023403"
           sodipodi:ry="27.023403"
           d="M 76.123825,35.239109 A 27.023403,27.023403 0 0 1 49.100422,62.262512 27.023403,27.023403 0 0 1 22.077019,35.239109 27.023403,27.023403 0 0 1 49.100422,8.2157059 27.023403,27.023403 0 0 1 76.123825,35.239109 Z"
           transform="translate(-1.8677083e-5,-3.8783333e-4)"
           inkscape:label="Ring" /><rect
           style="fill:#000000;fill-opacity:1;stroke:#000000;stroke-width:4;stroke-linejoin:round;stroke-dasharray:none;stroke-opacity:1"
           id="rect15"
           width="35"
           height="6"
           x="86.70253"
           y="-13.497453"
           transform="rotate(45.333188)"
           ry="3" /></g></mask><mask
       maskUnits="userSpaceOnUse"
       id="mask-powermask-path-effect20"><path
         id="path24"
         style="fill:#ffffff;fill-opacity:1"
         d="M -1,-1 H 101 V 82.346303 H -1 Z" /><g
         id="g26"
         inkscape:label="Mask Bubble"><path
           style="display:inline;fill:#000000;fill-opacity:1;stroke:#000000;stroke-width:4;stroke-dasharray:none;stroke-opacity:1"
           d="m 37.054799,10.506355 c -3.2889,-0.223703 -6.249631,-2.0685988 -7.86471,-4.9006348 -0.533705,-0.935866 -0.942877,-2.043918 -1.110514,-3.007364 -0.05448,-0.313029 -0.104947,-0.592116 -0.112155,-0.620199 -0.0081,-0.03161 -0.22316,-0.0608 -0.56532,-0.0765 -0.451656,-0.02074 -0.632238,-0.05214 -0.991731,-0.172328 -1.412827,-0.472453 -2.378448,-1.57863295 -2.598448,-2.976664 -0.03985,-0.252895 -0.05073,-1.411156 -0.04007,-4.228839 l 0.0141,-3.880539 0.153403,-0.44149 c 0.265781,-0.7648862 0.662397,-1.3411782 1.246219,-1.8108532 0.642605,-0.516923 1.458727,-0.826489 2.318253,-0.879295 l 0.464742,-0.02859 0.0302,-0.44149 c 0.164315,-2.408847 1.473683,-4.922178 3.455398,-6.632673 1.154485,-0.996483 2.566537,-1.749049 3.943629,-2.101757 1.236438,-0.316714 0.890637,-0.299239 6.466448,-0.326436 l 5.065616,-0.02477 v -1.765979 -1.765998 l -0.407678,-0.215953 c -0.979884,-0.519037 -1.651897,-1.232305 -2.146961,-2.278755 -0.354204,-0.748701 -0.420116,-1.056052 -0.416802,-1.943521 0.0027,-0.695954 0.01449,-0.805451 0.129166,-1.185077 0.435211,-1.441353 1.376224,-2.55615 2.685702,-3.181685 0.713229,-0.34069 1.161468,-0.438328 2.015523,-0.438952 0.615949,-5.25e-4 0.750502,0.0141 1.155815,0.125817 0.861739,0.237272 1.530593,0.615266 2.170532,1.226669 1.29881,1.240862 1.83475,3.191065 1.31635,4.789971 -0.424793,1.310176 -1.217077,2.246444 -2.481672,2.932615 l -0.327675,0.177762 -0.0037,1.157396 c -0.002,0.636546 -0.0014,1.43447 0.0011,1.773146 l 0.0048,0.615791 h 4.837287 c 5.305537,0 5.47375,0.008 6.518245,0.277456 0.806708,0.208766 1.297149,0.393333 2.052087,0.772254 2.527981,1.268885 4.411358,3.541742 5.207862,6.284877 0.124937,0.430276 0.275712,1.28491 0.322106,1.825811 l 0.03033,0.353674 0.472997,0.02677 c 1.482277,0.08375 2.813378,0.989819 3.377995,2.29945 0.33137,0.7686312 0.324952,0.6703882 0.324589,4.9696082 -5.25e-4,4.37584105 0.0113,4.22517505 -0.394559,5.06187205 -0.589736,1.21560395 -1.99286,2.06216495 -3.417902,2.06216495 h -0.365591 l -0.02283,0.150988 c -0.01248,0.08314 -0.03351,0.224248 -0.04656,0.313694 -0.05258,0.360298 -0.262184,1.166334 -0.422963,1.626586 -0.891123,2.550957 -2.914455,4.702922 -5.401783,5.745204 -1.099662,0.4607948 -2.158464,0.6925528 -3.474481,0.7605368 -0.96865,0.04992 -22.427516,0.0465 -23.167066,-0.0041 z"
           id="path25"
           sodipodi:nodetypes="cccccccccsccccscccccssccccccscccccsccssccsccsccsssccc" /><path
           style="fill:none;fill-opacity:0;stroke:#000000;stroke-width:10;stroke-linejoin:round;stroke-dasharray:none;stroke-opacity:1"
           id="path26"
           mask="url(#mask-powermask-path-effect3-5)"
           inkscape:path-effect="#path-effect3-5"
           sodipodi:type="arc"
           sodipodi:cx="49.100422"
           sodipodi:cy="35.239109"
           sodipodi:rx="27.023403"
           sodipodi:ry="27.023403"
           d="M 76.123825,35.239109 A 27.023403,27.023403 0 0 1 49.100422,62.262512 27.023403,27.023403 0 0 1 22.077019,35.239109 27.023403,27.023403 0 0 1 49.100422,8.2157059 27.023403,27.023403 0 0 1 76.123825,35.239109 Z"
           transform="translate(-1.8737793e-5,-3.8887158e-4)" /><rect
           style="fill:#000000;fill-opacity:1;stroke:#000000;stroke-width:4;stroke-linejoin:round;stroke-dasharray:none;stroke-opacity:1"
           id="rect26"
           width="35"
           height="6"
           x="86.701859"
           y="-13.49745"
           transform="rotate(45.333188)"
           ry="3" /></g></mask><mask
       maskUnits="userSpaceOnUse"
       id="mask-powermask-path-effect22"><path
         id="path27"
         style="fill:#ffffff;fill-opacity:1"
         d="M 7.2498079,12.882177 H 92.750192 V 56.751894 H 7.2498079 Z" /><g
         id="g28"
         inkscape:label="Mask Lines"><path
           style="fill:#000000;fill-opacity:1;stroke:#000000;stroke-width:10;stroke-linejoin:round;stroke-dasharray:none;stroke-opacity:1"
           id="path28"
           mask="url(#mask-powermask-path-effect3-5-6)"
           inkscape:path-effect="#path-effect3-5-6"
           sodipodi:type="arc"
           sodipodi:cx="49.100422"
           sodipodi:cy="35.239109"
           sodipodi:rx="27.023403"
           sodipodi:ry="27.023403"
           d="M 76.123825,35.239109 A 27.023403,27.023403 0 0 1 49.100422,62.262512 27.023403,27.023403 0 0 1 22.077019,35.239109 27.023403,27.023403 0 0 1 49.100422,8.2157059 27.023403,27.023403 0 0 1 76.123825,35.239109 Z"
           transform="translate(-1.8677083e-5,-3.8783333e-4)"
           inkscape:label="Ring" /><rect
           style="fill:#000000;fill-opacity:1;stroke:#000000;stroke-width:4;stroke-linejoin:round;stroke-dasharray:none;stroke-opacity:1"
           id="rect28"
           width="35"
           height="6"
           x="86.70253"
           y="-13.497453"
           transform="rotate(45.333188)"
           ry="3" /></g></mask><mask
       maskUnits="userSpaceOnUse"
       id="mask-powermask-path-effect24"><path
         id="path29"
         style="fill:#ffffff;fill-opacity:1"
         d="M 18.077019,4.2157059 H 80.123825 V 66.262512 H 18.077019 Z" /><path
         style="display:inline;fill:#000000;fill-opacity:1;stroke:none;stroke-width:4;stroke-dasharray:none;stroke-opacity:1"
         d="M 37.054799,10.506354 C 33.765899,10.282651 30.805169,8.4377567 29.190089,5.6057202 28.656384,4.6698546 28.247212,3.5618034 28.079574,2.598355 28.025094,2.2853264 27.974627,2.0062413 27.96742,1.9781584 27.959324,1.946546 27.74426,1.9173571 27.402101,1.9016568 26.950444,1.8809134 26.769863,1.849518 26.410368,1.7293284 24.997541,1.2568751 24.03192,0.15069719 23.811922,-1.2473347 c -0.03985,-0.252894 -0.05073,-1.4111552 -0.04007,-4.2288381 l 0.0141,-3.8805405 0.153403,-0.4414891 c 0.265782,-0.7648866 0.662397,-1.3411786 1.246219,-1.8108536 0.642607,-0.516923 1.458727,-0.826489 2.318253,-0.879295 l 0.464743,-0.02859 0.0302,-0.44149 c 0.164315,-2.408847 1.473685,-4.922178 3.455398,-6.632673 1.154485,-0.996483 2.566538,-1.749049 3.94363,-2.101757 1.236438,-0.316714 0.890635,-0.299239 6.466449,-0.326436 l 5.065614,-0.02477 v -1.765979 -1.765998 l -0.407678,-0.215953 c -0.979884,-0.519037 -1.651897,-1.232305 -2.146961,-2.278755 -0.354203,-0.748701 -0.420116,-1.056052 -0.416801,-1.943521 0.0027,-0.695954 0.0145,-0.805451 0.129164,-1.185077 0.435214,-1.441353 1.376225,-2.55615 2.685704,-3.181685 0.713229,-0.34069 1.161468,-0.438328 2.015522,-0.438952 0.61595,-5.24e-4 0.750503,0.0141 1.155816,0.125817 0.86174,0.237272 1.530593,0.615266 2.170531,1.226669 1.29881,1.240862 1.83475,3.191065 1.316352,4.789971 -0.424794,1.310176 -1.217078,2.246444 -2.481673,2.932615 l -0.327676,0.177762 -0.0037,1.157396 c -0.0021,0.636546 -0.0013,1.43447 0.0011,1.773146 l 0.0048,0.615791 h 4.837287 c 5.305536,0 5.473747,0.008 6.518243,0.277456 0.806709,0.208766 1.297149,0.393333 2.052087,0.772254 2.527983,1.268885 4.411358,3.541742 5.207863,6.284877 0.124936,0.430276 0.275711,1.28491 0.322106,1.825811 l 0.03033,0.353674 0.472999,0.02677 c 1.482275,0.08375 2.813378,0.989819 3.377993,2.29945 0.33137,0.7686305 0.324953,0.6703881 0.324588,4.969608 -5.29e-4,4.37584054 0.0113,4.22517621 -0.394557,5.06187337 C 72.783505,1.066555 71.380383,1.9131185 69.95534,1.9131185 h -0.365591 l -0.02283,0.1509871 c -0.01249,0.08314 -0.03351,0.2242477 -0.04656,0.3136927 -0.05258,0.360299 -0.262183,1.1663336 -0.422963,1.6265869 -0.891122,2.5509564 -2.914454,4.7029211 -5.401783,5.7452048 -1.099662,0.460793 -2.158463,0.692552 -3.47448,0.760537 -0.96865,0.04992 -22.427517,0.0465 -23.167067,-0.0041 z"
         id="path30"
         sodipodi:nodetypes="cccccccccsccccscccccssccccccscccccsccssccsccsccsssccc" /></mask><mask
       maskUnits="userSpaceOnUse"
       id="mask-powermask-path-effect31"><path
         id="mask-powermask-path-effect31_box"
         style="fill:#ffffff;fill-opacity:1"
         d="M 18.077019,4.2157059 H 80.123825 V 66.262512 H 18.077019 Z" /><path
         style="display:inline;fill:#000000;fill-opacity:1;stroke:none;stroke-width:4;stroke-dasharray:none;stroke-opacity:1"
         d="M 37.054799,9.4480206 C 33.765899,9.224318 30.805169,8.4377567 29.190089,5.6057202 28.656384,4.6698546 28.247212,3.5618034 28.079574,2.598355 28.025094,2.2853264 27.974627,2.0062413 27.96742,1.9781584 27.959324,1.946546 27.74426,1.9173571 27.402101,1.9016568 26.950444,1.8809134 26.769863,1.849518 26.410368,1.7293284 24.997541,1.2568751 24.03192,0.15069719 23.811922,-1.2473347 c -0.03985,-0.252894 -0.05073,-1.4111552 -0.04007,-4.2288381 l 0.0141,-3.8805405 0.153402,-0.4414891 c 0.265782,-0.7648866 0.662398,-1.3411786 1.24622,-1.8108536 0.642606,-0.516923 1.458727,-0.826489 2.318252,-0.879295 l 0.464744,-0.02859 0.0302,-0.44149 c 0.164314,-2.408847 1.473684,-4.922178 3.455398,-6.632673 1.154485,-0.996483 2.566537,-1.749049 3.94363,-2.101757 1.236438,-0.316714 0.890635,-0.299239 6.466448,-0.326436 l 5.065615,-0.02477 v -1.765979 -1.765998 l -0.407678,-0.215953 c -0.979884,-0.519037 -1.651897,-1.232305 -2.146961,-2.278755 -0.354203,-0.748701 -0.420116,-1.056052 -0.416801,-1.943521 0.0027,-0.695954 0.0145,-0.805451 0.129164,-1.185077 0.435213,-1.441353 1.376225,-2.55615 2.685704,-3.181685 0.713229,-0.34069 1.161467,-0.438328 2.015521,-0.438952 0.61595,-5.24e-4 0.750504,0.0141 1.155817,0.125817 0.86174,0.237272 1.530593,0.615266 2.17053,1.226669 1.298811,1.240862 1.834751,3.191065 1.316353,4.789971 -0.424794,1.310176 -1.217078,2.246444 -2.481673,2.932615 l -0.327676,0.177762 -0.0037,1.157396 c -0.0021,0.636546 -0.0013,1.43447 0.0011,1.773146 l 0.0048,0.615791 h 4.837287 c 5.305536,0 5.473748,0.008 6.518244,0.277456 0.806709,0.208766 1.297149,0.393333 2.052087,0.772254 2.527982,1.268885 4.411358,3.541742 5.207862,6.284877 0.124937,0.430276 0.275712,1.28491 0.322107,1.825811 l 0.03033,0.353674 0.473001,0.02677 c 1.482275,0.08375 2.813378,0.989819 3.377991,2.29945 0.331372,0.7686305 0.324953,0.6703881 0.324588,4.969608 -5.29e-4,4.37584054 0.0113,4.22517621 -0.394555,5.06187337 C 72.783452,1.066555 71.38033,1.9131185 69.955287,1.9131185 h -0.365591 l -0.02283,0.1509871 c -0.01249,0.08314 -0.03351,0.2242477 -0.04656,0.3136927 -0.05258,0.360299 -0.262184,1.1663336 -0.422963,1.6265869 -0.891122,2.5509564 -2.914454,3.6445878 -5.401784,4.6868715 -1.099661,0.460793 -2.158463,0.6925522 -3.474479,0.7605368 -0.96865,0.049919 -22.427517,0.046501 -23.167067,-0.0041 z"
         id="path31"
         sodipodi:nodetypes="cccccccccsccccscccccssccccccscccccsccssccsccsccsssccc" /></mask><filter
       id="mask-powermask-path-effect31_inverse"
       inkscape:label="filtermask-powermask-path-effect31"
       style="color-interpolation-filters:sRGB"
       height="100"
       width="100"
       x="-50"
       y="-50"><feColorMatrix
         id="mask-powermask-path-effect31_primitive1"
         values="1"
         type="saturate"
         result="fbSourceGraphic" /><feColorMatrix
         id="mask-powermask-path-effect31_primitive2"
         values="-1 0 0 0 1 0 -1 0 0 1 0 0 -1 0 1 0 0 0 1 0 "
         in="fbSourceGraphic" /></filter></defs><path
     style="fill:#ffffff;fill-opacity:1;stroke:#ffffff;stroke-width:11.8177;stroke-dasharray:none;stroke-opacity:1"
     d="M 61.911029,123.964 C 53.470009,123.16623 45.794334,119.56944 39.884624,113.64251 26.259313,99.977492 26.087155,77.86662 39.498058,63.994671 c 1.899793,-1.965104 4.285489,-3.926317 6.304916,-5.183094 0.380167,-0.236594 0.693049,-0.456713 0.695295,-0.489153 0.0022,-0.03244 -0.119737,-0.115021 -0.271072,-0.183515 -0.567672,-0.256923 -1.913816,-1.219477 -2.625677,-1.877475 -1.549762,-1.432501 -2.788993,-3.557122 -3.269038,-5.604661 -0.139305,-0.594179 -0.287342,-1.147863 -0.328971,-1.23041 -0.0501,-0.09936 -0.291993,-0.169448 -0.715635,-0.207373 -1.903447,-0.170397 -3.48016,-1.387305 -3.995412,-3.08366 -0.192782,-0.634692 -0.200829,-0.891649 -0.17431,-5.566063 l 0.02781,-4.900651 0.328974,-0.694717 c 0.180936,-0.382095 0.483601,-0.883417 0.672588,-1.114051 0.681227,-0.831348 1.970663,-1.478147 3.197319,-1.603822 0.73808,-0.07562 0.696135,-0.01696 0.804171,-1.124724 0.144023,-1.476788 1.010925,-3.640438 2.039232,-5.0896 1.649127,-2.32406 3.845804,-3.864347 6.715463,-4.708805 l 0.850479,-0.250273 6.153465,-0.07626 c 3.384406,-0.04194 6.23226,-0.08071 6.328564,-0.08616 0.160854,-0.0091 0.175011,-0.178796 0.174015,-2.086065 l -0.0011,-2.076168 -0.620656,-0.350197 c -1.314734,-0.741822 -2.50816,-2.370879 -2.777076,-3.790784 -0.475744,-2.51197 0.853499,-5.0576736 3.249815,-6.2238989 0.883774,-0.4301103 0.922502,-0.4389464 2.084133,-0.4755174 1.312094,-0.041315 1.744912,0.040369 2.7686,0.5224643 0.892798,0.4204541 2.15074,1.6686102 2.583668,2.5635653 0.480128,0.9925326 0.647467,1.7908617 0.596784,2.8470947 -0.09226,1.92259 -1.213375,3.65639 -3.003912,4.64552 l -0.473826,0.261753 -0.0014,2.121358 -0.0014,2.121357 6.328564,0.03447 6.328564,0.03447 0.947032,0.274365 c 3.231561,0.936215 5.937294,3.136688 7.443982,6.053914 0.714427,1.383262 1.083485,2.600497 1.310532,4.322434 l 0.05989,0.454195 0.799865,0.107092 c 1.633859,0.218751 2.947634,1.15239 3.665565,2.604943 l 0.381362,0.771592 v 5.108105 c 0,5.06221 -0.002,5.113049 -0.224415,5.658414 -0.648522,1.590313 -2.415385,2.801578 -4.086642,2.801578 -0.506497,0 -0.541125,0.01605 -0.593795,0.275155 -0.214393,1.054684 -0.594489,2.352946 -0.885456,3.024378 -0.887719,2.048476 -2.658326,4.065118 -4.589592,5.227335 l -0.574377,0.345654 1.374828,0.9083 c 8.264547,5.460092 13.867159,14.089207 15.477329,23.83811 0.38054,2.303984 0.48992,4.036391 0.42529,6.735633 -0.0787,3.285974 -0.43437,5.702434 -1.27981,8.694687 -1.61233,5.70653 -4.55592,10.78139 -8.743451,15.07405 -2.952315,3.02643 -6.024553,5.26268 -9.707459,7.06595 -3.771905,1.84685 -7.167061,2.86598 -11.356396,3.40888 -1.467109,0.19012 -5.971171,0.27505 -7.404169,0.13962 z"
     id="path1"
     sodipodi:nodetypes="sssssssssssscsssssscssscsssssssscccccssscsscsssssscsssssssss" /><g
     inkscape:label="Ebene 1"
     inkscape:groupmode="layer"
     id="layer1"
     transform="translate(15,39.772669)"><g
       id="g8"
       inkscape:label="Bot"
       transform="matrix(1.1817679,0,0,1.1817679,-8.0253025,7.2279235)"><path
         style="fill:none;fill-opacity:0;stroke:#000000;stroke-width:6;stroke-linejoin:round;stroke-dasharray:none;stroke-opacity:1"
         id="path7"
         mask="url(#mask-powermask-path-effect31)"
         inkscape:path-effect="#path-effect31"
         sodipodi:type="arc"
         sodipodi:cx="49.100422"
         sodipodi:cy="35.239109"
         sodipodi:rx="27.023403"
         sodipodi:ry="27.023403"
         d="M 76.123825,35.239109 A 27.023403,27.023403 0 0 1 49.100422,62.262512 27.023403,27.023403 0 0 1 22.077019,35.239109 27.023403,27.023403 0 0 1 49.100422,8.2157059 27.023403,27.023403 0 0 1 76.123825,35.239109 Z" /><path
         style="display:inline;fill:#000000;stroke-width:0.0464735"
         d="M 37.055219,10.506686 C 33.766319,10.282983 30.805588,8.4380875 29.190509,5.6060509 28.656804,4.6701854 28.247632,3.5621329 28.079995,2.5986868 28.025515,2.2856579 27.975048,2.0065712 27.96784,1.9784875 27.95974,1.9468805 27.74468,1.9176895 27.40252,1.9019865 26.950864,1.8812505 26.770282,1.8498455 26.410789,1.7296586 24.997962,1.2572062 24.032341,0.151026 23.812341,-1.2470046 c -0.03985,-0.2528953 -0.05073,-1.4111565 -0.04007,-4.228839 l 0.0141,-3.8805395 0.153403,-0.44149 c 0.265781,-0.7648859 0.662397,-1.3411779 1.246219,-1.8108529 0.642605,-0.516923 1.458727,-0.826489 2.318253,-0.879295 l 0.464742,-0.02859 0.0302,-0.44149 c 0.164315,-2.408846 1.473683,-4.922177 3.455398,-6.632672 1.154485,-0.996483 2.566537,-1.749049 3.943629,-2.101757 1.236438,-0.316714 0.890637,-0.299239 6.466448,-0.326436 l 5.065616,-0.02477 v -1.765979 -1.765998 l -0.407678,-0.215953 c -0.979884,-0.519037 -1.651897,-1.232305 -2.146961,-2.278755 -0.354204,-0.748701 -0.420116,-1.056052 -0.416802,-1.943521 0.0027,-0.695954 0.01449,-0.805451 0.129166,-1.185077 0.435211,-1.441353 1.376224,-2.55615 2.685702,-3.181685 0.713229,-0.34069 1.161468,-0.438328 2.015523,-0.438952 0.615949,-5.25e-4 0.750502,0.0141 1.155815,0.125817 0.861739,0.237272 1.530593,0.615266 2.170532,1.226669 1.29881,1.240862 1.83475,3.191065 1.31635,4.789971 -0.424793,1.310176 -1.217077,2.246444 -2.481672,2.932615 l -0.327675,0.177762 -0.0037,1.157396 c -0.002,0.636546 -0.0014,1.43447 0.0011,1.773146 l 0.0048,0.615791 h 4.837287 c 5.305537,0 5.47375,0.008 6.518245,0.277456 0.806708,0.208766 1.297149,0.393333 2.052087,0.772254 2.527981,1.268885 4.411358,3.541742 5.207862,6.284877 0.124937,0.430276 0.275712,1.28491 0.322106,1.825811 l 0.03033,0.353674 0.472997,0.02677 c 1.482277,0.08375 2.813378,0.989819 3.377995,2.29945 0.33137,0.7686309 0.324952,0.6703879 0.324589,4.9696082 -5.25e-4,4.3758411 0.0113,4.2251751 -0.394559,5.0618715 -0.589736,1.2156042 -1.99286,2.0621653 -3.417902,2.0621653 h -0.365591 l -0.02283,0.1509882 c -0.01248,0.083144 -0.03351,0.2242478 -0.04656,0.3136933 -0.05258,0.3602986 -0.262184,1.1663344 -0.422963,1.6265869 -0.891123,2.5509568 -2.914455,4.7029221 -5.401783,5.7452041 -1.099662,0.4607945 -2.158464,0.6925525 -3.474481,0.7605365 -0.96865,0.04992 -22.427516,0.0465 -23.167066,-0.0041 z M 60.687018,6.4569202 C 61.424695,6.2841896 62.224979,5.9448486 62.807109,5.5578353 63.233505,5.27438 63.84994,4.6868947 64.1771,4.2522097 c 0.53174,-0.7065245 0.933119,-1.6640115 1.040293,-2.481603 0.03611,-0.2755033 0.04719,-2.5284696 0.03728,-7.5950921 l -0.0141,-7.2034086 -0.132911,-0.487974 c -0.326273,-1.197821 -0.941545,-2.200261 -1.830582,-2.982461 -0.733409,-0.645283 -1.731869,-1.131526 -2.749215,-1.338844 -0.453379,-0.09241 -0.613587,-0.09362 -11.728679,-0.09362 -9.934171,0 -11.313541,0.008 -11.644876,0.07127 -1.11584,0.211685 -2.222718,0.779946 -3.068338,1.57529 -0.596944,0.561455 -1.181339,1.465694 -1.470963,2.276018 -0.316183,0.884651 -0.300148,0.433457 -0.300148,8.4464648 0,6.4409179 0.0083,7.2865327 0.07385,7.6048965 0.348366,1.6896996 1.419462,3.072893 2.993401,3.8656216 0.531288,0.2675915 1.228743,0.4973554 1.765994,0.5817477 0.322846,0.050732 2.479751,0.060194 11.804284,0.052344 10.386011,-0.00806 11.438432,-0.016105 11.73457,-0.085963 z M 40.285129,-1.9250022 c -0.680121,-0.097035 -1.506417,-0.4485761 -2.009588,-0.8551572 -0.612736,-0.4951006 -1.153956,-1.3208052 -1.336358,-2.0387845 -0.308322,-1.2136235 0.07103,-2.5820202 0.979246,-3.5323204 1.041977,-1.090256 2.470726,-1.497683 3.850217,-1.097906 1.524129,0.441671 2.621953,1.73868 2.813909,3.32448 0.07485,0.6182869 -0.01349,1.1826607 -0.284582,1.8199117 -0.198621,0.4667752 -0.456732,0.8319051 -0.896778,1.2687041 -0.696934,0.6917679 -1.543137,1.0723791 -2.46823,1.1101663 -0.279627,0.012073 -0.571154,0.012073 -0.647836,9.06e-4 z m 15.971283,-0.02134 c -2.085361,-0.3735852 -3.570756,-2.342452 -3.258891,-4.3196132 0.129588,-0.8214968 0.49761,-1.5321479 1.108764,-2.1409929 0.67938,-0.67679 1.440108,-1.058952 2.332044,-1.171549 1.569634,-0.198096 3.190154,0.720033 3.90306,2.2114148 0.266249,0.5569857 0.368865,1.0120039 0.368865,1.6355854 0,1.0745331 -0.379604,1.9421921 -1.191511,2.7234659 -0.508451,0.4892624 -1.095754,0.8163834 -1.787499,0.9956368 -0.33765,0.087574 -1.151657,0.1240114 -1.474832,0.066033 z"
         id="path1-3" /><g
         id="g1"
         inkscape:label="MO"
         transform="matrix(1.526353,0,0,1.526353,7.7841382,-15.364044)"><path
           d="m 40.3085,32.632359 c -0.06641,0.0019 -0.0844,-0.02482 -0.08996,-0.084 -0.0545,-0.587666 -0.210344,-1.149006 -0.449792,-1.687327 -0.02691,-0.0607 -0.01527,-0.08615 0.03889,-0.11557 0.137848,-0.07511 0.271198,-0.157904 0.408781,-0.232701 0.05583,-0.03003 0.06271,-0.05609 0.03413,-0.113427 -0.127529,-0.252915 -0.269346,-0.497258 -0.423598,-0.735145 -0.04075,-0.06284 -0.07009,-0.05763 -0.124354,-0.02453 -0.133667,0.08155 -0.27223,0.155443 -0.405606,0.237596 -0.04935,0.03003 -0.0748,0.02453 -0.108215,-0.02207 -0.346419,-0.483156 -0.761206,-0.898554 -1.242509,-1.247426 -0.04659,-0.03372 -0.05427,-0.05855 -0.02328,-0.108831 0.08398,-0.137036 0.160311,-0.278056 0.243099,-0.416012 0.02974,-0.04966 0.03739,-0.0794 -0.02299,-0.118028 -0.238204,-0.152977 -0.483447,-0.29277 -0.736071,-0.420608 -0.06652,-0.03403 -0.09165,-0.01441 -0.122026,0.04231 -0.0708,0.13121 -0.150812,0.257514 -0.220106,0.389337 -0.03556,0.06775 -0.06498,0.07572 -0.137954,0.04292 -0.530675,-0.238202 -1.086168,-0.388726 -1.665579,-0.445749 -0.06284,-0.0061 -0.08583,-0.02299 -0.084,-0.0889 0.0049,-0.152977 -0.0012,-0.306261 0.0031,-0.459237 0.0015,-0.06714 -0.0086,-0.09964 -0.0889,-0.105153 -0.279902,-0.01931 -0.558562,-0.01778 -0.838464,-0.0012 -0.07387,0.0043 -0.08612,0.03372 -0.08461,0.09871 0.0043,0.156963 -9e-4,0.313924 0.0028,0.470885 0.0012,0.05825 -0.01688,0.07817 -0.07604,0.08431 -0.587058,0.05794 -1.149615,0.20969 -1.686719,0.452798 -0.05519,0.02514 -0.08247,0.02575 -0.114035,-0.03464 -0.07482,-0.141941 -0.161581,-0.277136 -0.238522,-0.418156 -0.02881,-0.05334 -0.05456,-0.05702 -0.10668,-0.03096 -0.256911,0.128146 -0.504296,0.271926 -0.743426,0.430726 -0.04813,0.03188 -0.05673,0.05672 -0.02453,0.108524 0.08461,0.136422 0.160337,0.278363 0.243099,0.415705 0.0282,0.0466 0.03373,0.07266 -0.01839,0.110363 -0.481621,0.347954 -0.897017,0.763657 -1.243118,1.246495 -0.03924,0.05458 -0.06744,0.05091 -0.118639,0.01931 -0.136737,-0.0843 -0.278686,-0.159729 -0.415105,-0.244025 -0.0518,-0.0322 -0.07387,-0.0236 -0.106071,0.02606 -0.153882,0.237886 -0.292471,0.483764 -0.418756,0.737287 -0.03006,0.06009 -0.02884,0.09043 0.03556,0.12446 0.138562,0.07297 0.270986,0.157586 0.408331,0.232701 0.04998,0.0276 0.06162,0.05088 0.03649,0.106072 -0.245242,0.540464 -0.397007,1.106699 -0.454025,1.697461 -0.0064,0.06683 -0.03157,0.08062 -0.09258,0.07908 -0.15695,-0.0037 -0.313928,-6.09e-4 -0.471196,-0.0012 -0.04413,0 -0.07848,-0.0025 -0.08369,0.06099 -0.02421,0.294614 -0.02728,0.588619 -0.0025,0.883232 0.0046,0.05366 0.02177,0.07019 0.07665,0.06898 0.160629,-0.0043 0.321892,0 0.482521,-0.0025 0.05337,-8.99e-4 0.08279,0.0058 0.08922,0.07083 0.05612,0.595048 0.21,1.164643 0.455269,1.70942 0.02513,0.05577 0.01132,0.07816 -0.03773,0.105146 -0.140387,0.07787 -0.277733,0.161554 -0.417221,0.240956 -0.04016,0.02267 -0.06562,0.04077 -0.03802,0.09504 0.13335,0.262731 0.27776,0.518716 0.441458,0.763958 0.03188,0.04752 0.05427,0.04659 0.09932,0.01902 0.140097,-0.08554 0.284189,-0.164942 0.424895,-0.249873 0.04477,-0.02667 0.06837,-0.02453 0.101176,0.02085 0.348271,0.486225 0.766736,0.903764 1.249865,1.256004 0.04509,0.03313 0.04723,0.05641 0.02056,0.100859 -0.08279,0.137663 -0.159121,0.279294 -0.243126,0.416004 -0.03463,0.05641 -0.03495,0.08586 0.02667,0.125386 0.238522,0.152691 0.483764,0.292788 0.736679,0.420317 0.0598,0.03003 0.08247,0.01564 0.111602,-0.03895 0.07387,-0.138245 0.156051,-0.271913 0.232383,-0.408649 0.02543,-0.04538 0.04413,-0.06959 0.104828,-0.04106 0.16219,0.07694 0.329248,0.143775 0.501253,0.197115 0.03739,0.01164 0.05824,0.02606 0.04506,0.07265 -0.06683,0.238204 -0.192829,0.42246 -0.441775,0.500327 -0.114962,0.03617 -0.232066,0.04445 -0.351631,0.04445 -1.570832,-6.35e-4 -3.141689,-3.18e-4 -4.712521,-3.18e-4 -0.04231,0 -0.08493,0.0015 -0.126312,-0.0037 -0.188542,-0.0236 -0.337529,-0.104855 -0.39579,-0.297683 -0.03371,-0.110966 -0.04995,-0.240956 -0.0018,-0.335995 0.03217,-0.06376 0.162163,-0.01286 0.24802,-0.02207 0.0037,-3.17e-4 0.0076,-6.08e-4 0.01132,0 0.109749,0.02114 0.137663,-0.02053 0.137345,-0.132741 -0.0034,-3.151188 -0.0028,-6.302402 -0.0028,-9.453594 2.91e-4,-0.248931 -0.0043,-0.497864 0.0021,-0.746795 0.0021,-0.08921 -0.02699,-0.106074 -0.110358,-0.105153 -0.371554,0.0046 -0.743426,0.0074 -1.114689,-9.21e-4 -0.111893,-0.0028 -0.166159,0.03127 -0.215821,0.131519 -1.125696,2.282079 -2.255414,4.56202 -3.384497,6.84257 -0.02635,0.05273 -0.04292,0.117395 -0.129064,0.09872 -0.09136,-0.01963 -0.19558,0.04384 -0.26334,-0.09197 -0.221324,-0.444526 -0.458311,-0.88138 -0.689451,-1.321302 -0.976736,-1.85719 -1.953763,-3.714062 -2.928646,-5.572466 -0.0331,-0.06254 -0.06776,-0.08645 -0.139171,-0.08553 -0.310251,0.0043 -0.620792,-0.0031 -0.931042,0.0043 -0.106072,0.0028 -0.142875,-0.01686 -0.138563,-0.132744 0.01043,-0.271616 -0.0015,-0.543848 0.0061,-0.815466 0.0028,-0.09749 -0.02513,-0.117415 -0.119248,-0.117415 -1.241594,0.0037 -2.482881,0.0025 -3.724475,0.0025 -0.01901,0 -0.03832,0.0015 -0.05733,-6.14e-4 -0.04629,-0.0049 -0.0607,0.01686 -0.05733,0.06009 0.0028,0.03433 0.0049,0.06959 -3.06e-4,0.103312 -0.01318,0.08339 0.02361,0.09994 0.101167,0.09902 0.310551,-0.0034 0.620489,0.0092 0.929509,0.03985 0.382596,0.03801 0.759672,0.09963 1.105787,0.278974 0.206623,0.106992 0.377383,0.25445 0.492651,0.480084 h -0.135808 c -0.563163,0 -1.126326,0.0028 -1.689489,-0.0028 -0.09963,-0.0012 -0.121094,0.02851 -0.116496,0.121094 0.008,0.156655 0.0052,0.313923 6.14e-4,0.470887 -0.0018,0.06407 0.01625,0.08216 0.08155,0.08461 0.168304,0.0067 0.337222,0.01656 0.503995,0.03832 0.391485,0.0515 0.761817,0.161866 1.076661,0.416316 0.0561,0.04537 0.07818,0.0932 0.07818,0.165238 -0.0018,2.174795 -0.0018,4.349882 -6.14e-4,6.524651 0,0.05673 -0.01441,0.09872 -0.05396,0.142558 -0.155737,0.17137 -0.228391,0.377084 -0.228698,0.608224 -6.14e-4,0.413253 0.0031,0.826823 -0.0031,1.240367 -0.0012,0.08554 0.0328,0.110066 0.103926,0.129381 0.369107,0.09993 0.736997,0.203861 1.105165,0.306255 0.19804,0.05548 0.396081,0.110966 0.594121,0.166476 0.0052,-0.01656 0.0092,-0.02392 0.0092,-0.03127 0,-0.424921 -0.0031,-0.850106 0.0015,-1.275027 0.0037,-0.355917 -0.108532,-0.671063 -0.334168,-0.940832 -0.08276,-0.09903 -0.118004,-0.195897 -0.107606,-0.320066 0.0086,-0.0984 -0.03249,-0.231458 0.01749,-0.288184 0.05823,-0.0662 0.19468,-0.0245 0.29583,-0.01929 0.102712,0.0052 0.131816,-0.02209 0.131525,-0.12909 -0.0037,-1.941168 -0.0028,-3.882337 -0.0028,-5.823823 v -0.108839 c 0.0074,-0.0018 0.01471,-0.0037 0.02175,-0.0055 1.503098,2.954075 3.006196,5.90783 4.516966,8.876641 1.434412,-3.040222 2.858717,-6.059594 4.28334,-9.078669 0.0077,0.0025 0.01564,0.0052 0.0236,0.008 v 0.06499 c 0,2.469706 3.17e-4,4.939406 -2.91e-4,7.409106 0,0.168301 -0.01289,0.336285 -0.03987,0.502761 -0.109432,0.670772 -0.595948,1.119267 -1.249257,1.150858 -0.01532,0.01439 -0.01503,0.02881 6.09e-4,0.0426 0.03405,-0.0037 0.06776,-0.01042 0.101785,-0.01042 0.494189,-2.91e-4 0.988378,3.17e-4 1.482566,6.35e-4 0.101786,0 0.152665,0.05038 0.152665,0.15113 0,0.503078 0.314537,0.837221 0.815472,0.838755 1.601179,0.0055 3.202702,0.0046 4.804198,0.0028 0.620501,-6.09e-4 0.953718,-0.317288 1.072992,-0.769779 0.01225,-0.04659 0.02667,-0.06744 0.08583,-0.05212 0.244634,0.06408 0.493263,0.109458 0.745252,0.12999 0.07051,0.0055 0.08676,0.03342 0.08461,0.100251 -0.0049,0.15666 9.26e-4,0.313928 -0.0024,0.470588 -0.0015,0.05884 0.01654,0.08001 0.07633,0.08369 0.283263,0.01656 0.566209,0.01992 0.849789,0.0015 0.06223,-0.004 0.08676,-0.02024 0.08493,-0.08676 -0.0049,-0.152982 0.0037,-0.306573 -0.0034,-0.459237 -0.0037,-0.0794 0.0227,-0.101785 0.09903,-0.110067 0.578485,-0.0613 1.134295,-0.21 1.664044,-0.451273 0.06866,-0.03125 0.09226,-0.01011 0.122317,0.04477 0.07511,0.137345 0.15666,0.271304 0.23114,0.408967 0.02791,0.05212 0.05273,0.05887 0.106071,0.03188 0.255694,-0.130598 0.504323,-0.272547 0.743136,-0.43225 0.05027,-0.03405 0.05517,-0.05887 0.02453,-0.109458 -0.0834,-0.137028 -0.160046,-0.278368 -0.242199,-0.416322 -0.02789,-0.04659 -0.02942,-0.07358 0.02024,-0.10914 0.481622,-0.348562 0.895483,-0.765175 1.24251,-1.247405 0.04138,-0.05734 0.07112,-0.04691 0.119565,-0.01749 0.133959,0.08094 0.27223,0.155734 0.405263,0.238204 0.05337,0.03281 0.08096,0.03006 0.116946,-0.02513 0.156104,-0.240638 0.296068,-0.490511 0.424127,-0.747395 0.02619,-0.05273 0.0164,-0.07726 -0.03387,-0.105172 -0.140758,-0.07694 -0.277283,-0.162163 -0.417777,-0.239421 -0.05109,-0.02789 -0.0603,-0.0512 -0.03485,-0.10668 0.05548,-0.121391 0.103902,-0.246169 0.14994,-0.371555 0.153193,-0.418174 0.25691,-0.848571 0.29845,-1.292172 0.0077,-0.08218 0.02593,-0.122343 0.120914,-0.115887 0.141023,0.0092 0.283634,0.0076 0.424921,2.91e-4 0.03043,-0.0015 0.05107,0.0012 0.06588,0.0092 v -1.021477 c -0.0127,0.0037 -0.02858,0.0046 -0.0471,0.0043 -0.157427,-0.0034 -0.314589,-0.0046 -0.471487,6.08e-4 z m -7.11491,5.934525 c -0.148379,0.510434 -0.466593,0.747712 -1.004015,0.74803 -1.088019,9e-4 -2.17633,2.91e-4 -3.264323,2.91e-4 -0.50583,-3.17e-4 -1.011661,-0.008 -1.517491,0.0025 -0.39243,0.008 -0.774092,-0.270405 -0.769805,-0.765493 0.0141,-1.550617 0.0052,-3.101551 0.0052,-4.65246 -2.91e-4,-1.516274 0,-3.032548 -2.91e-4,-4.548835 0,-0.168918 -0.0083,-0.337836 -0.06654,-0.498171 -0.04045,-0.111284 -0.08554,-0.236363 -0.221959,-0.254143 -0.12446,-0.01625 -0.199575,0.08492 -0.266091,0.172596 -0.18669,0.246173 -0.294614,0.534958 -0.427646,0.809654 -0.914189,1.887828 -1.824382,3.777509 -2.738888,5.66502 -0.131815,0.271939 -0.283554,0.534353 -0.483129,0.764275 -0.355944,0.409284 -0.679053,0.388726 -0.958956,-0.07358 -0.273446,-0.451247 -0.492045,-0.932577 -0.733001,-1.401604 -0.88138,-1.716484 -1.758765,-3.435403 -2.637684,-5.15339 -0.100251,-0.196204 -0.224102,-0.373705 -0.392113,-0.51871 -0.451247,-0.388729 -0.996632,-0.24924 -1.20695,0.308403 -0.08215,0.218276 -0.107288,0.445754 -0.107288,0.676603 -9.26e-4,1.948842 0,3.897683 -0.0021,5.846816 -3.18e-4,0.07511 0.02453,0.110066 0.08829,0.149013 0.433467,0.262096 0.678418,0.647753 0.698976,1.154827 0.01593,0.393621 0.0012,0.788485 0.0049,1.183031 6.09e-4,0.08279 -0.02146,0.0935 -0.0975,0.07205 -0.492336,-0.140705 -0.985917,-0.277733 -1.479788,-0.413543 -0.05702,-0.01564 -0.0794,-0.03927 -0.07909,-0.10086 0.0028,-0.417565 -0.0037,-0.834786 0.0034,-1.252034 0.0067,-0.382297 0.254143,-0.659739 0.625393,-0.715513 0.05027,-0.0077 0.06652,-0.0273 0.06284,-0.07358 -0.0015,-0.0227 -2.91e-4,-0.04598 -2.91e-4,-0.06898 2.91e-4,-1.921881 6.08e-4,-3.844052 0,-5.766224 -3.18e-4,-0.337825 0.04413,-0.664932 0.223176,-0.959236 0.280193,-0.460769 0.784807,-0.57236 1.238514,-0.278363 0.254767,0.164933 0.433202,0.396084 0.569622,0.662183 0.965067,1.884151 1.9286,3.768937 2.893986,5.653088 0.151738,0.29583 0.29337,0.596873 0.462915,0.883205 0.04874,0.08247 0.105145,0.160047 0.177482,0.223812 0.09964,0.08797 0.190077,0.09686 0.304139,0.02974 0.114644,-0.06744 0.199575,-0.166159 0.27805,-0.270696 0.277442,-0.369728 0.465349,-0.789119 0.664634,-1.201763 0.912045,-1.889046 1.823455,-3.778118 2.735183,-5.66687 0.06345,-0.131823 0.140705,-0.254757 0.243707,-0.359296 0.247095,-0.249545 0.531284,-0.201107 0.683657,0.116189 0.0935,0.194363 0.114353,0.403135 0.114353,0.615278 v 9.177988 c 0,0.06498 -0.0012,0.130598 0.0061,0.19468 0.02911,0.247703 0.201084,0.41783 0.449713,0.446353 0.06101,0.0067 0.122634,0.0077 0.183647,0.0077 1.571149,2.92e-4 3.142006,0 4.713155,2.92e-4 0.134885,0 0.267944,-0.01042 0.395155,-0.05884 0.255985,-0.0975 0.383831,-0.298609 0.456169,-0.550915 0.241273,-0.840899 0.486515,-1.680607 0.729932,-2.520897 0.272547,-0.939324 0.54446,-1.878648 0.816689,-2.817945 0.0055,-0.01842 0.0092,-0.03741 0.01564,-0.05519 0.01932,-0.05427 0.04813,-0.102394 0.115597,-0.08001 0.06223,0.02053 0.07387,0.06927 0.05577,0.130281 -0.04506,0.15023 -0.08737,0.301043 -0.13089,0.451591 -0.476726,1.644094 -0.953108,3.287924 -1.430125,4.931727 z m 1.921245,-5.662295 c -0.13888,-0.260562 -0.458946,-0.344884 -0.708475,-0.186372 -0.244633,0.155098 -0.314536,0.502761 -0.123243,0.719507 0.08951,0.101468 0.09657,0.182695 0.04752,0.291545 -0.02178,0.04781 -0.01992,0.104828 -0.05488,0.148061 -0.386583,-0.207248 -0.54692,-0.670163 -0.373698,-1.075135 0.171054,-0.40005 0.618332,-0.600551 1.039548,-0.465984 0.403437,0.128773 0.646854,0.56134 0.554885,0.986235 -0.0889,0.4114 -0.48223,0.70051 -0.888736,0.649922 0.0098,-0.0371 0.02209,-0.07326 0.02881,-0.110675 0.02363,-0.136737 0.07726,-0.221959 0.231775,-0.271304 0.276225,-0.08829 0.383514,-0.428572 0.246486,-0.6858 z m 0.98253,0.581872 c 0.168619,-0.708793 -0.203253,-1.438408 -0.870955,-1.708494 -0.72472,-0.293079 -1.546013,0.03003 -1.876796,0.73914 -0.33139,0.709083 -0.04842,1.557046 0.646854,1.918785 0.08829,0.04598 0.110066,0.08279 0.08033,0.179334 -0.109431,0.354092 -0.213069,0.710009 -0.308398,1.068097 -0.02852,0.10668 -0.06744,0.104827 -0.155125,0.06927 -1.217375,-0.493553 -1.939026,-1.801997 -1.704525,-3.09663 0.225954,-1.246796 1.180914,-2.157915 2.430462,-2.318861 1.445763,-0.185764 2.823184,0.818832 3.092953,2.256023 0.28911,1.539583 -0.664951,2.978917 -2.195619,3.308164 -0.367876,0.0794 -0.737605,0.07512 -1.107016,0.0043 -0.02545,-0.0049 -0.04998,-0.01564 -0.07755,-0.02421 0.118005,-0.407432 0.236353,-0.810577 0.350706,-1.21494 0.01839,-0.06591 0.04598,-0.0748 0.111892,-0.06866 0.744643,0.06959 1.41388,-0.402511 1.58279,-1.111303 z m -0.604837,4.557421 c -0.653918,0.109141 -1.304449,0.08522 -1.950985,-0.06223 -0.07115,-0.01595 -0.09199,-0.03281 -0.06869,-0.110675 0.128773,-0.428281 0.25199,-0.857779 0.373089,-1.288203 0.02053,-0.07265 0.04659,-0.09043 0.124169,-0.07541 1.853486,0.364199 3.58775,-0.737896 4.042384,-2.566273 0.45802,-1.84277 -0.723186,-3.74777 -2.581302,-4.163483 -1.959557,-0.438383 -3.880511,0.891513 -4.156419,2.877132 -0.22135,1.594459 0.677201,3.122374 2.178765,3.69996 0.07879,0.03035 0.103002,0.05641 0.07572,0.145917 -0.128138,0.420291 -0.248312,0.842751 -0.367877,1.265503 -0.02146,0.07633 -0.0417,0.101467 -0.128138,0.06805 -1.772576,-0.685165 -2.881418,-1.950667 -3.228155,-3.817038 -0.49358,-2.657025 1.197134,-5.151553 3.844952,-5.746906 1.926775,-0.432871 4.035954,0.424596 5.132229,2.081898 0.559805,0.846746 0.842142,1.775619 0.847672,2.789449 0.01196,2.413291 -1.751436,4.503447 -4.137422,4.902306 z"
           fill="white"
           id="path1-6"
           style="fill:#000000;fill-opacity:1;stroke-width:0.264583" /><path
           d="m 15.701581,38.049968 c 0.423976,0.11803 0.835403,0.232674 1.247121,0.346127 0.05088,0.0141 0.07326,0.03585 0.07234,0.09411 -0.0037,0.283263 -0.0028,0.566526 -2.91e-4,0.849788 6.09e-4,0.05702 -0.01228,0.07419 -0.07115,0.05765 -0.39669,-0.113136 -0.793988,-0.225345 -1.191919,-0.334169 -0.04966,-0.01349 -0.05671,-0.03741 -0.05671,-0.08062 0.0012,-0.306282 6.11e-4,-0.612219 6.11e-4,-0.932286 z m 1.244052,1.263358 c 0,-0.268843 -9.26e-4,-0.527896 9.26e-4,-0.78695 0,-0.04598 -0.02484,-0.0558 -0.06133,-0.06622 -0.345811,-0.09594 -0.691303,-0.192511 -1.036188,-0.290936 -0.05457,-0.01564 -0.07388,-0.0061 -0.07296,0.05519 0.0028,0.232992 0.0018,0.466276 0,0.699585 -3.07e-4,0.04506 0.01318,0.06713 0.05855,0.07972 0.367575,0.100859 0.734235,0.204153 1.11161,0.309615 z"
           fill="white"
           id="path2"
           style="fill:#000000;fill-opacity:1;stroke-width:0.264583" /><path
           d="m 34.670388,28.979561 c 0.706332,0.0037 1.36943,0.173824 1.991439,0.507982 0.06961,0.0374 0.08401,0.06499 0.03802,0.135207 -0.07908,0.121391 -0.149304,0.249238 -0.216747,0.377667 -0.03402,0.06501 -0.06252,0.07144 -0.128455,0.03559 -0.680879,-0.369438 -1.406816,-0.500023 -2.174452,-0.394864 -0.421243,0.05763 -0.818224,0.191294 -1.189487,0.397298 -0.0613,0.03403 -0.08707,0.03127 -0.120491,-0.03188 -0.07112,-0.135202 -0.145918,-0.268843 -0.228679,-0.397298 -0.04294,-0.06684 -0.01595,-0.08554 0.03924,-0.115891 0.619575,-0.341209 1.283891,-0.50706 1.989296,-0.514418 z"
           fill="white"
           id="path3"
           style="fill:#000000;fill-opacity:1;stroke-width:0.264583" /><path
           d="m 38.814186,33.335013 c -0.114353,1.443911 -0.757528,2.57392 -1.988687,3.356901 -0.06041,0.03831 -0.09168,0.03924 -0.12753,-0.03035 -0.06837,-0.132133 -0.143483,-0.261197 -0.222276,-0.387509 -0.03678,-0.05855 -0.03127,-0.0843 0.02945,-0.122635 0.916014,-0.576633 1.462934,-1.400995 1.645338,-2.466922 0.02635,-0.154834 0.04292,-0.311176 0.04046,-0.468127 -9e-4,-0.06715 0.02177,-0.08432 0.08554,-0.08218 0.141631,0.0046 0.283871,0.0095 0.424894,-6.08e-4 0.101785,-0.0074 0.127529,0.03066 0.113427,0.1211 -0.004,0.02606 -6.09e-4,0.05334 -6.09e-4,0.08033 z"
           fill="white"
           id="path4-2"
           style="fill:#000000;fill-opacity:1;stroke-width:0.264583" /><path
           d="m 30.850149,33.13565 c 0.06898,0 0.138562,0.0058 0.206613,-0.0015 0.08279,-0.0089 0.0984,0.02363 0.101467,0.101494 0.03987,1.008909 0.431033,1.856873 1.176603,2.539894 0.155442,0.142558 0.324061,0.26887 0.506465,0.374624 0.05855,0.03402 0.07295,0.0604 0.03432,0.121708 -0.08123,0.129382 -0.158802,0.261514 -0.228679,0.397299 -0.03588,0.0699 -0.06654,0.05826 -0.119883,0.02453 -1.036505,-0.65143 -1.673833,-1.578795 -1.920637,-2.775029 -0.0472,-0.228706 -0.06773,-0.46138 -0.07419,-0.695298 -0.0018,-0.07051 0.01595,-0.09533 0.08829,-0.08922 0.07604,0.0065 0.152982,0.0015 0.229632,0.0015 z"
           fill="white"
           id="path5"
           style="fill:#000000;fill-opacity:1;stroke-width:0.264583" /><path
           d="m 15.963579,38.46494 c 0.02945,0.0074 0.05855,0.01439 0.08737,0.02207 0.243416,0.0653 0.241273,0.06498 0.221959,0.312685 -0.0043,0.05641 -0.02453,0.0653 -0.0708,0.04876 -0.0037,-0.0012 -0.0071,-0.0028 -0.01074,-0.0037 -0.261189,-0.06347 -0.267933,-0.07512 -0.22778,-0.379836 z m 0.07236,0.104219 c -0.02545,0.107924 -0.0049,0.170445 0.108214,0.183039 0.04966,0.0055 0.04413,-0.01503 0.04905,-0.04723 0.02053,-0.130281 -0.07665,-0.119565 -0.157268,-0.135811 z"
           fill="white"
           id="path6-9"
           style="fill:#000000;fill-opacity:1;stroke-width:0.264583" /><path
           d="m 16.454725,38.601359 c 0.03585,0.0095 0.0613,0.01593 0.08644,0.02267 0.236378,0.06194 0.232992,0.06194 0.226853,0.30443 -0.0018,0.07144 -0.02667,0.06929 -0.08094,0.0558 -0.26117,-0.06501 -0.261487,-0.06408 -0.232357,-0.382905 z m 0.229923,0.294614 c 0.01439,-0.08583 0.02974,-0.167693 -0.09411,-0.179335 -0.02791,-0.0028 -0.05487,-0.01963 -0.06408,0.03096 -0.02421,0.132424 0.06866,0.133668 0.158194,0.148379 z"
           fill="white"
           id="path7-1"
           style="fill:#000000;fill-opacity:1;stroke-width:0.264583" /></g></g></g></svg>
