<?xml version="1.0" encoding="UTF-8" standalone="no"?>
<!-- Created with Inkscape (http://www.inkscape.org/) -->

<svg
   width="130mm"
   height="130mm"
   viewBox="0 0 130 130"
   version="1.1"
   id="svg1"
   inkscape:version="1.4.4 (dcaf3e7d9e, 2026-05-05)"
   sodipodi:docname="Youtube-RSS-Bot.svg"
   inkscape:export-filename="Youtube-RSS-Bot2.png"
   inkscape:export-xdpi="300"
   inkscape:export-ydpi="300"
   xml:space="preserve"
   xmlns:inkscape="http://www.inkscape.org/namespaces/inkscape"
   xmlns:sodipodi="http://sodipodi.sourceforge.net/DTD/sodipodi-0.dtd"
   xmlns="http://www.w3.org/2000/svg"
   xmlns:svg="http://www.w3.org/2000/svg"><sodipodi:namedview
     id="namedview1"
     pagecolor="#cbcbcb"
     bordercolor="#000000"
     borderopacity="0.25"
     inkscape:showpageshadow="2"
     inkscape:pageopacity="0.0"
     inkscape:pagecheckerboard="0"
     inkscape:deskcolor="#d1d1d1"
     inkscape:document-units="mm"
     inkscape:zoom="1.3832884"
     inkscape:cx="160.12568"
     inkscape:cy="230.24844"
     inkscape:window-width="1920"
     inkscape:window-height="1008"
     inkscape:window-x="0"
     inkscape:window-y="0"
     inkscape:window-maximized="1"
     inkscape:current-layer="layer6"
     inkscape:export-bgcolor="#ffffff00"
     showgrid="true"><inkscape:grid
       id="grid23"
       units="mm"
       originx="0"
       originy="0"
       spacingx="0.99999998"
       spacingy="0.99999998"
       empcolor="#0099e5"
       empopacity="0.30196078"
       color="#0099e5"
       opacity="0.14901961"
       empspacing="5"
       enabled="true"
       visible="true" /></sodipodi:namedview><defs
     id="defs1"><inkscape:path-effect
       effect="fillet_chamfer"
       id="path-effect27"
       is_visible="true"
       lpeversion="1"
       nodesatellites_param="F,0,0,1,0,5,0,1 @ F,0,0,1,0,5,0,1 @ F,0,0,1,0,5,0,1"
       radius="0"
       unit="px"
       method="auto"
       mode="F"
       chamfer_steps="1"
       flexible="false"
       use_knot_distance="true"
       apply_no_radius="true"
       apply_with_radius="true"
       only_selected="false"
       hide_knots="false" /><inkscape:path-effect
       effect="powermask"
       id="path-effect1"
       is_visible="true"
       lpeversion="1"
       uri="#mask-powermask-path-effect1"
       invert="false"
       hide_mask="false"
       background="true"
       background_color="#ffffffff" /><inkscape:path-effect
       effect="powermask"
       id="path-effect46"
       is_visible="true"
       lpeversion="1"
       uri="#mask-powermask-path-effect46"
       invert="false"
       hide_mask="false"
       background="true"
       background_color="#ffffffff" /><inkscape:path-effect
       effect="powermask"
       id="path-effect44"
       is_visible="true"
       lpeversion="1"
       uri="#mask-powermask-path-effect44"
       invert="false"
       hide_mask="false"
       background="true"
       background_color="#ffffffff" /><inkscape:path-effect
       effect="powermask"
       id="path-effect38"
       is_visible="true"
       lpeversion="1"
       uri="#mask-powermask-path-effect38"
       invert="false"
       hide_mask="false"
       background="true"
       background_color="#ffffffff" /><inkscape:path-effect
       effect="powermask"
       id="path-effect37"
       is_visible="true"
       lpeversion="1"
       uri="#mask-powermask-path-effect37"
       invert="false"
       hide_mask="false"
       background="true"
       background_color="#ffffffff" /><inkscape:path-effect
       effect="powerstroke"
       message=""
       id="path-effect34"
       is_visible="true"
       lpeversion="1.3"
       scale_width="1"
       interpolator_type="CubicBezierJohan"
       interpolator_beta="0.2"
       start_linecap_type="zerowidth"
       end_linecap_type="zerowidth"
       offset_points="0.40494773,18.87"
       linejoin_type="extrp_arc"
       miter_limit="4"
       not_jump="false"
       sort_points="true" /><inkscape:path-effect
       effect="powerstroke"
       message=""
       id="path-effect32"
       is_visible="true"
       lpeversion="1.3"
       scale_width="1"
       interpolator_type="CubicBezierJohan"
       interpolator_beta="0.2"
       start_linecap_type="zerowidth"
       end_linecap_type="zerowidth"
       offset_points="0,18.87"
       linejoin_type="extrp_arc"
       miter_limit="4"
       not_jump="false"
       sort_points="true" /><inkscape:path-effect
       effect="powerstroke"
       message=""
       id="path-effect25"
       is_visible="true"
       lpeversion="1.3"
       scale_width="1"
       interpolator_type="CubicBezierJohan"
       interpolator_beta="0.2"
       start_linecap_type="zerowidth"
       end_linecap_type="zerowidth"
       offset_points="0,18.87"
       linejoin_type="extrp_arc"
       miter_limit="4"
       not_jump="false"
       sort_points="true" /><inkscape:path-effect
       effect="powerstroke"
       message=""
       id="path-effect21"
       is_visible="true"
       lpeversion="1.3"
       scale_width="1"
       interpolator_type="CubicBezierJohan"
       interpolator_beta="0.2"
       start_linecap_type="zerowidth"
       end_linecap_type="zerowidth"
       offset_points="0,18.87"
       linejoin_type="extrp_arc"
       miter_limit="4"
       not_jump="false"
       sort_points="true" /><inkscape:path-effect
       effect="spiro"
       id="path-effect19"
       is_visible="true"
       lpeversion="1" /><inkscape:path-effect
       effect="powerstroke"
       message=""
       id="path-effect17"
       is_visible="true"
       lpeversion="1.3"
       scale_width="1"
       interpolator_type="CubicBezierJohan"
       interpolator_beta="0.2"
       start_linecap_type="zerowidth"
       end_linecap_type="zerowidth"
       offset_points="0,18.87"
       linejoin_type="extrp_arc"
       miter_limit="4"
       not_jump="false"
       sort_points="true" /><inkscape:path-effect
       effect="powermask"
       id="path-effect16"
       is_visible="true"
       lpeversion="1"
       uri="#mask-powermask-path-effect16"
       invert="false"
       hide_mask="false"
       background="true"
       background_color="#ffffffff" /><inkscape:path-effect
       effect="powermask"
       id="path-effect13"
       is_visible="true"
       lpeversion="1"
       uri="#mask-powermask-path-effect13"
       invert="false"
       hide_mask="false"
       background="true"
       background_color="#ffffffff" /><inkscape:path-effect
       effect="powermask"
       id="path-effect31"
       is_visible="true"
       lpeversion="1"
       uri="#mask-powermask-path-effect31"
       invert="false"
       hide_mask="false"
       background="true"
       background_color="#ffffffff" /><inkscape:path-effect
       effect="powermask"
       id="path-effect24"
       is_visible="true"
       lpeversion="1"
       uri="#mask-powermask-path-effect24"
       invert="false"
       hide_mask="false"
       background="false"
       background_color="#ffffffff" /><inkscape:path-effect
       effect="powermask"
       id="path-effect22"
       is_visible="true"
       lpeversion="1"
       uri="#mask-powermask-path-effect22"
       invert="false"
       hide_mask="false"
       background="false"
       background_color="#ffffffff" /><inkscape:path-effect
       effect="powermask"
       id="path-effect20"
       is_visible="true"
       lpeversion="1"
       uri="#mask-powermask-path-effect20"
       invert="false"
       hide_mask="false"
       background="false"
       background_color="#ffffffff" /><inkscape:path-effect
       effect="powermask"
       id="path-effect15"
       is_visible="true"
       lpeversion="1"
       uri="#mask-powermask-path-effect15"
       invert="false"
       hide_mask="false"
       background="true"
       background_color="#ffffffff" /><inkscape:path-effect
       effect="powermask"
       id="path-effect14"
       is_visible="true"
       lpeversion="1"
       uri="#mask-powermask-path-effect14"
       invert="false"
       hide_mask="false"
       background="true"
       background_color="#ffffffff" /><inkscape:path-effect
       effect="powermask"
       id="path-effect12"
       is_visible="true"
       lpeversion="1"
       uri="#mask-powermask-path-effect12"
       invert="false"
       hide_mask="false"
       background="true"
       background_color="#ffffffff" /><inkscape:path-effect
       effect="powermask"
       id="path-effect10"
       is_visible="true"
       lpeversion="1"
       uri="#mask-powermask-path-effect10"
       invert="false"
       hide_mask="false"
       background="true"
       background_color="#ffffffff" /><inkscape:path-effect
       effect="powermask"
       id="path-effect3"
       is_visible="true"
       lpeversion="1"
       uri="#mask-powermask-path-effect3"
       invert="false"
       hide_mask="false"
       background="false"
       background_color="#ffffffff" /><inkscape:path-effect
       effect="powermask"
       id="path-effect6"
       is_visible="true"
       lpeversion="1"
       uri="#mask-powermask-path-effect6"
       invert="false"
       hide_mask="false"
       background="true"
       background_color="#ffffffff" /><inkscape:path-effect
       effect="powermask"
       id="path-effect11"
       is_visible="true"
       lpeversion="1"
       uri="#mask-powermask-path-effect11"
       invert="false"
       hide_mask="false"
       background="true"
       background_color="#ffffffff" /><inkscape:path-effect
       effect="powermask"
       id="path-effect9"
       is_visible="true"
       lpeversion="1"
       uri="#mask-powermask-path-effect9"
       invert="false"
       hide_mask="false"
       background="false"
       background_color="#ffffffff" /><inkscape:path-effect
       effect="powermask"
       id="path-effect8"
       is_visible="true"
       lpeversion="1"
       uri="#mask-powermask-path-effect8"
       invert="false"
       hide_mask="false"
       background="true"
       background_color="#ffffffff" /><filter
       id="mask-powermask-path-effect5_inverse"
       inkscape:label="filtermask-powermask-path-effect5"
       style="color-interpolation-filters:sRGB"
       height="100"
       width="100"
       x="-50"
       y="-50"><feColorMatrix
         id="mask-powermask-path-effect5_primitive1"
         values="1"
         type="saturate"
         result="fbSourceGraphic" /><feColorMatrix
         id="mask-powermask-path-effect5_primitive2"
         values="-1 0 0 0 1 0 -1 0 0 1 0 0 -1 0 1 0 0 0 1 0 "
         in="fbSourceGraphic" /></filter><mask
       maskUnits="userSpaceOnUse"
       id="mask10"><path
         d="M 27.380004,57.068458 C 38.343848,68.04778 55.773145,69.129415 68.010357,59.589913 L 88.35807,79.937629 c 3.606284,3.482583 8.89282,-1.803959 5.410229,-5.410238 L 73.4206,54.179687 C 83.41406,41.3546 81.70178,22.967425 69.512077,12.208105 57.322371,1.4487879 38.864884,2.0329944 27.380004,13.541667 c -12.02392,12.017797 -12.02392,31.50899 0,43.526791 z m 5.41024,-38.108899 c 6.840495,-7.919484 20.023143,-9.0035022 29.193305,-2.876011 9.170042,6.127411 12.73216,17.879107 8.511844,28.069843 C 66.275077,54.344128 55.44738,60.136535 44.630147,57.986565 33.812776,55.836569 26.019524,46.343102 26.017873,35.31271 c -0.0212,-6.139805 2.417914,-12.032253 6.772371,-16.360802 z"
         id="path10"
         style="display:inline;fill:#ffffff;fill-opacity:1;stroke:#000000;stroke-width:2.12079;stroke-dasharray:none;stroke-opacity:1"
         sodipodi:nodetypes="cccccscccsssccc" /></mask><mask
       maskUnits="userSpaceOnUse"
       id="mask-powermask-path-effect3-7"><path
         id="mask-powermask-path-effect3_box-5"
         style="fill:#ffffff;fill-opacity:1"
         d="M 18.077019,4.2157059 H 80.123825 V 66.262512 H 18.077019 Z" /><path
         style="display:inline;fill:#000000;fill-opacity:1;stroke:none;stroke-width:4;stroke-dasharray:none;stroke-opacity:1"
         d="M 37.054799,10.506354 C 33.765899,10.282651 30.805169,8.4377567 29.190089,5.6057202 28.656384,4.6698546 28.247212,3.5618034 28.079574,2.598355 28.025094,2.2853264 27.974627,2.0062413 27.96742,1.9781584 27.959324,1.946546 27.74426,1.9173571 27.402101,1.9016568 26.950444,1.8809134 26.769863,1.849518 26.410368,1.7293284 24.997541,1.2568751 24.03192,0.15069719 23.811922,-1.2473347 c -0.03985,-0.252894 -0.05073,-1.4111552 -0.04007,-4.2288381 l 0.0141,-3.8805405 0.153403,-0.4414891 c 0.265782,-0.7648866 0.662397,-1.3411786 1.246219,-1.8108536 0.642607,-0.516923 1.458727,-0.826489 2.318253,-0.879295 l 0.464743,-0.02859 0.0302,-0.44149 c 0.164315,-2.408847 1.473685,-4.922178 3.455398,-6.632673 1.154485,-0.996483 2.566538,-1.749049 3.94363,-2.101757 1.236438,-0.316714 0.890635,-0.299239 6.466449,-0.326436 l 5.065614,-0.02477 v -1.765979 -1.765998 l -0.407678,-0.215953 c -0.979884,-0.519037 -1.651897,-1.232305 -2.146961,-2.278755 -0.354203,-0.748701 -0.420116,-1.056052 -0.416801,-1.943521 0.0027,-0.695954 0.0145,-0.805451 0.129164,-1.185077 0.435214,-1.441353 1.376225,-2.55615 2.685704,-3.181685 0.713229,-0.34069 1.161468,-0.438328 2.015522,-0.438952 0.61595,-5.24e-4 0.750503,0.0141 1.155816,0.125817 0.86174,0.237272 1.530593,0.615266 2.170531,1.226669 1.29881,1.240862 1.83475,3.191065 1.316352,4.789971 -0.424794,1.310176 -1.217078,2.246444 -2.481673,2.932615 l -0.327676,0.177762 -0.0037,1.157396 c -0.0021,0.636546 -0.0013,1.43447 0.0011,1.773146 l 0.0048,0.615791 h 4.837287 c 5.305536,0 5.473747,0.008 6.518243,0.277456 0.806709,0.208766 1.297149,0.393333 2.052087,0.772254 2.527983,1.268885 4.411358,3.541742 5.207863,6.284877 0.124936,0.430276 0.275711,1.28491 0.322106,1.825811 l 0.03033,0.353674 0.472999,0.02677 c 1.482275,0.08375 2.813378,0.989819 3.377993,2.29945 0.33137,0.7686305 0.324953,0.6703881 0.324588,4.969608 -5.29e-4,4.37584054 0.0113,4.22517621 -0.394557,5.06187337 C 72.783505,1.066555 71.380383,1.9131185 69.95534,1.9131185 h -0.365591 l -0.02283,0.1509871 c -0.01249,0.08314 -0.03351,0.2242477 -0.04656,0.3136927 -0.05258,0.360299 -0.262183,1.1663336 -0.422963,1.6265869 -0.891122,2.5509564 -2.914454,4.7029211 -5.401783,5.7452048 -1.099662,0.460793 -2.158463,0.692552 -3.47448,0.760537 -0.96865,0.04992 -22.427517,0.0465 -23.167067,-0.0041 z"
         id="path3-3"
         sodipodi:nodetypes="cccccccccsccccscccccssccccccscccccsccssccsccsccsssccc" /></mask><inkscape:path-effect
       effect="powermask"
       id="path-effect3-5"
       is_visible="true"
       lpeversion="1"
       uri="#mask-powermask-path-effect3-5"
       invert="false"
       hide_mask="false"
       background="true"
       background_color="#ffffffff" /><filter
       id="mask-powermask-path-effect3_inverse-6"
       inkscape:label="filtermask-powermask-path-effect3"
       style="color-interpolation-filters:sRGB"
       height="100"
       width="100"
       x="-50"
       y="-50"><feColorMatrix
         id="mask-powermask-path-effect3_primitive1-2"
         values="1"
         type="saturate"
         result="fbSourceGraphic" /><feColorMatrix
         id="mask-powermask-path-effect3_primitive2-9"
         values="-1 0 0 0 1 0 -1 0 0 1 0 0 -1 0 1 0 0 0 1 0 "
         in="fbSourceGraphic" /></filter><mask
       maskUnits="userSpaceOnUse"
       id="mask-powermask-path-effect3-5"><path
         id="mask-powermask-path-effect3-5_box"
         style="fill:#ffffff;fill-opacity:1"
         d="M 16.077019,2.2157059 H 82.123825 V 68.262512 H 16.077019 Z" /><path
         id="path4"
         style="fill:#ffffff;fill-opacity:1"
         d="M 18.077019,4.2157059 H 80.123825 V 66.262512 H 18.077019 Z" /><path
         style="display:inline;fill:#000000;fill-opacity:1;stroke:none;stroke-width:4;stroke-dasharray:none;stroke-opacity:1"
         d="M 37.054799,10.506354 C 33.765899,10.282651 30.805169,8.4377567 29.190089,5.6057202 28.656384,4.6698546 28.247212,3.5618034 28.079574,2.598355 28.025094,2.2853264 27.974627,2.0062413 27.96742,1.9781584 27.959324,1.946546 27.74426,1.9173571 27.402101,1.9016568 26.950444,1.8809134 26.769863,1.849518 26.410368,1.7293284 24.997541,1.2568751 24.03192,0.15069719 23.811922,-1.2473347 c -0.03985,-0.252894 -0.05073,-1.4111552 -0.04007,-4.2288381 l 0.0141,-3.8805405 0.153403,-0.4414891 c 0.265782,-0.7648866 0.662397,-1.3411786 1.246219,-1.8108536 0.642607,-0.516923 1.458727,-0.826489 2.318253,-0.879295 l 0.464743,-0.02859 0.0302,-0.44149 c 0.164315,-2.408847 1.473685,-4.922178 3.455398,-6.632673 1.154485,-0.996483 2.566538,-1.749049 3.94363,-2.101757 1.236438,-0.316714 0.890635,-0.299239 6.466449,-0.326436 l 5.065614,-0.02477 v -1.765979 -1.765998 l -0.407678,-0.215953 c -0.979884,-0.519037 -1.651897,-1.232305 -2.146961,-2.278755 -0.354203,-0.748701 -0.420116,-1.056052 -0.416801,-1.943521 0.0027,-0.695954 0.0145,-0.805451 0.129164,-1.185077 0.435214,-1.441353 1.376225,-2.55615 2.685704,-3.181685 0.713229,-0.34069 1.161468,-0.438328 2.015522,-0.438952 0.61595,-5.24e-4 0.750503,0.0141 1.155816,0.125817 0.86174,0.237272 1.530593,0.615266 2.170531,1.226669 1.29881,1.240862 1.83475,3.191065 1.316352,4.789971 -0.424794,1.310176 -1.217078,2.246444 -2.481673,2.932615 l -0.327676,0.177762 -0.0037,1.157396 c -0.0021,0.636546 -0.0013,1.43447 0.0011,1.773146 l 0.0048,0.615791 h 4.837287 c 5.305536,0 5.473747,0.008 6.518243,0.277456 0.806709,0.208766 1.297149,0.393333 2.052087,0.772254 2.527983,1.268885 4.411358,3.541742 5.207863,6.284877 0.124936,0.430276 0.275711,1.28491 0.322106,1.825811 l 0.03033,0.353674 0.472999,0.02677 c 1.482275,0.08375 2.813378,0.989819 3.377993,2.29945 0.33137,0.7686305 0.324953,0.6703881 0.324588,4.969608 -5.29e-4,4.37584054 0.0113,4.22517621 -0.394557,5.06187337 C 72.783505,1.066555 71.380383,1.9131185 69.95534,1.9131185 h -0.365591 l -0.02283,0.1509871 c -0.01249,0.08314 -0.03351,0.2242477 -0.04656,0.3136927 -0.05258,0.360299 -0.262183,1.1663336 -0.422963,1.6265869 -0.891122,2.5509564 -2.914454,4.7029211 -5.401783,5.7452048 -1.099662,0.460793 -2.158463,0.692552 -3.47448,0.760537 -0.96865,0.04992 -22.427517,0.0465 -23.167067,-0.0041 z"
         id="path6"
         sodipodi:nodetypes="cccccccccsccccscccccssccccccscccccsccssccsccsccsssccc" /></mask><filter
       id="mask-powermask-path-effect3-5_inverse"
       inkscape:label="filtermask-powermask-path-effect3-5"
       style="color-interpolation-filters:sRGB"
       height="100"
       width="100"
       x="-50"
       y="-50"><feColorMatrix
         id="mask-powermask-path-effect3-5_primitive1"
         values="1"
         type="saturate"
         result="fbSourceGraphic" /><feColorMatrix
         id="mask-powermask-path-effect3-5_primitive2"
         values="-1 0 0 0 1 0 -1 0 0 1 0 0 -1 0 1 0 0 0 1 0 "
         in="fbSourceGraphic" /></filter><mask
       maskUnits="userSpaceOnUse"
       id="mask-powermask-path-effect3-5-6"><path
         id="mask-powermask-path-effect3-5-6_box"
         style="fill:#ffffff;fill-opacity:1"
         d="M 16.077019,2.2157059 H 82.123825 V 68.262512 H 16.077019 Z" /><path
         id="mask-powermask-path-effect3-5_box-0"
         style="fill:#ffffff;fill-opacity:1"
         d="M 16.077019,2.2157059 H 82.123825 V 68.262512 H 16.077019 Z" /><path
         id="path4-6"
         style="fill:#ffffff;fill-opacity:1"
         d="M 18.077019,4.2157059 H 80.123825 V 66.262512 H 18.077019 Z" /><path
         style="display:inline;fill:#000000;fill-opacity:1;stroke:none;stroke-width:4;stroke-dasharray:none;stroke-opacity:1"
         d="M 37.054799,10.506354 C 33.765899,10.282651 30.805169,8.4377567 29.190089,5.6057202 28.656384,4.6698546 28.247212,3.5618034 28.079574,2.598355 28.025094,2.2853264 27.974627,2.0062413 27.96742,1.9781584 27.959324,1.946546 27.74426,1.9173571 27.402101,1.9016568 26.950444,1.8809134 26.769863,1.849518 26.410368,1.7293284 24.997541,1.2568751 24.03192,0.15069719 23.811922,-1.2473347 c -0.03985,-0.252894 -0.05073,-1.4111552 -0.04007,-4.2288381 l 0.0141,-3.8805405 0.153403,-0.4414891 c 0.265782,-0.7648866 0.662397,-1.3411786 1.246219,-1.8108536 0.642607,-0.516923 1.458727,-0.826489 2.318253,-0.879295 l 0.464743,-0.02859 0.0302,-0.44149 c 0.164315,-2.408847 1.473685,-4.922178 3.455398,-6.632673 1.154485,-0.996483 2.566538,-1.749049 3.94363,-2.101757 1.236438,-0.316714 0.890635,-0.299239 6.466449,-0.326436 l 5.065614,-0.02477 v -1.765979 -1.765998 l -0.407678,-0.215953 c -0.979884,-0.519037 -1.651897,-1.232305 -2.146961,-2.278755 -0.354203,-0.748701 -0.420116,-1.056052 -0.416801,-1.943521 0.0027,-0.695954 0.0145,-0.805451 0.129164,-1.185077 0.435214,-1.441353 1.376225,-2.55615 2.685704,-3.181685 0.713229,-0.34069 1.161468,-0.438328 2.015522,-0.438952 0.61595,-5.24e-4 0.750503,0.0141 1.155816,0.125817 0.86174,0.237272 1.530593,0.615266 2.170531,1.226669 1.29881,1.240862 1.83475,3.191065 1.316352,4.789971 -0.424794,1.310176 -1.217078,2.246444 -2.481673,2.932615 l -0.327676,0.177762 -0.0037,1.157396 c -0.0021,0.636546 -0.0013,1.43447 0.0011,1.773146 l 0.0048,0.615791 h 4.837287 c 5.305536,0 5.473747,0.008 6.518243,0.277456 0.806709,0.208766 1.297149,0.393333 2.052087,0.772254 2.527983,1.268885 4.411358,3.541742 5.207863,6.284877 0.124936,0.430276 0.275711,1.28491 0.322106,1.825811 l 0.03033,0.353674 0.472999,0.02677 c 1.482275,0.08375 2.813378,0.989819 3.377993,2.29945 0.33137,0.7686305 0.324953,0.6703881 0.324588,4.969608 -5.29e-4,4.37584054 0.0113,4.22517621 -0.394557,5.06187337 C 72.783505,1.066555 71.380383,1.9131185 69.95534,1.9131185 h -0.365591 l -0.02283,0.1509871 c -0.01249,0.08314 -0.03351,0.2242477 -0.04656,0.3136927 -0.05258,0.360299 -0.262183,1.1663336 -0.422963,1.6265869 -0.891122,2.5509564 -2.914454,4.7029211 -5.401783,5.7452048 -1.099662,0.460793 -2.158463,0.692552 -3.47448,0.760537 -0.96865,0.04992 -22.427517,0.0465 -23.167067,-0.0041 z"
         id="path6-2"
         sodipodi:nodetypes="cccccccccsccccscccccssccccccscccccsccssccsccsccsssccc" /></mask><inkscape:path-effect
       effect="powermask"
       id="path-effect3-5-6"
       is_visible="true"
       lpeversion="1"
       uri="#mask-powermask-path-effect3-5-6"
       invert="false"
       hide_mask="false"
       background="true"
       background_color="#ffffffff" /><filter
       id="mask-powermask-path-effect3-5_inverse-1"
       inkscape:label="filtermask-powermask-path-effect3-5"
       style="color-interpolation-filters:sRGB"
       height="100"
       width="100"
       x="-50"
       y="-50"><feColorMatrix
         id="mask-powermask-path-effect3-5_primitive1-8"
         values="1"
         type="saturate"
         result="fbSourceGraphic" /><feColorMatrix
         id="mask-powermask-path-effect3-5_primitive2-7"
         values="-1 0 0 0 1 0 -1 0 0 1 0 0 -1 0 1 0 0 0 1 0 "
         in="fbSourceGraphic" /></filter><filter
       id="mask-powermask-path-effect3-5-6_inverse"
       inkscape:label="filtermask-powermask-path-effect3-5-6"
       style="color-interpolation-filters:sRGB"
       height="100"
       width="100"
       x="-50"
       y="-50"><feColorMatrix
         id="mask-powermask-path-effect3-5-6_primitive1"
         values="1"
         type="saturate"
         result="fbSourceGraphic" /><feColorMatrix
         id="mask-powermask-path-effect3-5-6_primitive2"
         values="-1 0 0 0 1 0 -1 0 0 1 0 0 -1 0 1 0 0 0 1 0 "
         in="fbSourceGraphic" /></filter><mask
       maskUnits="userSpaceOnUse"
       id="mask-powermask-path-effect20"><path
         id="path24"
         style="fill:#ffffff;fill-opacity:1"
         d="M -1,-1 H 101 V 82.346303 H -1 Z" /><g
         id="g26"
         inkscape:label="Mask Bubble"><path
           style="display:inline;fill:#000000;fill-opacity:1;stroke:#000000;stroke-width:4;stroke-dasharray:none;stroke-opacity:1"
           d="m 37.054799,10.506355 c -3.2889,-0.223703 -6.249631,-2.0685988 -7.86471,-4.9006348 -0.533705,-0.935866 -0.942877,-2.043918 -1.110514,-3.007364 -0.05448,-0.313029 -0.104947,-0.592116 -0.112155,-0.620199 -0.0081,-0.03161 -0.22316,-0.0608 -0.56532,-0.0765 -0.451656,-0.02074 -0.632238,-0.05214 -0.991731,-0.172328 -1.412827,-0.472453 -2.378448,-1.57863295 -2.598448,-2.976664 -0.03985,-0.252895 -0.05073,-1.411156 -0.04007,-4.228839 l 0.0141,-3.880539 0.153403,-0.44149 c 0.265781,-0.7648862 0.662397,-1.3411782 1.246219,-1.8108532 0.642605,-0.516923 1.458727,-0.826489 2.318253,-0.879295 l 0.464742,-0.02859 0.0302,-0.44149 c 0.164315,-2.408847 1.473683,-4.922178 3.455398,-6.632673 1.154485,-0.996483 2.566537,-1.749049 3.943629,-2.101757 1.236438,-0.316714 0.890637,-0.299239 6.466448,-0.326436 l 5.065616,-0.02477 v -1.765979 -1.765998 l -0.407678,-0.215953 c -0.979884,-0.519037 -1.651897,-1.232305 -2.146961,-2.278755 -0.354204,-0.748701 -0.420116,-1.056052 -0.416802,-1.943521 0.0027,-0.695954 0.01449,-0.805451 0.129166,-1.185077 0.435211,-1.441353 1.376224,-2.55615 2.685702,-3.181685 0.713229,-0.34069 1.161468,-0.438328 2.015523,-0.438952 0.615949,-5.25e-4 0.750502,0.0141 1.155815,0.125817 0.861739,0.237272 1.530593,0.615266 2.170532,1.226669 1.29881,1.240862 1.83475,3.191065 1.31635,4.789971 -0.424793,1.310176 -1.217077,2.246444 -2.481672,2.932615 l -0.327675,0.177762 -0.0037,1.157396 c -0.002,0.636546 -0.0014,1.43447 0.0011,1.773146 l 0.0048,0.615791 h 4.837287 c 5.305537,0 5.47375,0.008 6.518245,0.277456 0.806708,0.208766 1.297149,0.393333 2.052087,0.772254 2.527981,1.268885 4.411358,3.541742 5.207862,6.284877 0.124937,0.430276 0.275712,1.28491 0.322106,1.825811 l 0.03033,0.353674 0.472997,0.02677 c 1.482277,0.08375 2.813378,0.989819 3.377995,2.29945 0.33137,0.7686312 0.324952,0.6703882 0.324589,4.9696082 -5.25e-4,4.37584105 0.0113,4.22517505 -0.394559,5.06187205 -0.589736,1.21560395 -1.99286,2.06216495 -3.417902,2.06216495 h -0.365591 l -0.02283,0.150988 c -0.01248,0.08314 -0.03351,0.224248 -0.04656,0.313694 -0.05258,0.360298 -0.262184,1.166334 -0.422963,1.626586 -0.891123,2.550957 -2.914455,4.702922 -5.401783,5.745204 -1.099662,0.4607948 -2.158464,0.6925528 -3.474481,0.7605368 -0.96865,0.04992 -22.427516,0.0465 -23.167066,-0.0041 z"
           id="path25"
           sodipodi:nodetypes="cccccccccsccccscccccssccccccscccccsccssccsccsccsssccc" /><path
           style="fill:none;fill-opacity:0;stroke:#000000;stroke-width:10;stroke-linejoin:round;stroke-dasharray:none;stroke-opacity:1"
           id="path26"
           mask="url(#mask-powermask-path-effect3-5)"
           inkscape:path-effect="#path-effect3-5"
           sodipodi:type="arc"
           sodipodi:cx="49.100422"
           sodipodi:cy="35.239109"
           sodipodi:rx="27.023403"
           sodipodi:ry="27.023403"
           d="M 76.123825,35.239109 A 27.023403,27.023403 0 0 1 49.100422,62.262512 27.023403,27.023403 0 0 1 22.077019,35.239109 27.023403,27.023403 0 0 1 49.100422,8.2157059 27.023403,27.023403 0 0 1 76.123825,35.239109 Z"
           transform="translate(-1.8737793e-5,-3.8887158e-4)" /><rect
           style="fill:#000000;fill-opacity:1;stroke:#000000;stroke-width:4;stroke-linejoin:round;stroke-dasharray:none;stroke-opacity:1"
           id="rect26"
           width="35"
           height="6"
           x="86.701859"
           y="-13.49745"
           transform="rotate(45.333188)"
           ry="3" /></g></mask><mask
       maskUnits="userSpaceOnUse"
       id="mask-powermask-path-effect22"><path
         id="path27"
         style="fill:#ffffff;fill-opacity:1"
         d="M 7.2498079,12.882177 H 92.750192 V 56.751894 H 7.2498079 Z" /><g
         id="g28"
         inkscape:label="Mask Lines"><path
           style="fill:#000000;fill-opacity:1;stroke:#000000;stroke-width:10;stroke-linejoin:round;stroke-dasharray:none;stroke-opacity:1"
           id="path28"
           mask="url(#mask-powermask-path-effect3-5-6)"
           inkscape:path-effect="#path-effect3-5-6"
           sodipodi:type="arc"
           sodipodi:cx="49.100422"
           sodipodi:cy="35.239109"
           sodipodi:rx="27.023403"
           sodipodi:ry="27.023403"
           d="M 76.123825,35.239109 A 27.023403,27.023403 0 0 1 49.100422,62.262512 27.023403,27.023403 0 0 1 22.077019,35.239109 27.023403,27.023403 0 0 1 49.100422,8.2157059 27.023403,27.023403 0 0 1 76.123825,35.239109 Z"
           transform="translate(-1.8677083e-5,-3.8783333e-4)"
           inkscape:label="Ring" /><rect
           style="fill:#000000;fill-opacity:1;stroke:#000000;stroke-width:4;stroke-linejoin:round;stroke-dasharray:none;stroke-opacity:1"
           id="rect28"
           width="35"
           height="6"
           x="86.70253"
           y="-13.497453"
           transform="rotate(45.333188)"
           ry="3" /></g></mask><mask
       maskUnits="userSpaceOnUse"
       id="mask-powermask-path-effect24"><path
         id="path29"
         style="fill:#ffffff;fill-opacity:1"
         d="M 18.077019,4.2157059 H 80.123825 V 66.262512 H 18.077019 Z" /><path
         style="display:inline;fill:#000000;fill-opacity:1;stroke:none;stroke-width:4;stroke-dasharray:none;stroke-opacity:1"
         d="M 37.054799,10.506354 C 33.765899,10.282651 30.805169,8.4377567 29.190089,5.6057202 28.656384,4.6698546 28.247212,3.5618034 28.079574,2.598355 28.025094,2.2853264 27.974627,2.0062413 27.96742,1.9781584 27.959324,1.946546 27.74426,1.9173571 27.402101,1.9016568 26.950444,1.8809134 26.769863,1.849518 26.410368,1.7293284 24.997541,1.2568751 24.03192,0.15069719 23.811922,-1.2473347 c -0.03985,-0.252894 -0.05073,-1.4111552 -0.04007,-4.2288381 l 0.0141,-3.8805405 0.153403,-0.4414891 c 0.265782,-0.7648866 0.662397,-1.3411786 1.246219,-1.8108536 0.642607,-0.516923 1.458727,-0.826489 2.318253,-0.879295 l 0.464743,-0.02859 0.0302,-0.44149 c 0.164315,-2.408847 1.473685,-4.922178 3.455398,-6.632673 1.154485,-0.996483 2.566538,-1.749049 3.94363,-2.101757 1.236438,-0.316714 0.890635,-0.299239 6.466449,-0.326436 l 5.065614,-0.02477 v -1.765979 -1.765998 l -0.407678,-0.215953 c -0.979884,-0.519037 -1.651897,-1.232305 -2.146961,-2.278755 -0.354203,-0.748701 -0.420116,-1.056052 -0.416801,-1.943521 0.0027,-0.695954 0.0145,-0.805451 0.129164,-1.185077 0.435214,-1.441353 1.376225,-2.55615 2.685704,-3.181685 0.713229,-0.34069 1.161468,-0.438328 2.015522,-0.438952 0.61595,-5.24e-4 0.750503,0.0141 1.155816,0.125817 0.86174,0.237272 1.530593,0.615266 2.170531,1.226669 1.29881,1.240862 1.83475,3.191065 1.316352,4.789971 -0.424794,1.310176 -1.217078,2.246444 -2.481673,2.932615 l -0.327676,0.177762 -0.0037,1.157396 c -0.0021,0.636546 -0.0013,1.43447 0.0011,1.773146 l 0.0048,0.615791 h 4.837287 c 5.305536,0 5.473747,0.008 6.518243,0.277456 0.806709,0.208766 1.297149,0.393333 2.052087,0.772254 2.527983,1.268885 4.411358,3.541742 5.207863,6.284877 0.124936,0.430276 0.275711,1.28491 0.322106,1.825811 l 0.03033,0.353674 0.472999,0.02677 c 1.482275,0.08375 2.813378,0.989819 3.377993,2.29945 0.33137,0.7686305 0.324953,0.6703881 0.324588,4.969608 -5.29e-4,4.37584054 0.0113,4.22517621 -0.394557,5.06187337 C 72.783505,1.066555 71.380383,1.9131185 69.95534,1.9131185 h -0.365591 l -0.02283,0.1509871 c -0.01249,0.08314 -0.03351,0.2242477 -0.04656,0.3136927 -0.05258,0.360299 -0.262183,1.1663336 -0.422963,1.6265869 -0.891122,2.5509564 -2.914454,4.7029211 -5.401783,5.7452048 -1.099662,0.460793 -2.158463,0.692552 -3.47448,0.760537 -0.96865,0.04992 -22.427517,0.0465 -23.167067,-0.0041 z"
         id="path30"
         sodipodi:nodetypes="cccccccccsccccscccccssccccccscccccsccssccsccsccsssccc" /></mask><mask
       maskUnits="userSpaceOnUse"
       id="mask-powermask-path-effect31"><path
         id="mask-powermask-path-effect31_box"
         style="fill:#ffffff;fill-opacity:1"
         d="M 18.077019,4.2157059 H 80.123825 V 66.262512 H 18.077019 Z" /></mask><filter
       id="mask-powermask-path-effect31_inverse"
       inkscape:label="filtermask-powermask-path-effect31"
       style="color-interpolation-filters:sRGB"
       height="100"
       width="100"
       x="-50"
       y="-50"><feColorMatrix
         id="mask-powermask-path-effect31_primitive1"
         values="1"
         type="saturate"
         result="fbSourceGraphic" /><feColorMatrix
         id="mask-powermask-path-effect31_primitive2"
         values="-1 0 0 0 1 0 -1 0 0 1 0 0 -1 0 1 0 0 0 1 0 "
         in="fbSourceGraphic" /></filter><mask
       maskUnits="userSpaceOnUse"
       id="mask-powermask-path-effect13"><g
         id="g9"
         inkscape:label="Mask Bubble"
         style=""><path
           style="display:inline;fill:#000000;fill-opacity:1;stroke:#000000;stroke-width:4;stroke-dasharray:none;stroke-opacity:1"
           d="m 37.054799,10.506355 c -3.2889,-0.223703 -6.249631,-2.0685988 -7.86471,-4.9006348 -0.533705,-0.935866 -0.942877,-2.043918 -1.110514,-3.007364 -0.05448,-0.313029 -0.104947,-0.592116 -0.112155,-0.620199 -0.0081,-0.03161 -0.22316,-0.0608 -0.56532,-0.0765 -0.451656,-0.02074 -0.632238,-0.05214 -0.991731,-0.172328 -1.412827,-0.472453 -2.378448,-1.57863295 -2.598448,-2.976664 -0.03985,-0.252895 -0.05073,-1.411156 -0.04007,-4.228839 l 0.0141,-3.880539 0.153403,-0.44149 c 0.265781,-0.7648862 0.662397,-1.3411782 1.246219,-1.8108532 0.642605,-0.516923 1.458727,-0.826489 2.318253,-0.879295 l 0.464742,-0.02859 0.0302,-0.44149 c 0.164315,-2.408847 1.473683,-4.922178 3.455398,-6.632673 1.154485,-0.996483 2.566537,-1.749049 3.943629,-2.101757 1.236438,-0.316714 0.890637,-0.299239 6.466448,-0.326436 l 5.065616,-0.02477 v -1.765979 -1.765998 l -0.407678,-0.215953 c -0.979884,-0.519037 -1.651897,-1.232305 -2.146961,-2.278755 -0.354204,-0.748701 -0.420116,-1.056052 -0.416802,-1.943521 0.0027,-0.695954 0.01449,-0.805451 0.129166,-1.185077 0.435211,-1.441353 1.376224,-2.55615 2.685702,-3.181685 0.713229,-0.34069 1.161468,-0.438328 2.015523,-0.438952 0.615949,-5.25e-4 0.750502,0.0141 1.155815,0.125817 0.861739,0.237272 1.530593,0.615266 2.170532,1.226669 1.29881,1.240862 1.83475,3.191065 1.31635,4.789971 -0.424793,1.310176 -1.217077,2.246444 -2.481672,2.932615 l -0.327675,0.177762 -0.0037,1.157396 c -0.002,0.636546 -0.0014,1.43447 0.0011,1.773146 l 0.0048,0.615791 h 4.837287 c 5.305537,0 5.47375,0.008 6.518245,0.277456 0.806708,0.208766 1.297149,0.393333 2.052087,0.772254 2.527981,1.268885 4.411358,3.541742 5.207862,6.284877 0.124937,0.430276 0.275712,1.28491 0.322106,1.825811 l 0.03033,0.353674 0.472997,0.02677 c 1.482277,0.08375 2.813378,0.989819 3.377995,2.29945 0.33137,0.7686312 0.324952,0.6703882 0.324589,4.9696082 -5.25e-4,4.37584105 0.0113,4.22517505 -0.394559,5.06187205 -0.589736,1.21560395 -1.99286,2.06216495 -3.417902,2.06216495 h -0.365591 l -0.02283,0.150988 c -0.01248,0.08314 -0.03351,0.224248 -0.04656,0.313694 -0.05258,0.360298 -0.262184,1.166334 -0.422963,1.626586 -0.891123,2.550957 -2.914455,4.702922 -5.401783,5.745204 -1.099662,0.4607948 -2.158464,0.6925528 -3.474481,0.7605368 -0.96865,0.04992 -22.427516,0.0465 -23.167066,-0.0041 z"
           id="path5"
           sodipodi:nodetypes="cccccccccsccccscccccssccccccscccccsccssccsccsccsssccc" /><path
           style="fill:none;fill-opacity:0;stroke:#000000;stroke-width:10;stroke-linejoin:round;stroke-dasharray:none;stroke-opacity:1"
           id="path8"
           mask="url(#mask-powermask-path-effect3-5)"
           inkscape:path-effect="#path-effect3-5"
           sodipodi:type="arc"
           sodipodi:cx="49.100422"
           sodipodi:cy="35.239109"
           sodipodi:rx="27.023403"
           sodipodi:ry="27.023403"
           d="M 76.123825,35.239109 A 27.023403,27.023403 0 0 1 49.100422,62.262512 27.023403,27.023403 0 0 1 22.077019,35.239109 27.023403,27.023403 0 0 1 49.100422,8.2157059 27.023403,27.023403 0 0 1 76.123825,35.239109 Z"
           transform="translate(-1.8737793e-5,-3.8887158e-4)" /></g></mask><mask
       maskUnits="userSpaceOnUse"
       id="mask-powermask-path-effect16"><g
         id="g13"
         inkscape:label="Mask Lines"
         style=""><path
           style="fill:#000000;fill-opacity:1;stroke:#000000;stroke-width:10;stroke-linejoin:round;stroke-dasharray:none;stroke-opacity:1"
           id="path13"
           mask="url(#mask-powermask-path-effect3-5-6)"
           inkscape:path-effect="#path-effect3-5-6"
           sodipodi:type="arc"
           sodipodi:cx="49.100422"
           sodipodi:cy="35.239109"
           sodipodi:rx="27.023403"
           sodipodi:ry="27.023403"
           d="M 76.123825,35.239109 A 27.023403,27.023403 0 0 1 49.100422,62.262512 27.023403,27.023403 0 0 1 22.077019,35.239109 27.023403,27.023403 0 0 1 49.100422,8.2157059 27.023403,27.023403 0 0 1 76.123825,35.239109 Z"
           transform="translate(-1.8677083e-5,-3.8783333e-4)"
           inkscape:label="Ring" /></g></mask><inkscape:path-effect
       effect="fill_between_many"
       method="bsplinespiro"
       autoreverse="false"
       close="false"
       join="false"
       linkedpaths="#path17,0,1"
       id="path-effect18" /><inkscape:path-effect
       effect="fill_between_many"
       method="bsplinespiro"
       autoreverse="false"
       close="false"
       join="false"
       linkedpaths="#path18,0,1"
       id="path-effect23" /><inkscape:path-effect
       effect="fill_between_many"
       method="bsplinespiro"
       autoreverse="false"
       close="false"
       join="false"
       linkedpaths="#path23,0,1"
       id="path-effect26" /><inkscape:path-effect
       effect="fill_between_many"
       method="bsplinespiro"
       autoreverse="false"
       close="false"
       join="false"
       linkedpaths="#path32,0,1"
       id="path-effect33" /><inkscape:path-effect
       effect="fill_between_many"
       method="bsplinespiro"
       autoreverse="false"
       close="false"
       join="false"
       linkedpaths="#path33,0,1"
       id="path-effect35" /><mask
       maskUnits="userSpaceOnUse"
       id="mask-powermask-path-effect44"><path
         id="mask-powermask-path-effect44_box"
         style="fill:#ffffff;fill-opacity:1"
         d="M 18.077019,4.2157059 H 80.123825 V 66.262512 H 18.077019 Z" /><path
         id="path46"
         style="fill:#ffffff;fill-opacity:1"
         d="M 18.077019,4.2157059 H 80.123825 V 66.262512 H 18.077019 Z" /><path
         style="display:inline;fill:#000000;fill-opacity:1;stroke:none;stroke-width:4;stroke-dasharray:none;stroke-opacity:1"
         d="M 37.054799,9.4480206 C 33.765899,9.224318 30.805169,8.4377567 29.190089,5.6057202 28.656384,4.6698546 28.247212,3.5618034 28.079574,2.598355 28.025094,2.2853264 27.974627,2.0062413 27.96742,1.9781584 27.959324,1.946546 27.74426,1.9173571 27.402101,1.9016568 26.950444,1.8809134 26.769863,1.849518 26.410368,1.7293284 24.997541,1.2568751 24.03192,0.15069719 23.811922,-1.2473347 c -0.03985,-0.252894 -0.05073,-1.4111552 -0.04007,-4.2288381 l 0.0141,-3.8805405 0.153402,-0.4414891 c 0.265782,-0.7648866 0.662398,-1.3411786 1.24622,-1.8108536 0.642606,-0.516923 1.458727,-0.826489 2.318252,-0.879295 l 0.464744,-0.02859 0.0302,-0.44149 c 0.164314,-2.408847 1.473684,-4.922178 3.455398,-6.632673 1.154485,-0.996483 2.566537,-1.749049 3.94363,-2.101757 1.236438,-0.316714 0.890635,-0.299239 6.466448,-0.326436 l 5.065615,-0.02477 v -1.765979 -1.765998 l -0.407678,-0.215953 c -0.979884,-0.519037 -1.651897,-1.232305 -2.146961,-2.278755 -0.354203,-0.748701 -0.420116,-1.056052 -0.416801,-1.943521 0.0027,-0.695954 0.0145,-0.805451 0.129164,-1.185077 0.435213,-1.441353 1.376225,-2.55615 2.685704,-3.181685 0.713229,-0.34069 1.161467,-0.438328 2.015521,-0.438952 0.61595,-5.24e-4 0.750504,0.0141 1.155817,0.125817 0.86174,0.237272 1.530593,0.615266 2.17053,1.226669 1.298811,1.240862 1.834751,3.191065 1.316353,4.789971 -0.424794,1.310176 -1.217078,2.246444 -2.481673,2.932615 l -0.327676,0.177762 -0.0037,1.157396 c -0.0021,0.636546 -0.0013,1.43447 0.0011,1.773146 l 0.0048,0.615791 h 4.837287 c 5.305536,0 5.473748,0.008 6.518244,0.277456 0.806709,0.208766 1.297149,0.393333 2.052087,0.772254 2.527982,1.268885 4.411358,3.541742 5.207862,6.284877 0.124937,0.430276 0.275712,1.28491 0.322107,1.825811 l 0.03033,0.353674 0.473001,0.02677 c 1.482275,0.08375 2.813378,0.989819 3.377991,2.29945 0.331372,0.7686305 0.324953,0.6703881 0.324588,4.969608 -5.29e-4,4.37584054 0.0113,4.22517621 -0.394555,5.06187337 C 72.783452,1.066555 71.38033,1.9131185 69.955287,1.9131185 h -0.365591 l -0.02283,0.1509871 c -0.01249,0.08314 -0.03351,0.2242477 -0.04656,0.3136927 -0.05258,0.360299 -0.262184,1.1663336 -0.422963,1.6265869 -0.891122,2.5509564 -2.914454,3.6445878 -5.401784,4.6868715 -1.099661,0.460793 -2.158463,0.6925522 -3.474479,0.7605368 -0.96865,0.049919 -22.427517,0.046501 -23.167067,-0.0041 z"
         id="path47"
         sodipodi:nodetypes="cccccccccsccccscccccssccccccscccccsccssccsccsccsssccc" /></mask><filter
       id="mask-powermask-path-effect44_inverse"
       inkscape:label="filtermask-powermask-path-effect44"
       style="color-interpolation-filters:sRGB"
       height="100"
       width="100"
       x="-50"
       y="-50"><feColorMatrix
         id="mask-powermask-path-effect44_primitive1"
         values="1"
         type="saturate"
         result="fbSourceGraphic" /><feColorMatrix
         id="mask-powermask-path-effect44_primitive2"
         values="-1 0 0 0 1 0 -1 0 0 1 0 0 -1 0 1 0 0 0 1 0 "
         in="fbSourceGraphic" /></filter><mask
       maskUnits="userSpaceOnUse"
       id="mask-powermask-path-effect46"><path
         id="mask-powermask-path-effect46_box"
         style="fill:#ffffff;fill-opacity:1"
         d="M 23.505174,-39.27659 H 74.031577 V -8.9112912 H 23.505174 Z" /><path
         id="path48"
         style="fill:#ffffff;fill-opacity:1"
         d="M 23.505174,-39.27659 H 74.031577 V -8.9112912 H 23.505174 Z" /><path
         style="display:inline;opacity:1;fill:#000000;stroke-width:0.0464735"
         d="M 37.055218,10.506687 C 33.76632,10.282984 30.805587,8.4380867 29.19051,5.6060502 28.656803,4.6701846 28.247633,3.5621334 28.079995,2.5986876 28.025515,2.2856591 27.975048,2.0065713 27.967841,1.9784884 27.959741,1.9468814 27.744681,1.9176894 27.402519,1.9019864 26.950865,1.8812434 26.770281,1.8498444 26.410789,1.729658 24.997962,1.2572047 24.032341,0.15102679 23.81234,-1.2470051 23.77249,-1.4998991 23.76161,-2.6581603 23.77227,-5.4758432 l 0.0141,-3.8805405 c 1.593509,-0.013123 3.339955,-0.1759162 3.339955,-0.1759162 l -0.02016,-3.3512491 0.893027,-0.07455 c 0.164314,-2.408847 1.473681,-4.922178 3.455397,-6.632673 1.154486,-0.996483 2.566538,-1.749049 3.943628,-2.101757 1.236438,-0.316714 0.890638,-0.299239 6.466448,-0.326436 l 5.065618,-0.02477 v -1.765979 -1.765998 l -0.407678,-0.215953 c -0.979885,-0.519037 -1.651897,-1.232305 -2.146962,-2.278755 -0.354205,-0.748701 -0.420116,-1.056052 -0.416803,-1.943521 0.0027,-0.695954 0.0145,-0.805451 0.129167,-1.185077 0.43521,-1.441353 1.376225,-2.55615 2.685701,-3.181685 0.713229,-0.34069 1.161467,-0.438328 2.015524,-0.438952 0.61595,-5.29e-4 0.750501,0.0141 1.155814,0.125817 0.86174,0.237272 1.530593,0.615266 2.170533,1.226669 1.29881,1.240862 1.83475,3.191065 1.31635,4.789971 -0.424794,1.310176 -1.217078,2.246444 -2.481673,2.932615 l -0.327673,0.177762 -0.0037,1.157396 c -0.0021,0.636546 -0.0013,1.43447 0.0011,1.773146 l 0.0048,0.615791 h 4.837287 c 5.305536,0 5.47375,0.008 6.518246,0.277456 0.806709,0.208766 1.297149,0.393333 2.052087,0.772254 2.52798,1.268885 4.411358,3.541742 5.20786,6.284877 0.124939,0.430276 -0.181922,1.624114 0.322106,1.825812 l 0.864106,0.205859 -0.04252,1.665253 c 0,0 2.434749,0.02572 2.693403,0.477697 0.772139,1.3492926 0.69083,3.2850213 0.690922,5.3006912 -5.29e-4,4.37584323 0.0113,4.22517625 -0.39456,5.06187342 C 72.783985,1.0668889 71.38086,1.9134498 69.955822,1.9134498 h -0.365593 l -0.02283,0.1509871 c -0.01249,0.083143 -0.03351,0.2242476 -0.04656,0.3136926 -0.05258,0.360299 -0.262186,1.1663363 -0.422966,1.6265869 -0.891121,2.5509591 -2.914454,4.7029238 -5.40178,5.7452049 -1.099664,0.4607957 -2.158466,0.6925527 -3.474482,0.7605377 -0.968651,0.04992 -22.427515,0.0465 -23.167065,-0.0041 z"
         id="path49"
         sodipodi:nodetypes="cscsscccccccscccccssccccccscccccsccssccsccsccsssccc"
         inkscape:label="Mask Ohrhörer" /></mask><filter
       id="mask-powermask-path-effect46_inverse"
       inkscape:label="filtermask-powermask-path-effect46"
       style="color-interpolation-filters:sRGB"
       height="100"
       width="100"
       x="-50"
       y="-50"><feColorMatrix
         id="mask-powermask-path-effect46_primitive1"
         values="1"
         type="saturate"
         result="fbSourceGraphic" /><feColorMatrix
         id="mask-powermask-path-effect46_primitive2"
         values="-1 0 0 0 1 0 -1 0 0 1 0 0 -1 0 1 0 0 0 1 0 "
         in="fbSourceGraphic" /></filter><mask
       maskUnits="userSpaceOnUse"
       id="mask-powermask-path-effect1"><path
         id="mask-powermask-path-effect1_box"
         style="fill:#ffffff;fill-opacity:1"
         d="M 23.205169,-39.575617 H 74.331585 V -8.6112935 H 23.205169 Z" /><path
         style="display:inline;opacity:1;fill:#000000;fill-opacity:1;stroke-width:0.0464735"
         d="M 37.055218,10.506688 C 33.76632,10.282983 30.805587,8.4380855 29.19051,5.606049 28.656803,4.6701833 28.247633,3.5621321 28.079995,2.5986863 28.025515,2.2856578 27.975049,2.00657 27.967841,1.9784871 27.959745,1.9468826 27.744681,1.9176885 27.402519,1.9019855 26.950865,1.8812422 26.770282,1.8498441 26.41079,1.7296571 24.997962,1.2572039 24.032341,0.15102592 23.81234,-1.247006 23.772489,-1.4999 23.761609,-2.6581612 23.772269,-5.475844 l 0.0141,-3.8805406 c 1.593511,-0.013123 3.609363,-0.1511115 3.609363,-0.1511115 l 0.0099,-3.8572359 0.64004,0.0039 c 0.257247,-2.377868 1.659546,-4.767289 3.408931,-6.229966 1.169988,-0.978236 2.566538,-1.74905 3.943628,-2.101758 1.236438,-0.316714 0.890638,-0.299238 6.466449,-0.326435 l 5.065617,-0.02476 v -1.76598 -1.765997 l -0.407678,-0.215953 c -0.979884,-0.519037 -1.651897,-1.232305 -2.146961,-2.278755 -0.354206,-0.748701 -0.420116,-1.056052 -0.416804,-1.943521 0.0027,-0.695954 0.0145,-0.805451 0.129167,-1.185077 0.435211,-1.441353 1.376225,-2.55615 2.685701,-3.181685 0.713229,-0.34069 1.161468,-0.438328 2.015524,-0.438952 0.61595,-5.29e-4 0.750501,0.0141 1.155814,0.125817 0.86174,0.237272 1.530593,0.615266 2.170533,1.226669 1.298811,1.240862 1.834751,3.191065 1.31635,4.789971 -0.424794,1.310176 -1.217078,2.246444 -2.481673,2.932615 l -0.327673,0.177762 -0.0037,1.157397 c -0.0021,0.636545 -0.0013,1.43447 0.0011,1.773144 l 0.0048,0.615792 h 4.837287 c 5.305536,0 5.473747,0.008 6.518246,0.277455 0.806709,0.208767 1.297149,0.393335 2.052087,0.772255 2.52798,1.268884 4.440512,3.533445 5.20786,6.284876 0.279826,1.003358 0.27958,1.655712 0.27958,1.655712 l 0.61102,0.04772 0.0086,1.94034 c 0,0 2.679272,0.07888 2.937926,0.530852 0.772139,1.349293 0.69083,3.2850217 0.690919,5.3006916 -5.29e-4,4.37584321 0.0113,4.22517623 -0.394559,5.0618734 -0.58978,1.2156308 -1.992906,2.0621916 -3.417943,2.0621916 h -0.365594 l -0.02283,0.1509871 c -0.01249,0.083143 -0.03351,0.2242476 -0.04656,0.3136927 -0.05258,0.360299 -0.262186,1.1663362 -0.422966,1.6265869 -0.891122,2.550959 -2.914454,4.7029237 -5.401781,5.7452048 -1.099663,0.4607959 -2.158465,0.6925519 -3.474481,0.7605369 -0.968651,0.04992 -22.427515,0.0465 -23.167065,-0.0041 z"
         id="path1-5"
         sodipodi:nodetypes="cscsscccccccscccccssccccccscccccsccscccsccsccsssccc"
         inkscape:label="Mask Ohrhörer" /></mask><inkscape:path-effect
       effect="powermask"
       id="path-effect1-6"
       is_visible="true"
       lpeversion="1"
       uri="#mask-powermask-path-effect1-6"
       invert="false"
       hide_mask="false"
       background="true"
       background_color="#ffffffff" /><filter
       id="mask-powermask-path-effect1_inverse"
       inkscape:label="filtermask-powermask-path-effect1"
       style="color-interpolation-filters:sRGB"
       height="100"
       width="100"
       x="-50"
       y="-50"><feColorMatrix
         id="mask-powermask-path-effect1_primitive1"
         values="1"
         type="saturate"
         result="fbSourceGraphic" /><feColorMatrix
         id="mask-powermask-path-effect1_primitive2"
         values="-1 0 0 0 1 0 -1 0 0 1 0 0 -1 0 1 0 0 0 1 0 "
         in="fbSourceGraphic" /></filter><mask
       maskUnits="userSpaceOnUse"
       id="mask-powermask-path-effect1-6"><path
         id="mask-powermask-path-effect1-6_box"
         style="fill:#ffffff;fill-opacity:1"
         d="M 23.205169,-39.575617 H 74.331585 V -8.6112935 H 23.205169 Z" /><path
         id="path2"
         style="fill:#ffffff;fill-opacity:1"
         d="M 23.205169,-39.575617 H 74.331585 V -8.6112935 H 23.205169 Z" /><path
         style="display:inline;opacity:1;fill:#000000;fill-opacity:1;stroke-width:0.0464735"
         d="M 37.055218,10.506688 C 33.76632,10.282983 30.805587,8.4380855 29.19051,5.606049 28.656803,4.6701833 28.247633,3.5621321 28.079995,2.5986863 28.025515,2.2856578 27.975049,2.00657 27.967841,1.9784871 27.959745,1.9468826 27.744681,1.9176885 27.402519,1.9019855 26.950865,1.8812422 26.770282,1.8498441 26.41079,1.7296571 24.997962,1.2572039 24.032341,0.15102592 23.81234,-1.247006 23.772489,-1.4999 23.761609,-2.6581612 23.772269,-5.475844 l 0.0141,-3.8805406 c 1.593511,-0.013123 3.609363,-0.1511115 3.609363,-0.1511115 l 0.0099,-3.8572359 0.64004,0.0039 c 0.257247,-2.377868 1.659546,-4.767289 3.408931,-6.229966 1.169988,-0.978236 2.566538,-1.74905 3.943628,-2.101758 1.236438,-0.316714 0.890638,-0.299238 6.466449,-0.326435 l 5.065617,-0.02476 v -1.76598 -1.765997 l -0.407678,-0.215953 c -0.979884,-0.519037 -1.651897,-1.232305 -2.146961,-2.278755 -0.354206,-0.748701 -0.420116,-1.056052 -0.416804,-1.943521 0.0027,-0.695954 0.0145,-0.805451 0.129167,-1.185077 0.435211,-1.441353 1.376225,-2.55615 2.685701,-3.181685 0.713229,-0.34069 1.161468,-0.438328 2.015524,-0.438952 0.61595,-5.29e-4 0.750501,0.0141 1.155814,0.125817 0.86174,0.237272 1.530593,0.615266 2.170533,1.226669 1.298811,1.240862 1.834751,3.191065 1.31635,4.789971 -0.424794,1.310176 -1.217078,2.246444 -2.481673,2.932615 l -0.327673,0.177762 -0.0037,1.157397 c -0.0021,0.636545 -0.0013,1.43447 0.0011,1.773144 l 0.0048,0.615792 h 4.837287 c 5.305536,0 5.473747,0.008 6.518246,0.277455 0.806709,0.208767 1.297149,0.393335 2.052087,0.772255 2.52798,1.268884 4.440512,3.533445 5.20786,6.284876 0.279826,1.003358 0.27958,1.655712 0.27958,1.655712 l 0.61102,0.04772 0.0086,1.94034 c 0,0 2.679272,0.07888 2.937926,0.530852 0.772139,1.349293 0.69083,3.2850217 0.690919,5.3006916 -5.29e-4,4.37584321 0.0113,4.22517623 -0.394559,5.0618734 -0.58978,1.2156308 -1.992906,2.0621916 -3.417943,2.0621916 h -0.365594 l -0.02283,0.1509871 c -0.01249,0.083143 -0.03351,0.2242476 -0.04656,0.3136927 -0.05258,0.360299 -0.262186,1.1663362 -0.422966,1.6265869 -0.891122,2.550959 -2.914454,4.7029237 -5.401781,5.7452048 -1.099663,0.4607959 -2.158465,0.6925519 -3.474481,0.7605369 -0.968651,0.04992 -22.427515,0.0465 -23.167065,-0.0041 z"
         id="path3"
         sodipodi:nodetypes="cscsscccccccscccccssccccccscccccsccscccsccsccsssccc"
         inkscape:label="Mask Ohrhörer" /></mask><filter
       id="mask-powermask-path-effect1-6_inverse"
       inkscape:label="filtermask-powermask-path-effect1-6"
       style="color-interpolation-filters:sRGB"
       height="100"
       width="100"
       x="-50"
       y="-50"><feColorMatrix
         id="mask-powermask-path-effect1-6_primitive1"
         values="1"
         type="saturate"
         result="fbSourceGraphic" /><feColorMatrix
         id="mask-powermask-path-effect1-6_primitive2"
         values="-1 0 0 0 1 0 -1 0 0 1 0 0 -1 0 1 0 0 0 1 0 "
         in="fbSourceGraphic" /></filter></defs><g
     inkscape:groupmode="layer"
     id="layer6"
     inkscape:label="Ebene 2"><path
       style="display:inline;fill:#ffffff;fill-opacity:1;stroke:#ffffff;stroke-width:11.4598;stroke-dasharray:none;stroke-opacity:1"
       d="M 59.223747,123.79531 C 45.542253,121.18586 35.176129,111.58996 31.568002,98.194419 c -0.712975,-2.646993 -0.789714,-3.462238 -0.789714,-8.389656 0,-4.955561 0.07421,-5.733641 0.806521,-8.45591 2.114838,-7.861672 7.292337,-15.315793 13.648034,-19.649285 l 1.76069,-1.200485 -1.609085,-1.156487 c -0.884997,-0.636067 -1.92604,-1.588768 -2.313431,-2.11711 -0.950365,-1.296156 -2.16953,-3.96078 -2.173178,-4.749727 -0.0026,-0.569787 -0.221112,-0.65822 -1.973746,-0.798904 -2.206646,-0.177129 -3.237694,-0.714294 -4.10674,-2.13957 -0.524439,-0.860105 -0.590809,-1.548006 -0.590809,-6.123509 0,-4.570269 0.06678,-5.264063 0.589059,-6.120633 0.323983,-0.531344 0.852777,-1.107215 1.175098,-1.279715 0.481623,-0.257757 0.624371,-0.787931 0.801194,-2.975641 0.644818,-7.977936 3.289695,-13.927713 8.572206,-19.283585 4.950077,-5.0188252 11.007451,-7.6914507 18.119854,-7.9948146 5.09833,-0.2174579 8.526159,0.5057684 13.03799,2.7508456 5.859776,2.915813 9.802501,6.871894 12.726166,12.76928 1.932668,3.898424 2.878667,7.357523 3.109575,11.37034 0.161626,2.808794 0.190867,2.901571 1.174914,3.72768 1.367963,1.148408 1.634195,2.348392 1.628355,7.339452 -0.0041,3.487576 -0.105844,4.467042 -0.570342,5.489871 -0.695115,1.530641 -2.552599,2.54517 -4.659907,2.54517 -1.401334,0 -1.410403,0.0067 -1.7512,1.288638 -0.703415,2.646001 -2.753455,5.459572 -5.003915,6.867607 -0.386745,0.241972 -0.465075,0.421596 -0.227766,0.522308 0.792235,0.33622 4.582744,3.296649 6.105524,4.76848 4.102329,3.965075 7.799991,10.343782 9.361846,16.149794 0.732306,2.722269 0.806517,3.500349 0.806517,8.45591 0,4.927418 -0.07678,5.742663 -0.789716,8.389656 -3.357213,12.464001 -12.696959,21.794721 -25.042341,25.018151 -3.629728,0.94775 -10.722429,1.23951 -14.165908,0.58274 z"
       id="path54"
       sodipodi:nodetypes="ssssscssssssssssssssscsssssssssss" /><path
       style="fill:#ffffff;fill-opacity:1;stroke:#ffffff;stroke-opacity:1;stroke-width:10;stroke-dasharray:none"
       d="M 47.050088,72.91987 C 45.73291,72.817124 43.946736,72.597182 42.945113,72.414401 29.772377,70.010571 19.198897,60.215267 15.808501,47.274962 c -1.472404,-5.619801 -1.482577,-11.58304 -0.02947,-17.272 2.08233,-8.152366 7.1165,-15.253085 14.177689,-19.997696 L 31.172169,9.1885755 30.528523,8.8217281 C 27.643908,7.1776352 25.605855,4.3734251 25.00102,1.2162952 L 24.855038,0.45429524 24.48023,0.43174686 C 23.58515,0.37789907 22.89268,0.22089933 22.306309,-0.06113372 21.525266,-0.43680013 20.709103,-1.1901343 20.346891,-1.8697141 c -0.482049,-0.9044162 -0.514186,-1.2459342 -0.514288,-5.465324 -1.14e-4,-4.6886739 0.05514,-5.4986029 0.428849,-6.2860959 0.676844,-1.426273 2.398966,-2.471356 4.07946,-2.475653 0.318448,-8.14e-4 0.499839,-0.03823 0.519104,-0.107084 0.01629,-0.05821 0.07112,-0.469182 0.121854,-0.913274 0.05073,-0.444093 0.1894,-1.148943 0.308151,-1.566334 0.289832,-1.018718 1.183765,-2.79611 1.85079,-3.679892 1.425218,-1.888361 3.506469,-3.392425 5.672816,-4.099592 1.539621,-0.502583 1.380128,-0.491702 7.822961,-0.533707 l 5.947834,-0.03878 v -2.056357 -2.056357 l -0.267654,-0.110866 c -1.129499,-0.467854 -2.25414,-1.702231 -2.822836,-3.098272 -0.191992,-0.471306 -0.243601,-0.75028 -0.277314,-1.499041 -0.05147,-1.143172 0.04906,-1.634963 0.545398,-2.668138 0.687235,-1.430535 2.120923,-2.620121 3.632171,-3.013751 0.798298,-0.20793 2.094738,-0.171882 2.890031,0.08036 2.808112,0.890639 4.475887,3.755967 3.820504,6.563833 -0.04891,0.20955 -0.240289,0.699896 -0.425284,1.089657 -0.414389,0.873066 -1.320689,1.831855 -2.24785,2.378037 l -0.613833,0.361604 v 2.022351 2.022351 l 5.312833,7.24e-4 c 2.922059,3.98e-4 5.735228,0.03812 6.251487,0.08382 3.176654,0.281233 6.385398,2.254596 8.260414,5.080119 1.065068,1.604985 1.849933,3.868335 1.849933,5.334734 v 0.401886 l 0.740833,0.0398 c 2.258979,0.12135 4.013336,1.687675 4.256188,3.800009 0.101327,0.881344 0.104457,8.2903724 0.0038,9.0707451 -0.196773,1.5260253 -1.390815,2.87303512 -3.01241,3.39832689 -0.233506,0.0756409 -0.766504,0.16602276 -1.18444,0.20084858 l -0.759884,0.0633197 -0.05436,0.38108852 C 72.200791,2.8080886 71.085494,5.074967 69.576185,6.7419243 69.0639,7.3077165 67.959992,8.1981463 67.224975,8.6384466 l -0.568447,0.340519 1.37278,0.9134475 c 4.385758,2.9182819 7.817295,6.4949879 10.512446,10.9571679 5.149969,8.526458 6.33254,18.988918 3.216866,28.46031 -0.802344,2.439061 -2.134816,5.288535 -3.482713,7.447737 -3.136457,5.024309 -7.6889,9.303105 -12.853152,12.080552 -3.965016,2.132471 -8.008237,3.394269 -12.574834,3.924322 -1.081243,0.125501 -4.88336,0.228701 -5.797833,0.157368 z"
       id="path9"
       sodipodi:nodetypes="ssssscsscsssssssssssscccssssssssscccscsscsscsscssscsssssss"
       transform="translate(15.899578,51.507038)" /></g><g
     inkscape:label="Ebene 1"
     inkscape:groupmode="layer"
     id="layer1"
     transform="translate(15.899578,51.507039)"><g
       id="g8"
       inkscape:label="Bot"
       style="display:inline"
       transform="matrix(1.1459916,0,0,1.1459916,-7.1682491,-1.7985179)"><path
         style="fill:none;fill-opacity:0;stroke:#000000;stroke-width:6;stroke-linejoin:round;stroke-dasharray:none;stroke-opacity:1"
         id="path7"
         mask="url(#mask-powermask-path-effect31)"
         inkscape:path-effect="#path-effect31"
         sodipodi:type="arc"
         sodipodi:cx="49.100422"
         sodipodi:cy="35.239109"
         sodipodi:rx="27.023403"
         sodipodi:ry="27.023403"
         d="M 76.123825,35.239109 A 27.023403,27.023403 0 0 1 49.100422,62.262512 27.023403,27.023403 0 0 1 22.077019,35.239109 27.023403,27.023403 0 0 1 49.100422,8.2157059 27.023403,27.023403 0 0 1 76.123825,35.239109 Z" /><path
         style="display:inline;fill:#000000;stroke-width:0.0464735"
         d="m 37.055219,10.506686 c -3.2889,-0.223703 -6.213485,-2.0435024 -7.86471,-4.9006351 -0.588959,-1.0190827 -0.949257,-2.0629935 -1.133431,-3.003702 -0.05448,-0.3130289 -0.1113,-0.6871511 -0.1113,-0.6871511 0,0 -1.788598,0.00249 -2.130758,-0.013211 -0.451656,-0.020736 -0.632238,-0.052141 -0.991731,-0.1723279 -1.412827,-0.4724524 -2.378448,-1.5786326 -2.598448,-2.9766632 -0.03985,-0.2528953 -0.05073,-1.4111565 -0.04007,-4.228839 0,0 0.0079,-3.4816307 0.06841,-3.8775224 0.05315,-0.3475241 0.117197,-0.5440729 0.117197,-0.5440729 0.265773,-0.7648894 0.644294,-1.2416124 1.228116,-1.7112874 0.642605,-0.516923 1.458727,-0.826489 2.318253,-0.879295 l 2.052242,-0.02859 0.0302,-0.44149 c 0.164315,-2.408846 1.473683,-4.922177 3.455398,-6.632672 1.154485,-0.996483 2.566537,-1.749049 3.943629,-2.101757 1.236438,-0.316714 0.890637,-0.299239 6.466448,-0.326436 l 5.065616,-0.02477 v -1.765979 -1.765998 l -0.407678,-0.215953 c -0.979884,-0.519037 -1.651897,-1.232305 -2.146961,-2.278755 -0.354204,-0.748701 -0.420116,-1.056052 -0.416802,-1.943521 0.0027,-0.695954 0.01449,-0.805451 0.129166,-1.185077 0.435211,-1.441353 1.376224,-2.55615 2.685702,-3.181685 0.713229,-0.34069 1.161468,-0.438328 2.015523,-0.438952 0.615949,-5.25e-4 0.750502,0.0141 1.155815,0.125817 0.861739,0.237272 1.530593,0.615266 2.170532,1.226669 1.29881,1.240862 1.83475,3.191065 1.31635,4.789971 -0.424793,1.310176 -1.217077,2.246444 -2.481672,2.932615 l -0.327675,0.177762 -0.0037,1.157396 c -0.002,0.636546 -0.0014,1.43447 0.0011,1.773146 l 0.0048,0.615791 h 4.837287 c 5.305537,0 5.47375,0.008 6.518245,0.277456 0.806708,0.208766 1.297149,0.393333 2.052087,0.772254 2.527981,1.268885 4.411358,3.541742 5.207862,6.284877 0.124937,0.430276 0.289901,1.267436 0.298766,1.810251 l 0.0063,0.385774 2.102143,-0.0043 c 1.774409,0.143246 2.96997,1.278991 3.383709,2.314028 0.310682,0.7772237 0.324952,0.6703882 0.324589,4.9696085 -5.25e-4,4.3758411 0.0113,4.2251751 -0.394559,5.0618715 -0.589736,1.2156042 -1.99286,2.0621653 -3.417902,2.0621653 h -1.953091 l -0.02283,0.1509882 c -0.01248,0.083144 -0.03351,0.2242478 -0.04656,0.3136933 -0.05258,0.3602986 -0.262184,1.1663344 -0.422963,1.6265869 -0.891123,2.5509568 -2.914455,4.7029221 -5.401783,5.7452041 -1.099662,0.4607942 -2.158464,0.6925522 -3.474481,0.7605362 -0.96865,0.04992 -22.427516,0.0465 -23.167066,-0.0041 z M 60.687018,6.4569202 c 0.737677,-0.1727306 1.537961,-0.5120716 2.120091,-0.8990849 0.426396,-0.2834553 1.09714,-0.8679235 1.4243,-1.3026085 0.53174,-0.7065245 0.933119,-1.6640115 1.040293,-2.481603 0.03611,-0.2755033 0.0472,-2.52846957 0.03728,-7.5950921 l -0.0141,-7.2034087 -0.132911,-0.487974 c -0.326256,-1.197826 -0.995854,-2.203278 -1.884891,-2.985478 -0.733409,-0.645283 -1.731869,-1.131526 -2.749215,-1.338844 -0.453379,-0.09241 -0.613587,-0.09362 -11.728679,-0.09362 -9.934171,0 -11.313541,0.008 -11.644876,0.07127 -1.11584,0.211685 -2.222718,0.779946 -3.068338,1.57529 -0.596944,0.561455 -1.181339,1.465694 -1.470963,2.276018 -0.316183,0.884651 -0.300148,0.433457 -0.300148,8.4464648 0,6.4409179 0.0083,7.2865327 0.07385,7.6048965 0.348366,1.6896996 1.419462,3.072893 2.993401,3.8656216 0.531288,0.2675915 1.228743,0.4973554 1.765994,0.5817477 0.322846,0.050732 2.479751,0.060194 11.804284,0.052344 10.386011,-0.00806 11.438432,-0.016105 11.73457,-0.085963 z M 40.285129,-1.9250022 c -0.680121,-0.097035 -1.506417,-0.4485761 -2.009588,-0.8551572 -0.612736,-0.4951006 -1.153956,-1.3208052 -1.336358,-2.0387845 -0.308322,-1.2136235 0.07103,-2.5820202 0.979246,-3.5323204 1.041977,-1.090256 2.470726,-1.497683 3.850217,-1.097906 1.524129,0.441671 2.621953,1.73868 2.813909,3.32448 0.07485,0.6182869 -0.01349,1.1826607 -0.284582,1.8199117 -0.198621,0.4667752 -0.456732,0.8319051 -0.896778,1.2687041 -0.696934,0.6917679 -1.543137,1.0723791 -2.46823,1.1101663 -0.279627,0.012073 -0.571154,0.012073 -0.647836,9.06e-4 z m 15.971283,-0.02134 c -2.085361,-0.3735852 -3.570756,-2.342452 -3.258891,-4.3196132 0.129588,-0.8214968 0.49761,-1.5321479 1.108764,-2.1409929 0.67938,-0.67679 1.440108,-1.058952 2.332044,-1.171549 1.569634,-0.198096 3.190154,0.720033 3.90306,2.2114148 0.266249,0.5569857 0.368865,1.0120039 0.368865,1.6355854 0,1.0745331 -0.379604,1.9421921 -1.191511,2.7234659 -0.508451,0.4892624 -1.095754,0.8163834 -1.787499,0.9956368 -0.33765,0.087574 -1.151657,0.1240114 -1.474832,0.066033 z"
         id="path1-3"
         sodipodi:nodetypes="csccscccssccccscccccssccccccscccccsccssccsccsccssscccccssscsscscssscscccccssscscccccsccsssccc" /><path
         style="display:inline;fill:none;fill-opacity:1;stroke:#000000;stroke-width:3.2;stroke-linejoin:round;stroke-dasharray:none;stroke-opacity:1"
         id="path35-1"
         sodipodi:type="arc"
         sodipodi:cx="48.768349"
         sodipodi:cy="-13.121378"
         sodipodi:rx="22.962942"
         sodipodi:ry="23.85943"
         sodipodi:start="3.0708623"
         sodipodi:end="0.080142042"
         sodipodi:arc-type="slice"
         inkscape:label="Ohrhörer"
         mask="url(#mask-powermask-path-effect1-6)"
         inkscape:path-effect="#path-effect1-6"
         d="m 25.862822,-11.435199 a 22.962942,23.85943 0 0 1 11.020011,-22.100915 22.962942,23.85943 0 0 1 23.95542,0.117133 22.962942,23.85943 0 0 1 10.819335,22.2077 l -22.889239,-1.910097 z" /><path
         style="display:inline;fill:#000000;stroke-width:0.0464735"
         d="m 37.055219,10.506686 c -3.2889,-0.223703 -6.213485,-2.0435024 -7.86471,-4.9006351 -0.588959,-1.0190827 -0.949257,-2.0629935 -1.133431,-3.003702 -0.05448,-0.3130289 -0.1113,-0.6871511 -0.1113,-0.6871511 0,0 -0.403335,0.00249 -0.745495,-0.013211 -0.451656,-0.020736 -0.632238,-0.052141 -0.991731,-0.1723279 -1.412827,-0.4724524 -2.378448,-1.5786326 -2.598448,-2.9766632 -0.03985,-0.2528953 -0.05073,-1.4111565 -0.04007,-4.228839 0,0 0.0079,-3.4816307 0.06841,-3.8775224 0.05315,-0.3475241 0.117197,-0.5440729 0.117197,-0.5440729 0.265773,-0.7648894 0.644294,-1.2416124 1.228116,-1.7112874 0.642605,-0.516923 1.458727,-0.826489 2.318253,-0.879295 l 0.666979,-0.02859 0.0302,-0.44149 c 0.164315,-2.408846 1.473683,-4.922177 3.455398,-6.632672 1.154485,-0.996483 2.566537,-1.749049 3.943629,-2.101757 1.236438,-0.316714 0.890637,-0.299239 6.466448,-0.326436 l 5.065616,-0.02477 v -1.765979 -1.765998 l -0.407678,-0.215953 c -0.979884,-0.519037 -1.651897,-1.232305 -2.146961,-2.278755 -0.354204,-0.748701 -0.420116,-1.056052 -0.416802,-1.943521 0.0027,-0.695954 0.01449,-0.805451 0.129166,-1.185077 0.435211,-1.441353 1.376224,-2.55615 2.685702,-3.181685 0.713229,-0.34069 1.161468,-0.438328 2.015523,-0.438952 0.615949,-5.25e-4 0.750502,0.0141 1.155815,0.125817 0.861739,0.237272 1.530593,0.615266 2.170532,1.226669 1.29881,1.240862 1.83475,3.191065 1.31635,4.789971 -0.424793,1.310176 -1.217077,2.246444 -2.481672,2.932615 l -0.327675,0.177762 -0.0037,1.157396 c -0.002,0.636546 -0.0014,1.43447 0.0011,1.773146 l 0.0048,0.615791 h 4.837287 c 5.305537,0 5.47375,0.008 6.518245,0.277456 0.806708,0.208766 1.297149,0.393333 2.052087,0.772254 2.527981,1.268885 4.411358,3.541742 5.207862,6.284877 0.124937,0.430276 0.289901,1.267436 0.298766,1.810251 l 0.0063,0.385774 0.71688,-0.0043 c 1.774409,0.143246 2.96997,1.278991 3.383709,2.314028 0.310682,0.7772237 0.324952,0.6703882 0.324589,4.9696085 -5.25e-4,4.3758411 0.0113,4.2251751 -0.394559,5.0618715 -0.589736,1.2156042 -1.99286,2.0621653 -3.417902,2.0621653 h -0.567828 l -0.02283,0.1509882 c -0.01248,0.083144 -0.03351,0.2242478 -0.04656,0.3136933 -0.05258,0.3602986 -0.262184,1.1663344 -0.422963,1.6265869 -0.891123,2.5509568 -2.914455,4.7029221 -5.401783,5.7452041 -1.099662,0.4607942 -2.158464,0.6925522 -3.474481,0.7605362 -0.96865,0.04992 -22.427516,0.0465 -23.167066,-0.0041 z M 60.687018,6.4569202 c 0.737677,-0.1727306 1.537961,-0.5120716 2.120091,-0.8990849 0.426396,-0.2834553 1.09714,-0.8679235 1.4243,-1.3026085 0.53174,-0.7065245 0.933119,-1.6640115 1.040293,-2.481603 0.03611,-0.2755033 0.0472,-2.52846957 0.03728,-7.5950921 l -0.0141,-7.2034087 -0.132911,-0.487974 c -0.326256,-1.197826 -0.995854,-2.203278 -1.884891,-2.985478 -0.733409,-0.645283 -1.731869,-1.131526 -2.749215,-1.338844 -0.453379,-0.09241 -0.613587,-0.09362 -11.728679,-0.09362 -9.934171,0 -11.313541,0.008 -11.644876,0.07127 -1.11584,0.211685 -2.222718,0.779946 -3.068338,1.57529 -0.596944,0.561455 -1.181339,1.465694 -1.470963,2.276018 -0.316183,0.884651 -0.300148,0.433457 -0.300148,8.4464648 0,6.4409179 0.0083,7.2865327 0.07385,7.6048965 0.348366,1.6896996 1.419462,3.072893 2.993401,3.8656216 0.531288,0.2675915 1.228743,0.4973554 1.765994,0.5817477 0.322846,0.050732 2.479751,0.060194 11.804284,0.052344 10.386011,-0.00806 11.438432,-0.016105 11.73457,-0.085963 z M 40.285129,-1.9250022 c -0.680121,-0.097035 -1.506417,-0.4485761 -2.009588,-0.8551572 -0.612736,-0.4951006 -1.153956,-1.3208052 -1.336358,-2.0387845 -0.308322,-1.2136235 0.07103,-2.5820202 0.979246,-3.5323204 1.041977,-1.090256 2.470726,-1.497683 3.850217,-1.097906 1.524129,0.441671 2.621953,1.73868 2.813909,3.32448 0.07485,0.6182869 -0.01349,1.1826607 -0.284582,1.8199117 -0.198621,0.4667752 -0.456732,0.8319051 -0.896778,1.2687041 -0.696934,0.6917679 -1.543137,1.0723791 -2.46823,1.1101663 -0.279627,0.012073 -0.571154,0.012073 -0.647836,9.06e-4 z m 15.971283,-0.02134 c -2.085361,-0.3735852 -3.570756,-2.342452 -3.258891,-4.3196132 0.129588,-0.8214968 0.49761,-1.5321479 1.108764,-2.1409929 0.67938,-0.67679 1.440108,-1.058952 2.332044,-1.171549 1.569634,-0.198096 3.190154,0.720033 3.90306,2.2114148 0.266249,0.5569857 0.368865,1.0120039 0.368865,1.6355854 0,1.0745331 -0.379604,1.9421921 -1.191511,2.7234659 -0.508451,0.4892624 -1.095754,0.8163834 -1.787499,0.9956368 -0.33765,0.087574 -1.151657,0.1240114 -1.474832,0.066033 z"
         id="path1"
         sodipodi:nodetypes="csccscccssccccscccccssccccccscccccsccssccsccsccssscccccssscsscscssscscccccssscscccccsccsssccc" /></g><path
       d="m 37.646088,53.585205 v -30 a 2.8864886,2.8864886 150.00226 0 1 4.32993,-2.499659 L 67.8665,36.036144 a 2.894323,2.894323 89.939484 0 1 0.0053,5.009823 L 41.970727,56.075723 a 2.8794519,2.8794519 29.937226 0 1 -4.324639,-2.490518 z"
       style="fill:#000000;fill-opacity:1;fill-rule:nonzero;stroke:none;stroke-width:0.336005"
       id="path1-0"
       inkscape:path-effect="#path-effect27"
       inkscape:original-d="m 37.646088,58.585205 v -40 l 34.550342,19.95128 z"
       transform="matrix(1.118585,0,0,1.118585,-6.0517617,-4.5752096)" /></g></svg>
